%TF.GenerationSoftware,KiCad,Pcbnew,(5.1.10)-1*%
%TF.CreationDate,2022-03-22T21:52:09-04:00*%
%TF.ProjectId,Keeber40,4b656562-6572-4343-902e-6b696361645f,rev?*%
%TF.SameCoordinates,Original*%
%TF.FileFunction,Legend,Top*%
%TF.FilePolarity,Positive*%
%FSLAX46Y46*%
G04 Gerber Fmt 4.6, Leading zero omitted, Abs format (unit mm)*
G04 Created by KiCad (PCBNEW (5.1.10)-1) date 2022-03-22 21:52:09*
%MOMM*%
%LPD*%
G01*
G04 APERTURE LIST*
%ADD10C,0.250000*%
%ADD11C,0.200000*%
%ADD12C,0.700000*%
%ADD13C,0.010000*%
%ADD14C,0.381000*%
%ADD15C,0.150000*%
G04 APERTURE END LIST*
D10*
X196794571Y-147707714D02*
X197708857Y-147707714D01*
X198223142Y-147822000D02*
X198794571Y-147822000D01*
X198108857Y-148164857D02*
X198508857Y-146964857D01*
X198908857Y-148164857D01*
X199480285Y-148164857D02*
X199366000Y-148107714D01*
X199308857Y-147993428D01*
X199308857Y-146964857D01*
X200394571Y-148107714D02*
X200280285Y-148164857D01*
X200051714Y-148164857D01*
X199937428Y-148107714D01*
X199880285Y-147993428D01*
X199880285Y-147536285D01*
X199937428Y-147422000D01*
X200051714Y-147364857D01*
X200280285Y-147364857D01*
X200394571Y-147422000D01*
X200451714Y-147536285D01*
X200451714Y-147650571D01*
X199880285Y-147764857D01*
X200851714Y-148164857D02*
X201480285Y-147364857D01*
X200851714Y-147364857D02*
X201480285Y-148164857D01*
X202851714Y-148164857D02*
X202851714Y-146964857D01*
X203308857Y-146964857D01*
X203423142Y-147022000D01*
X203480285Y-147079142D01*
X203537428Y-147193428D01*
X203537428Y-147364857D01*
X203480285Y-147479142D01*
X203423142Y-147536285D01*
X203308857Y-147593428D01*
X202851714Y-147593428D01*
X204508857Y-148107714D02*
X204394571Y-148164857D01*
X204166000Y-148164857D01*
X204051714Y-148107714D01*
X203994571Y-147993428D01*
X203994571Y-147536285D01*
X204051714Y-147422000D01*
X204166000Y-147364857D01*
X204394571Y-147364857D01*
X204508857Y-147422000D01*
X204566000Y-147536285D01*
X204566000Y-147650571D01*
X203994571Y-147764857D01*
X205080285Y-147364857D02*
X205080285Y-148164857D01*
X205080285Y-147479142D02*
X205137428Y-147422000D01*
X205251714Y-147364857D01*
X205423142Y-147364857D01*
X205537428Y-147422000D01*
X205594571Y-147536285D01*
X205594571Y-148164857D01*
X206680285Y-147364857D02*
X206680285Y-148336285D01*
X206623142Y-148450571D01*
X206566000Y-148507714D01*
X206451714Y-148564857D01*
X206280285Y-148564857D01*
X206166000Y-148507714D01*
X206680285Y-148107714D02*
X206566000Y-148164857D01*
X206337428Y-148164857D01*
X206223142Y-148107714D01*
X206166000Y-148050571D01*
X206108857Y-147936285D01*
X206108857Y-147593428D01*
X206166000Y-147479142D01*
X206223142Y-147422000D01*
X206337428Y-147364857D01*
X206566000Y-147364857D01*
X206680285Y-147422000D01*
X207308857Y-148107714D02*
X207308857Y-148164857D01*
X207251714Y-148279142D01*
X207194571Y-148336285D01*
X208680285Y-147079142D02*
X208737428Y-147022000D01*
X208851714Y-146964857D01*
X209137428Y-146964857D01*
X209251714Y-147022000D01*
X209308857Y-147079142D01*
X209366000Y-147193428D01*
X209366000Y-147307714D01*
X209308857Y-147479142D01*
X208623142Y-148164857D01*
X209366000Y-148164857D01*
X210108857Y-146964857D02*
X210223142Y-146964857D01*
X210337428Y-147022000D01*
X210394571Y-147079142D01*
X210451714Y-147193428D01*
X210508857Y-147422000D01*
X210508857Y-147707714D01*
X210451714Y-147936285D01*
X210394571Y-148050571D01*
X210337428Y-148107714D01*
X210223142Y-148164857D01*
X210108857Y-148164857D01*
X209994571Y-148107714D01*
X209937428Y-148050571D01*
X209880285Y-147936285D01*
X209823142Y-147707714D01*
X209823142Y-147422000D01*
X209880285Y-147193428D01*
X209937428Y-147079142D01*
X209994571Y-147022000D01*
X210108857Y-146964857D01*
X210966000Y-147079142D02*
X211023142Y-147022000D01*
X211137428Y-146964857D01*
X211423142Y-146964857D01*
X211537428Y-147022000D01*
X211594571Y-147079142D01*
X211651714Y-147193428D01*
X211651714Y-147307714D01*
X211594571Y-147479142D01*
X210908857Y-148164857D01*
X211651714Y-148164857D01*
X212108857Y-147079142D02*
X212166000Y-147022000D01*
X212280285Y-146964857D01*
X212566000Y-146964857D01*
X212680285Y-147022000D01*
X212737428Y-147079142D01*
X212794571Y-147193428D01*
X212794571Y-147307714D01*
X212737428Y-147479142D01*
X212051714Y-148164857D01*
X212794571Y-148164857D01*
D11*
X210173107Y-144983857D02*
X210358821Y-145783857D01*
X210744535Y-144983857D01*
X211480250Y-144583857D02*
X211594535Y-144583857D01*
X211701678Y-144641000D01*
X211751678Y-144698142D01*
X211794535Y-144812428D01*
X211823107Y-145041000D01*
X211787392Y-145326714D01*
X211701678Y-145555285D01*
X211630250Y-145669571D01*
X211565964Y-145726714D01*
X211444535Y-145783857D01*
X211330250Y-145783857D01*
X211223107Y-145726714D01*
X211173107Y-145669571D01*
X211130250Y-145555285D01*
X211101678Y-145326714D01*
X211137392Y-145041000D01*
X211223107Y-144812428D01*
X211294535Y-144698142D01*
X211358821Y-144641000D01*
X211480250Y-144583857D01*
X212258821Y-145669571D02*
X212308821Y-145726714D01*
X212244535Y-145783857D01*
X212194535Y-145726714D01*
X212258821Y-145669571D01*
X212244535Y-145783857D01*
X213444535Y-145783857D02*
X212758821Y-145783857D01*
X213101678Y-145783857D02*
X213251678Y-144583857D01*
X213115964Y-144755285D01*
X212987392Y-144869571D01*
X212865964Y-144926714D01*
D12*
X136098142Y-142645714D02*
X136526714Y-142788571D01*
X136669571Y-142931428D01*
X136812428Y-143217142D01*
X136812428Y-143645714D01*
X136669571Y-143931428D01*
X136526714Y-144074285D01*
X136241000Y-144217142D01*
X135098142Y-144217142D01*
X135098142Y-141217142D01*
X136098142Y-141217142D01*
X136383857Y-141360000D01*
X136526714Y-141502857D01*
X136669571Y-141788571D01*
X136669571Y-142074285D01*
X136526714Y-142360000D01*
X136383857Y-142502857D01*
X136098142Y-142645714D01*
X135098142Y-142645714D01*
X138098142Y-144217142D02*
X138098142Y-142217142D01*
X138098142Y-141217142D02*
X137955285Y-141360000D01*
X138098142Y-141502857D01*
X138241000Y-141360000D01*
X138098142Y-141217142D01*
X138098142Y-141502857D01*
X140812428Y-144074285D02*
X140526714Y-144217142D01*
X139955285Y-144217142D01*
X139669571Y-144074285D01*
X139526714Y-143931428D01*
X139383857Y-143645714D01*
X139383857Y-142788571D01*
X139526714Y-142502857D01*
X139669571Y-142360000D01*
X139955285Y-142217142D01*
X140526714Y-142217142D01*
X140812428Y-142360000D01*
X142669571Y-141217142D02*
X143241000Y-141217142D01*
X143526714Y-141360000D01*
X143812428Y-141645714D01*
X143955285Y-142217142D01*
X143955285Y-143217142D01*
X143812428Y-143788571D01*
X143526714Y-144074285D01*
X143241000Y-144217142D01*
X142669571Y-144217142D01*
X142383857Y-144074285D01*
X142098142Y-143788571D01*
X141955285Y-143217142D01*
X141955285Y-142217142D01*
X142098142Y-141645714D01*
X142383857Y-141360000D01*
X142669571Y-141217142D01*
X144955285Y-142217142D02*
X145526714Y-144217142D01*
X146098142Y-142788571D01*
X146669571Y-144217142D01*
X147241000Y-142217142D01*
X148812428Y-144217142D02*
X148526714Y-144074285D01*
X148383857Y-143931428D01*
X148241000Y-143645714D01*
X148241000Y-142788571D01*
X148383857Y-142502857D01*
X148526714Y-142360000D01*
X148812428Y-142217142D01*
X149241000Y-142217142D01*
X149526714Y-142360000D01*
X149669571Y-142502857D01*
X149812428Y-142788571D01*
X149812428Y-143645714D01*
X149669571Y-143931428D01*
X149526714Y-144074285D01*
X149241000Y-144217142D01*
X148812428Y-144217142D01*
X152383857Y-142217142D02*
X152383857Y-144217142D01*
X151669571Y-141074285D02*
X150955285Y-143217142D01*
X152812428Y-143217142D01*
X154526714Y-141217142D02*
X154812428Y-141217142D01*
X155098142Y-141360000D01*
X155241000Y-141502857D01*
X155383857Y-141788571D01*
X155526714Y-142360000D01*
X155526714Y-143074285D01*
X155383857Y-143645714D01*
X155241000Y-143931428D01*
X155098142Y-144074285D01*
X154812428Y-144217142D01*
X154526714Y-144217142D01*
X154241000Y-144074285D01*
X154098142Y-143931428D01*
X153955285Y-143645714D01*
X153812428Y-143074285D01*
X153812428Y-142360000D01*
X153955285Y-141788571D01*
X154098142Y-141502857D01*
X154241000Y-141360000D01*
X154526714Y-141217142D01*
D13*
%TO.C,G\u002A\u002A\u002A*%
G36*
X52432682Y-140340534D02*
G01*
X52535461Y-140317774D01*
X52601667Y-140311558D01*
X52645609Y-140320962D01*
X52681596Y-140345062D01*
X52691958Y-140354106D01*
X52770172Y-140402331D01*
X52835280Y-140418285D01*
X52908890Y-140445015D01*
X52942183Y-140480956D01*
X52981623Y-140528575D01*
X53004722Y-140536923D01*
X53037611Y-140557495D01*
X53101483Y-140618470D01*
X53184220Y-140708004D01*
X53209815Y-140737389D01*
X53328581Y-140893388D01*
X53432397Y-141071230D01*
X53525553Y-141281190D01*
X53612344Y-141533550D01*
X53697064Y-141838585D01*
X53735878Y-141996704D01*
X53781901Y-142193968D01*
X53812831Y-142339794D01*
X53830269Y-142448390D01*
X53835815Y-142533963D01*
X53831066Y-142610718D01*
X53817622Y-142692863D01*
X53815482Y-142703853D01*
X53791164Y-142822432D01*
X53769440Y-142919787D01*
X53757881Y-142964716D01*
X53740901Y-143032517D01*
X53719340Y-143133963D01*
X53711755Y-143172946D01*
X53685606Y-143278238D01*
X53654287Y-143361314D01*
X53643774Y-143379525D01*
X53614896Y-143440217D01*
X53613055Y-143467634D01*
X53601655Y-143507816D01*
X53564464Y-143596896D01*
X53506594Y-143723500D01*
X53433154Y-143876254D01*
X53393417Y-143956440D01*
X53314259Y-144117740D01*
X53248172Y-144258362D01*
X53200268Y-144366945D01*
X53175659Y-144432127D01*
X53173641Y-144444734D01*
X53159822Y-144483361D01*
X53116238Y-144569032D01*
X53049051Y-144691380D01*
X52964433Y-144840035D01*
X52868545Y-145004624D01*
X52767558Y-145174780D01*
X52667636Y-145340132D01*
X52574947Y-145490308D01*
X52495657Y-145614941D01*
X52435932Y-145703660D01*
X52401938Y-145746094D01*
X52398543Y-145748184D01*
X52362471Y-145779813D01*
X52304316Y-145852075D01*
X52235435Y-145948106D01*
X52167190Y-146051040D01*
X52110938Y-146144013D01*
X52078039Y-146210163D01*
X52074174Y-146229751D01*
X52104272Y-146267406D01*
X52170642Y-146326383D01*
X52207529Y-146355302D01*
X52334856Y-146470381D01*
X52428055Y-146604805D01*
X52499268Y-146778275D01*
X52527321Y-146874114D01*
X52555971Y-146988168D01*
X52566123Y-147070745D01*
X52555011Y-147146494D01*
X52519869Y-147240059D01*
X52475206Y-147338644D01*
X52418507Y-147453919D01*
X52368569Y-147541960D01*
X52334454Y-147587119D01*
X52329795Y-147589795D01*
X52289393Y-147620357D01*
X52229763Y-147685580D01*
X52210310Y-147709951D01*
X52127812Y-147797576D01*
X52021182Y-147887266D01*
X51978917Y-147917166D01*
X51889844Y-147979275D01*
X51824350Y-148030982D01*
X51805920Y-148049365D01*
X51765543Y-148075501D01*
X51675298Y-148120552D01*
X51548237Y-148178361D01*
X51397413Y-148242770D01*
X51385712Y-148247611D01*
X51231633Y-148312927D01*
X51098332Y-148372638D01*
X50999599Y-148420345D01*
X50949223Y-148449652D01*
X50948143Y-148450590D01*
X50903441Y-148474395D01*
X50805507Y-148516450D01*
X50665000Y-148572511D01*
X50492579Y-148638334D01*
X50298901Y-148709676D01*
X50282833Y-148715485D01*
X50086815Y-148787511D01*
X49910165Y-148854778D01*
X49763830Y-148912931D01*
X49658754Y-148957611D01*
X49605886Y-148984462D01*
X49604468Y-148985526D01*
X49554297Y-149012156D01*
X49452893Y-149056472D01*
X49312910Y-149113652D01*
X49146998Y-149178875D01*
X48967811Y-149247319D01*
X48788001Y-149314162D01*
X48620221Y-149374583D01*
X48477122Y-149423761D01*
X48371356Y-149456874D01*
X48357686Y-149460643D01*
X48270250Y-149490665D01*
X48216804Y-149521625D01*
X48210584Y-149530482D01*
X48176445Y-149551941D01*
X48089116Y-149588827D01*
X47960167Y-149636721D01*
X47801172Y-149691209D01*
X47720446Y-149717493D01*
X47240282Y-149871294D01*
X47295988Y-149984761D01*
X47354156Y-150089366D01*
X47417042Y-150183993D01*
X47418246Y-150185580D01*
X47478131Y-150271408D01*
X47550036Y-150384675D01*
X47623200Y-150507079D01*
X47686869Y-150620322D01*
X47730282Y-150706102D01*
X47742015Y-150736333D01*
X47736344Y-150800915D01*
X47703249Y-150889068D01*
X47693668Y-150907508D01*
X47647768Y-150977215D01*
X47590631Y-151022120D01*
X47499735Y-151056984D01*
X47439780Y-151073875D01*
X47304462Y-151099559D01*
X47139350Y-151116207D01*
X46994185Y-151120183D01*
X46851906Y-151118065D01*
X46721220Y-151117031D01*
X46629769Y-151117298D01*
X46627904Y-151117329D01*
X46524555Y-151111862D01*
X46398390Y-151095878D01*
X46354854Y-151088273D01*
X46254955Y-151071510D01*
X46183722Y-151063853D01*
X46166249Y-151064503D01*
X46120544Y-151052968D01*
X46049498Y-151015463D01*
X45977734Y-150967591D01*
X45929876Y-150924957D01*
X45922608Y-150910105D01*
X45902973Y-150904811D01*
X45850859Y-150938608D01*
X45779087Y-151000227D01*
X45700477Y-151078402D01*
X45627846Y-151161864D01*
X45610441Y-151184493D01*
X45488575Y-151344873D01*
X45392626Y-151461774D01*
X45311265Y-151548290D01*
X45242566Y-151609834D01*
X45164149Y-151682711D01*
X45104823Y-151751545D01*
X45100572Y-151757836D01*
X45028556Y-151847221D01*
X44912502Y-151964476D01*
X44785730Y-152079140D01*
X44716026Y-152150352D01*
X44669918Y-152216381D01*
X44669461Y-152217359D01*
X44627381Y-152274170D01*
X44600325Y-152290501D01*
X44554729Y-152321204D01*
X44488168Y-152385492D01*
X44461227Y-152415426D01*
X44396633Y-152485894D01*
X44349608Y-152529557D01*
X44339520Y-152535583D01*
X44318268Y-152509715D01*
X44289789Y-152437007D01*
X44273756Y-152382961D01*
X44235711Y-152272652D01*
X44189888Y-152180886D01*
X44172076Y-152156119D01*
X44121039Y-152085504D01*
X44059357Y-151984664D01*
X44031648Y-151934489D01*
X43968083Y-151829659D01*
X43916018Y-151760942D01*
X44231337Y-151676452D01*
X44247976Y-151726708D01*
X44253983Y-151737629D01*
X44301026Y-151799731D01*
X44339799Y-151824436D01*
X44370728Y-151796832D01*
X44419546Y-151722074D01*
X44478604Y-151615739D01*
X44540248Y-151493406D01*
X44596825Y-151370653D01*
X44640683Y-151263058D01*
X44664171Y-151186198D01*
X44665387Y-151161618D01*
X44676840Y-151114521D01*
X44714167Y-151039457D01*
X44762127Y-150962286D01*
X44805481Y-150908870D01*
X44819957Y-150899320D01*
X44839454Y-150923028D01*
X44847714Y-150984568D01*
X44828786Y-151091748D01*
X44769235Y-151250784D01*
X44668800Y-151462287D01*
X44545200Y-151694457D01*
X44476502Y-151823412D01*
X44438472Y-151911945D01*
X44426432Y-151977414D01*
X44435709Y-152037178D01*
X44445210Y-152065782D01*
X44481046Y-152138657D01*
X44516123Y-152171405D01*
X44521806Y-152171296D01*
X44562884Y-152143924D01*
X44634238Y-152082299D01*
X44704940Y-152014891D01*
X44784957Y-151931782D01*
X44842809Y-151864728D01*
X44863562Y-151833141D01*
X44893873Y-151791835D01*
X44958434Y-151727556D01*
X44994099Y-151696002D01*
X45056000Y-151642448D01*
X45107627Y-151594467D01*
X45160563Y-151539694D01*
X45226389Y-151465761D01*
X45316689Y-151360303D01*
X45393500Y-151269576D01*
X45483998Y-151165554D01*
X45564558Y-151078281D01*
X45620055Y-151024036D01*
X45626394Y-151018900D01*
X45659645Y-150988020D01*
X45643679Y-150970914D01*
X45574850Y-150957388D01*
X45467045Y-150949282D01*
X45388520Y-150960033D01*
X45356162Y-150986800D01*
X45356785Y-150994085D01*
X45347437Y-151045780D01*
X45311379Y-151138508D01*
X45257150Y-151255465D01*
X45193288Y-151379845D01*
X45128330Y-151494841D01*
X45070817Y-151583650D01*
X45036911Y-151623671D01*
X44978313Y-151671297D01*
X44947525Y-151688136D01*
X44946423Y-151687059D01*
X44958550Y-151652370D01*
X44993881Y-151573554D01*
X45045063Y-151466931D01*
X45050843Y-151455219D01*
X45154721Y-151240563D01*
X45227715Y-151079054D01*
X45269136Y-150972376D01*
X45270515Y-150964816D01*
X46161790Y-150725999D01*
X46212647Y-150758861D01*
X46286873Y-150759183D01*
X46345910Y-150769483D01*
X46363501Y-150794918D01*
X46396623Y-150826472D01*
X46481887Y-150852813D01*
X46603727Y-150870615D01*
X46745278Y-150876559D01*
X46834530Y-150877276D01*
X46961728Y-150879834D01*
X47080115Y-150883106D01*
X47216814Y-150883152D01*
X47342207Y-150876017D01*
X47418415Y-150865257D01*
X47488515Y-150844013D01*
X47502121Y-150819100D01*
X47481978Y-150790842D01*
X47437994Y-150727965D01*
X47388236Y-150637540D01*
X47380739Y-150622009D01*
X47299306Y-150477216D01*
X47222066Y-150395900D01*
X47150825Y-150379954D01*
X47150088Y-150380147D01*
X47094648Y-150373814D01*
X47078113Y-150352228D01*
X47048874Y-150298459D01*
X46993145Y-150225650D01*
X46985743Y-150217160D01*
X46933811Y-150151960D01*
X46922650Y-150105351D01*
X46945305Y-150047865D01*
X46945640Y-150047212D01*
X46961719Y-150011504D01*
X46957682Y-149992717D01*
X46922954Y-149991048D01*
X46846963Y-150006692D01*
X46719134Y-150039843D01*
X46672752Y-150052251D01*
X46543868Y-150085807D01*
X46454094Y-150112556D01*
X46391914Y-150144032D01*
X46345809Y-150191765D01*
X46304262Y-150267290D01*
X46255755Y-150382137D01*
X46196399Y-150529216D01*
X46157142Y-150651405D01*
X46161790Y-150725999D01*
X45270515Y-150964816D01*
X45278289Y-150922215D01*
X45271292Y-150918631D01*
X45210394Y-150923288D01*
X45189932Y-150921980D01*
X45150749Y-150948994D01*
X45130250Y-151036352D01*
X45130123Y-151037810D01*
X45108340Y-151128279D01*
X45059683Y-151258581D01*
X44992598Y-151411374D01*
X44915529Y-151569316D01*
X44836924Y-151715065D01*
X44765229Y-151831280D01*
X44710710Y-151898990D01*
X44642687Y-151952804D01*
X44613988Y-151954111D01*
X44624735Y-151902340D01*
X44675049Y-151796919D01*
X44765049Y-151637276D01*
X44766228Y-151635270D01*
X44842473Y-151498543D01*
X44903593Y-151375463D01*
X44941926Y-151282263D01*
X44951099Y-151243469D01*
X44968895Y-151157844D01*
X45008766Y-151058716D01*
X45013610Y-151049399D01*
X45048217Y-150976371D01*
X45059211Y-150935321D01*
X45057243Y-150932523D01*
X44974474Y-150913265D01*
X44858687Y-150892353D01*
X44730507Y-150872739D01*
X44610558Y-150857373D01*
X44519467Y-150849210D01*
X44480606Y-150850003D01*
X44463721Y-150884788D01*
X44452317Y-150963802D01*
X44450414Y-151000173D01*
X44433592Y-151100070D01*
X44392938Y-151233569D01*
X44336626Y-151374577D01*
X44325709Y-151398212D01*
X44266729Y-151528647D01*
X44236429Y-151615912D01*
X44231337Y-151676452D01*
X43916018Y-151760942D01*
X43900869Y-151740949D01*
X43874356Y-151713675D01*
X43834389Y-151664461D01*
X43791900Y-151581407D01*
X43742762Y-151454733D01*
X43721836Y-151391838D01*
X44024901Y-151310632D01*
X44051005Y-151386254D01*
X44076453Y-151432377D01*
X44146226Y-151551136D01*
X44211233Y-151422337D01*
X44251172Y-151305508D01*
X44265984Y-151183296D01*
X44265053Y-151163506D01*
X44272612Y-151046008D01*
X44306076Y-150935490D01*
X44309841Y-150928054D01*
X44365814Y-150822636D01*
X44271470Y-150806855D01*
X44173137Y-150797468D01*
X44128889Y-150814442D01*
X44127425Y-150854981D01*
X44126329Y-150917688D01*
X44108168Y-151018466D01*
X44078877Y-151131673D01*
X44044387Y-151231667D01*
X44035702Y-151251478D01*
X44024901Y-151310632D01*
X43721836Y-151391838D01*
X43682849Y-151274659D01*
X43664345Y-151215790D01*
X43614501Y-151055779D01*
X43885359Y-150983203D01*
X43914567Y-151075982D01*
X43934962Y-151124106D01*
X43942155Y-151117234D01*
X43942149Y-151116998D01*
X43956672Y-151041024D01*
X43994564Y-150946987D01*
X44000742Y-150935122D01*
X44035630Y-150862093D01*
X44046837Y-150820964D01*
X44044868Y-150818114D01*
X43957659Y-150795130D01*
X43880810Y-150778935D01*
X43843582Y-150775265D01*
X43843408Y-150807222D01*
X43859586Y-150886117D01*
X43885359Y-150983203D01*
X43614501Y-151055779D01*
X43530222Y-150785224D01*
X43596034Y-150676809D01*
X43643330Y-150610470D01*
X43698054Y-150573204D01*
X43785200Y-150551075D01*
X43835673Y-150543204D01*
X43943975Y-150532495D01*
X44028147Y-150533019D01*
X44055137Y-150538631D01*
X44115048Y-150550929D01*
X44212721Y-150557823D01*
X44258326Y-150558404D01*
X44395528Y-150563933D01*
X44535936Y-150578679D01*
X44562921Y-150582935D01*
X44803146Y-150623836D01*
X44983700Y-150653210D01*
X45111473Y-150672055D01*
X45193361Y-150681369D01*
X45236255Y-150682151D01*
X45241446Y-150681199D01*
X45297211Y-150679685D01*
X45384627Y-150688939D01*
X45392779Y-150690217D01*
X45509134Y-150704497D01*
X45633901Y-150713736D01*
X45640630Y-150714016D01*
X45731799Y-150722945D01*
X45791575Y-150738583D01*
X45798168Y-150742883D01*
X45843857Y-150744667D01*
X45910978Y-150699450D01*
X45988177Y-150619502D01*
X46064097Y-150517093D01*
X46127386Y-150404492D01*
X46141812Y-150371549D01*
X46224410Y-150168348D01*
X45820315Y-150287408D01*
X45647849Y-150337461D01*
X45532112Y-150366914D01*
X45464957Y-150374624D01*
X45438237Y-150359451D01*
X45443800Y-150320251D01*
X45473499Y-150255884D01*
X45481592Y-150239942D01*
X45498766Y-150209660D01*
X45521655Y-150184134D01*
X45558836Y-150160192D01*
X45618887Y-150134661D01*
X45710388Y-150104367D01*
X45841915Y-150066139D01*
X46022047Y-150016803D01*
X46250419Y-149955576D01*
X46509094Y-149884608D01*
X46777584Y-149807642D01*
X47047307Y-149727444D01*
X47309681Y-149646779D01*
X47556123Y-149568414D01*
X47778052Y-149495113D01*
X47966884Y-149429643D01*
X48114038Y-149374772D01*
X48210932Y-149333261D01*
X48245363Y-149312648D01*
X48308116Y-149275347D01*
X48404224Y-149238563D01*
X48433602Y-149230062D01*
X48531761Y-149200188D01*
X48669156Y-149153377D01*
X48832935Y-149094549D01*
X49010247Y-149028624D01*
X49188235Y-148960523D01*
X49354048Y-148895162D01*
X49494831Y-148837463D01*
X49597733Y-148792345D01*
X49649899Y-148764728D01*
X49650387Y-148764347D01*
X49699110Y-148739160D01*
X49801011Y-148695849D01*
X49945330Y-148638664D01*
X50121313Y-148571851D01*
X50318201Y-148499656D01*
X50347685Y-148489051D01*
X50544114Y-148417388D01*
X50718753Y-148351421D01*
X50861502Y-148295147D01*
X50962265Y-148252566D01*
X51010946Y-148227675D01*
X51013343Y-148225456D01*
X51054150Y-148199416D01*
X51143774Y-148155959D01*
X51267744Y-148101792D01*
X51372257Y-148059089D01*
X51520836Y-147996628D01*
X51653837Y-147934556D01*
X51753189Y-147881623D01*
X51791225Y-147856213D01*
X51877594Y-147792115D01*
X51982735Y-147722485D01*
X52006153Y-147708113D01*
X52091114Y-147648632D01*
X52149605Y-147592485D01*
X52159433Y-147577177D01*
X52202213Y-147524555D01*
X52224686Y-147512774D01*
X52271695Y-147479950D01*
X52330128Y-147415263D01*
X52333365Y-147410987D01*
X52366648Y-147359662D01*
X52380243Y-147308219D01*
X52374052Y-147237706D01*
X52347976Y-147129169D01*
X52331607Y-147069610D01*
X52288697Y-146934460D01*
X52241364Y-146814225D01*
X52199354Y-146733464D01*
X52196702Y-146729701D01*
X52139789Y-146664065D01*
X52060100Y-146586590D01*
X51974049Y-146511419D01*
X51898051Y-146452690D01*
X51848522Y-146424547D01*
X51841863Y-146424015D01*
X51808734Y-146450112D01*
X51750734Y-146509533D01*
X51730547Y-146531981D01*
X51649544Y-146617823D01*
X51548921Y-146716770D01*
X51503133Y-146759457D01*
X51413604Y-146841910D01*
X51336219Y-146914639D01*
X51306886Y-146943005D01*
X51238839Y-146995656D01*
X51193779Y-147017138D01*
X51135348Y-147058376D01*
X51113091Y-147091868D01*
X51076208Y-147145867D01*
X51055444Y-147159907D01*
X51015724Y-147184190D01*
X50940596Y-147240068D01*
X50847058Y-147314848D01*
X50730299Y-147406675D01*
X50610619Y-147493984D01*
X50533402Y-147545452D01*
X50446883Y-147602189D01*
X50385156Y-147648503D01*
X50371656Y-147661489D01*
X50330455Y-147692955D01*
X50246976Y-147745252D01*
X50138757Y-147807431D01*
X50131364Y-147811510D01*
X50022183Y-147874121D01*
X49936695Y-147927814D01*
X49892420Y-147961547D01*
X49891402Y-147962766D01*
X49850626Y-147992101D01*
X49764438Y-148041318D01*
X49648740Y-148101523D01*
X49601725Y-148124761D01*
X49474078Y-148189166D01*
X49365076Y-148248152D01*
X49293079Y-148291656D01*
X49280739Y-148300757D01*
X49224065Y-148338072D01*
X49125545Y-148394139D01*
X49004292Y-148458186D01*
X48976130Y-148472446D01*
X48820872Y-148550447D01*
X48653346Y-148634678D01*
X48512651Y-148705480D01*
X48370211Y-148774817D01*
X48229285Y-148837538D01*
X48080770Y-148896624D01*
X47915563Y-148955061D01*
X47724558Y-149015830D01*
X47498652Y-149081912D01*
X47228742Y-149156291D01*
X46905724Y-149241950D01*
X46756009Y-149280974D01*
X46461384Y-149357243D01*
X46224680Y-149417696D01*
X46038347Y-149463867D01*
X45894832Y-149497285D01*
X45786582Y-149519482D01*
X45706047Y-149531991D01*
X45645673Y-149536341D01*
X45597909Y-149534064D01*
X45555201Y-149526693D01*
X45549988Y-149525523D01*
X45409329Y-149493408D01*
X45477075Y-149381665D01*
X45562665Y-149291049D01*
X45670250Y-149264457D01*
X45773433Y-149290273D01*
X45821342Y-149288834D01*
X45923684Y-149270968D01*
X46071451Y-149239109D01*
X46255634Y-149195691D01*
X46467222Y-149143146D01*
X46697208Y-149083909D01*
X46936582Y-149020413D01*
X47176335Y-148955092D01*
X47407458Y-148890377D01*
X47620941Y-148828705D01*
X47807775Y-148772505D01*
X47958952Y-148724215D01*
X48065461Y-148686266D01*
X48118294Y-148661091D01*
X48122435Y-148655797D01*
X48155604Y-148617967D01*
X48240535Y-148581025D01*
X48269583Y-148572541D01*
X48354861Y-148543402D01*
X48402409Y-148514781D01*
X48406288Y-148504806D01*
X48431604Y-148479831D01*
X48505471Y-148442004D01*
X48612031Y-148399421D01*
X48614479Y-148398544D01*
X48864613Y-148307334D01*
X49056485Y-148233111D01*
X49196596Y-148173015D01*
X49291448Y-148124187D01*
X49347536Y-148083767D01*
X49359384Y-148070861D01*
X49400175Y-148041500D01*
X49486221Y-147992100D01*
X49601574Y-147931635D01*
X49646939Y-147909018D01*
X49769173Y-147846414D01*
X49868011Y-147791179D01*
X49927378Y-147752468D01*
X49935921Y-147744434D01*
X49978934Y-147711679D01*
X50064199Y-147661496D01*
X50164766Y-147609043D01*
X50274640Y-147549788D01*
X50361939Y-147493626D01*
X50404353Y-147456386D01*
X50460067Y-147406444D01*
X50545434Y-147355022D01*
X50556391Y-147349719D01*
X50652824Y-147292360D01*
X50758543Y-147212415D01*
X50792147Y-147182764D01*
X50885836Y-147102817D01*
X50977272Y-147035951D01*
X51005791Y-147018543D01*
X51084816Y-146963773D01*
X51135115Y-146912360D01*
X51188158Y-146857415D01*
X51269139Y-146795009D01*
X51282561Y-146786138D01*
X51361765Y-146724877D01*
X51414472Y-146665748D01*
X51418930Y-146657511D01*
X51460986Y-146602840D01*
X51485603Y-146588848D01*
X51556616Y-146548555D01*
X51637937Y-146475056D01*
X51704827Y-146393108D01*
X51729616Y-146344644D01*
X51771080Y-146279838D01*
X51809331Y-146256676D01*
X51853943Y-146228264D01*
X51858123Y-146208541D01*
X51879361Y-146176168D01*
X51928412Y-146154646D01*
X51990396Y-146126703D01*
X52010577Y-146101445D01*
X52031703Y-146056575D01*
X52082389Y-145977713D01*
X52150050Y-145881928D01*
X52222106Y-145786291D01*
X52285970Y-145707872D01*
X52329064Y-145663743D01*
X52336180Y-145659710D01*
X52379683Y-145622599D01*
X52447625Y-145532815D01*
X52535252Y-145398806D01*
X52637814Y-145229021D01*
X52750558Y-145031906D01*
X52868734Y-144815910D01*
X52987588Y-144589482D01*
X53102370Y-144361068D01*
X53208326Y-144139117D01*
X53276626Y-143987734D01*
X53375669Y-143758450D01*
X53450591Y-143574438D01*
X53506228Y-143419742D01*
X53547420Y-143278405D01*
X53579006Y-143134469D01*
X53605823Y-142971976D01*
X53623788Y-142842870D01*
X53635916Y-142742542D01*
X53640802Y-142658033D01*
X53636447Y-142574554D01*
X53620849Y-142477305D01*
X53592008Y-142351495D01*
X53547921Y-142182326D01*
X53520811Y-142081582D01*
X53415408Y-141725981D01*
X53305831Y-141430365D01*
X53187464Y-141186995D01*
X53055687Y-140988124D01*
X52905881Y-140826009D01*
X52733427Y-140692905D01*
X52668607Y-140652762D01*
X52474392Y-140538780D01*
X52180122Y-140617629D01*
X52030738Y-140663617D01*
X51868260Y-140723275D01*
X51707742Y-140789925D01*
X51564242Y-140856891D01*
X51452813Y-140917498D01*
X51388511Y-140965069D01*
X51383791Y-140970765D01*
X51340841Y-141008350D01*
X51262189Y-141062374D01*
X51222130Y-141087118D01*
X51131218Y-141147093D01*
X51062592Y-141202441D01*
X51047115Y-141219058D01*
X50995319Y-141267151D01*
X50910751Y-141328557D01*
X50872624Y-141352953D01*
X50777638Y-141415740D01*
X50700347Y-141474481D01*
X50681788Y-141491273D01*
X50622207Y-141542580D01*
X50532172Y-141611704D01*
X50478910Y-141650080D01*
X50387143Y-141719532D01*
X50316009Y-141782256D01*
X50293273Y-141807802D01*
X50236415Y-141861549D01*
X50157042Y-141911882D01*
X50079693Y-141964296D01*
X50032514Y-142019274D01*
X49988143Y-142074422D01*
X49961878Y-142088540D01*
X49916815Y-142116443D01*
X49839410Y-142178883D01*
X49745617Y-142262910D01*
X49736261Y-142271708D01*
X49641358Y-142357285D01*
X49560872Y-142422606D01*
X49510961Y-142454640D01*
X49508423Y-142455472D01*
X49455070Y-142494538D01*
X49436306Y-142523719D01*
X49389228Y-142576540D01*
X49310715Y-142627431D01*
X49307286Y-142629099D01*
X49222891Y-142686311D01*
X49165216Y-142754168D01*
X49115835Y-142813209D01*
X49029094Y-142886247D01*
X48955239Y-142937154D01*
X48855383Y-143005262D01*
X48776614Y-143068728D01*
X48744620Y-143102677D01*
X48686385Y-143159181D01*
X48607382Y-143209104D01*
X48530371Y-143259850D01*
X48484129Y-143312669D01*
X48438771Y-143366973D01*
X48413262Y-143380024D01*
X48349945Y-143412320D01*
X48318732Y-143436477D01*
X48255995Y-143491242D01*
X48158957Y-143573880D01*
X48042399Y-143672035D01*
X47921103Y-143773353D01*
X47809847Y-143865477D01*
X47723416Y-143936052D01*
X47681762Y-143968929D01*
X47516691Y-144098214D01*
X47313496Y-144266199D01*
X47192887Y-144368883D01*
X47095006Y-144449341D01*
X47012600Y-144510585D01*
X46962684Y-144540015D01*
X46961137Y-144540483D01*
X46903445Y-144576869D01*
X46874349Y-144609141D01*
X46824618Y-144658544D01*
X46739301Y-144726138D01*
X46670478Y-144774538D01*
X46570416Y-144845745D01*
X46487905Y-144912174D01*
X46454122Y-144944870D01*
X46386352Y-145000956D01*
X46340072Y-145022435D01*
X46274821Y-145059016D01*
X46207765Y-145121084D01*
X46113424Y-145206559D01*
X45975892Y-145301941D01*
X45815792Y-145394429D01*
X45653749Y-145471224D01*
X45625040Y-145482753D01*
X45457676Y-145547758D01*
X45521973Y-145431747D01*
X45570465Y-145363462D01*
X45642733Y-145301128D01*
X45753676Y-145233516D01*
X45854963Y-145180726D01*
X45980907Y-145113332D01*
X46085466Y-145049831D01*
X46151888Y-145000684D01*
X46163701Y-144987868D01*
X46213468Y-144938936D01*
X46300285Y-144872825D01*
X46376414Y-144822269D01*
X46469809Y-144760289D01*
X46535990Y-144709398D01*
X46557903Y-144685144D01*
X46590132Y-144652373D01*
X46662345Y-144601748D01*
X46711651Y-144571735D01*
X46805207Y-144511439D01*
X46876250Y-144454923D01*
X46894960Y-144434660D01*
X46943850Y-144387550D01*
X47028978Y-144322557D01*
X47097858Y-144275936D01*
X47195758Y-144207432D01*
X47272717Y-144143547D01*
X47302001Y-144111547D01*
X47353574Y-144057805D01*
X47383663Y-144041578D01*
X47433827Y-144012682D01*
X47506607Y-143954736D01*
X47527819Y-143935624D01*
X47651823Y-143826125D01*
X47808600Y-143695528D01*
X47975777Y-143562057D01*
X48130978Y-143443937D01*
X48136120Y-143440155D01*
X48199399Y-143385977D01*
X48221006Y-143364401D01*
X48279793Y-143308647D01*
X48367014Y-143233366D01*
X48466822Y-143151316D01*
X48563366Y-143075255D01*
X48640799Y-143017940D01*
X48683271Y-142992128D01*
X48683601Y-142992034D01*
X48729004Y-142964797D01*
X48803217Y-142906384D01*
X48852854Y-142863056D01*
X48947487Y-142779522D01*
X49068059Y-142676018D01*
X49184840Y-142577975D01*
X49287102Y-142492166D01*
X49372009Y-142418870D01*
X49423181Y-142372260D01*
X49426766Y-142368625D01*
X49486250Y-142312736D01*
X49532730Y-142273398D01*
X49614813Y-142207383D01*
X49662533Y-142169003D01*
X49731500Y-142109637D01*
X49768593Y-142074135D01*
X49821503Y-142024357D01*
X49904751Y-141951322D01*
X50003961Y-141867005D01*
X50104760Y-141783381D01*
X50192775Y-141712423D01*
X50253630Y-141666104D01*
X50271948Y-141654843D01*
X50310766Y-141624512D01*
X50337813Y-141591777D01*
X50387543Y-141542375D01*
X50472861Y-141474779D01*
X50541684Y-141426379D01*
X50641747Y-141355174D01*
X50724257Y-141288744D01*
X50758041Y-141256048D01*
X50815908Y-141203271D01*
X50851636Y-141183964D01*
X50898759Y-141157722D01*
X50977662Y-141101438D01*
X51044344Y-141049029D01*
X51154170Y-140963384D01*
X51265494Y-140882746D01*
X51316084Y-140848932D01*
X51398187Y-140792376D01*
X51455289Y-140745095D01*
X51463671Y-140735721D01*
X51524511Y-140686246D01*
X51636057Y-140624159D01*
X51783963Y-140555709D01*
X51953877Y-140487141D01*
X52131452Y-140424703D01*
X52279024Y-140380760D01*
X52432682Y-140340534D01*
G37*
X52432682Y-140340534D02*
X52535461Y-140317774D01*
X52601667Y-140311558D01*
X52645609Y-140320962D01*
X52681596Y-140345062D01*
X52691958Y-140354106D01*
X52770172Y-140402331D01*
X52835280Y-140418285D01*
X52908890Y-140445015D01*
X52942183Y-140480956D01*
X52981623Y-140528575D01*
X53004722Y-140536923D01*
X53037611Y-140557495D01*
X53101483Y-140618470D01*
X53184220Y-140708004D01*
X53209815Y-140737389D01*
X53328581Y-140893388D01*
X53432397Y-141071230D01*
X53525553Y-141281190D01*
X53612344Y-141533550D01*
X53697064Y-141838585D01*
X53735878Y-141996704D01*
X53781901Y-142193968D01*
X53812831Y-142339794D01*
X53830269Y-142448390D01*
X53835815Y-142533963D01*
X53831066Y-142610718D01*
X53817622Y-142692863D01*
X53815482Y-142703853D01*
X53791164Y-142822432D01*
X53769440Y-142919787D01*
X53757881Y-142964716D01*
X53740901Y-143032517D01*
X53719340Y-143133963D01*
X53711755Y-143172946D01*
X53685606Y-143278238D01*
X53654287Y-143361314D01*
X53643774Y-143379525D01*
X53614896Y-143440217D01*
X53613055Y-143467634D01*
X53601655Y-143507816D01*
X53564464Y-143596896D01*
X53506594Y-143723500D01*
X53433154Y-143876254D01*
X53393417Y-143956440D01*
X53314259Y-144117740D01*
X53248172Y-144258362D01*
X53200268Y-144366945D01*
X53175659Y-144432127D01*
X53173641Y-144444734D01*
X53159822Y-144483361D01*
X53116238Y-144569032D01*
X53049051Y-144691380D01*
X52964433Y-144840035D01*
X52868545Y-145004624D01*
X52767558Y-145174780D01*
X52667636Y-145340132D01*
X52574947Y-145490308D01*
X52495657Y-145614941D01*
X52435932Y-145703660D01*
X52401938Y-145746094D01*
X52398543Y-145748184D01*
X52362471Y-145779813D01*
X52304316Y-145852075D01*
X52235435Y-145948106D01*
X52167190Y-146051040D01*
X52110938Y-146144013D01*
X52078039Y-146210163D01*
X52074174Y-146229751D01*
X52104272Y-146267406D01*
X52170642Y-146326383D01*
X52207529Y-146355302D01*
X52334856Y-146470381D01*
X52428055Y-146604805D01*
X52499268Y-146778275D01*
X52527321Y-146874114D01*
X52555971Y-146988168D01*
X52566123Y-147070745D01*
X52555011Y-147146494D01*
X52519869Y-147240059D01*
X52475206Y-147338644D01*
X52418507Y-147453919D01*
X52368569Y-147541960D01*
X52334454Y-147587119D01*
X52329795Y-147589795D01*
X52289393Y-147620357D01*
X52229763Y-147685580D01*
X52210310Y-147709951D01*
X52127812Y-147797576D01*
X52021182Y-147887266D01*
X51978917Y-147917166D01*
X51889844Y-147979275D01*
X51824350Y-148030982D01*
X51805920Y-148049365D01*
X51765543Y-148075501D01*
X51675298Y-148120552D01*
X51548237Y-148178361D01*
X51397413Y-148242770D01*
X51385712Y-148247611D01*
X51231633Y-148312927D01*
X51098332Y-148372638D01*
X50999599Y-148420345D01*
X50949223Y-148449652D01*
X50948143Y-148450590D01*
X50903441Y-148474395D01*
X50805507Y-148516450D01*
X50665000Y-148572511D01*
X50492579Y-148638334D01*
X50298901Y-148709676D01*
X50282833Y-148715485D01*
X50086815Y-148787511D01*
X49910165Y-148854778D01*
X49763830Y-148912931D01*
X49658754Y-148957611D01*
X49605886Y-148984462D01*
X49604468Y-148985526D01*
X49554297Y-149012156D01*
X49452893Y-149056472D01*
X49312910Y-149113652D01*
X49146998Y-149178875D01*
X48967811Y-149247319D01*
X48788001Y-149314162D01*
X48620221Y-149374583D01*
X48477122Y-149423761D01*
X48371356Y-149456874D01*
X48357686Y-149460643D01*
X48270250Y-149490665D01*
X48216804Y-149521625D01*
X48210584Y-149530482D01*
X48176445Y-149551941D01*
X48089116Y-149588827D01*
X47960167Y-149636721D01*
X47801172Y-149691209D01*
X47720446Y-149717493D01*
X47240282Y-149871294D01*
X47295988Y-149984761D01*
X47354156Y-150089366D01*
X47417042Y-150183993D01*
X47418246Y-150185580D01*
X47478131Y-150271408D01*
X47550036Y-150384675D01*
X47623200Y-150507079D01*
X47686869Y-150620322D01*
X47730282Y-150706102D01*
X47742015Y-150736333D01*
X47736344Y-150800915D01*
X47703249Y-150889068D01*
X47693668Y-150907508D01*
X47647768Y-150977215D01*
X47590631Y-151022120D01*
X47499735Y-151056984D01*
X47439780Y-151073875D01*
X47304462Y-151099559D01*
X47139350Y-151116207D01*
X46994185Y-151120183D01*
X46851906Y-151118065D01*
X46721220Y-151117031D01*
X46629769Y-151117298D01*
X46627904Y-151117329D01*
X46524555Y-151111862D01*
X46398390Y-151095878D01*
X46354854Y-151088273D01*
X46254955Y-151071510D01*
X46183722Y-151063853D01*
X46166249Y-151064503D01*
X46120544Y-151052968D01*
X46049498Y-151015463D01*
X45977734Y-150967591D01*
X45929876Y-150924957D01*
X45922608Y-150910105D01*
X45902973Y-150904811D01*
X45850859Y-150938608D01*
X45779087Y-151000227D01*
X45700477Y-151078402D01*
X45627846Y-151161864D01*
X45610441Y-151184493D01*
X45488575Y-151344873D01*
X45392626Y-151461774D01*
X45311265Y-151548290D01*
X45242566Y-151609834D01*
X45164149Y-151682711D01*
X45104823Y-151751545D01*
X45100572Y-151757836D01*
X45028556Y-151847221D01*
X44912502Y-151964476D01*
X44785730Y-152079140D01*
X44716026Y-152150352D01*
X44669918Y-152216381D01*
X44669461Y-152217359D01*
X44627381Y-152274170D01*
X44600325Y-152290501D01*
X44554729Y-152321204D01*
X44488168Y-152385492D01*
X44461227Y-152415426D01*
X44396633Y-152485894D01*
X44349608Y-152529557D01*
X44339520Y-152535583D01*
X44318268Y-152509715D01*
X44289789Y-152437007D01*
X44273756Y-152382961D01*
X44235711Y-152272652D01*
X44189888Y-152180886D01*
X44172076Y-152156119D01*
X44121039Y-152085504D01*
X44059357Y-151984664D01*
X44031648Y-151934489D01*
X43968083Y-151829659D01*
X43916018Y-151760942D01*
X44231337Y-151676452D01*
X44247976Y-151726708D01*
X44253983Y-151737629D01*
X44301026Y-151799731D01*
X44339799Y-151824436D01*
X44370728Y-151796832D01*
X44419546Y-151722074D01*
X44478604Y-151615739D01*
X44540248Y-151493406D01*
X44596825Y-151370653D01*
X44640683Y-151263058D01*
X44664171Y-151186198D01*
X44665387Y-151161618D01*
X44676840Y-151114521D01*
X44714167Y-151039457D01*
X44762127Y-150962286D01*
X44805481Y-150908870D01*
X44819957Y-150899320D01*
X44839454Y-150923028D01*
X44847714Y-150984568D01*
X44828786Y-151091748D01*
X44769235Y-151250784D01*
X44668800Y-151462287D01*
X44545200Y-151694457D01*
X44476502Y-151823412D01*
X44438472Y-151911945D01*
X44426432Y-151977414D01*
X44435709Y-152037178D01*
X44445210Y-152065782D01*
X44481046Y-152138657D01*
X44516123Y-152171405D01*
X44521806Y-152171296D01*
X44562884Y-152143924D01*
X44634238Y-152082299D01*
X44704940Y-152014891D01*
X44784957Y-151931782D01*
X44842809Y-151864728D01*
X44863562Y-151833141D01*
X44893873Y-151791835D01*
X44958434Y-151727556D01*
X44994099Y-151696002D01*
X45056000Y-151642448D01*
X45107627Y-151594467D01*
X45160563Y-151539694D01*
X45226389Y-151465761D01*
X45316689Y-151360303D01*
X45393500Y-151269576D01*
X45483998Y-151165554D01*
X45564558Y-151078281D01*
X45620055Y-151024036D01*
X45626394Y-151018900D01*
X45659645Y-150988020D01*
X45643679Y-150970914D01*
X45574850Y-150957388D01*
X45467045Y-150949282D01*
X45388520Y-150960033D01*
X45356162Y-150986800D01*
X45356785Y-150994085D01*
X45347437Y-151045780D01*
X45311379Y-151138508D01*
X45257150Y-151255465D01*
X45193288Y-151379845D01*
X45128330Y-151494841D01*
X45070817Y-151583650D01*
X45036911Y-151623671D01*
X44978313Y-151671297D01*
X44947525Y-151688136D01*
X44946423Y-151687059D01*
X44958550Y-151652370D01*
X44993881Y-151573554D01*
X45045063Y-151466931D01*
X45050843Y-151455219D01*
X45154721Y-151240563D01*
X45227715Y-151079054D01*
X45269136Y-150972376D01*
X45270515Y-150964816D01*
X46161790Y-150725999D01*
X46212647Y-150758861D01*
X46286873Y-150759183D01*
X46345910Y-150769483D01*
X46363501Y-150794918D01*
X46396623Y-150826472D01*
X46481887Y-150852813D01*
X46603727Y-150870615D01*
X46745278Y-150876559D01*
X46834530Y-150877276D01*
X46961728Y-150879834D01*
X47080115Y-150883106D01*
X47216814Y-150883152D01*
X47342207Y-150876017D01*
X47418415Y-150865257D01*
X47488515Y-150844013D01*
X47502121Y-150819100D01*
X47481978Y-150790842D01*
X47437994Y-150727965D01*
X47388236Y-150637540D01*
X47380739Y-150622009D01*
X47299306Y-150477216D01*
X47222066Y-150395900D01*
X47150825Y-150379954D01*
X47150088Y-150380147D01*
X47094648Y-150373814D01*
X47078113Y-150352228D01*
X47048874Y-150298459D01*
X46993145Y-150225650D01*
X46985743Y-150217160D01*
X46933811Y-150151960D01*
X46922650Y-150105351D01*
X46945305Y-150047865D01*
X46945640Y-150047212D01*
X46961719Y-150011504D01*
X46957682Y-149992717D01*
X46922954Y-149991048D01*
X46846963Y-150006692D01*
X46719134Y-150039843D01*
X46672752Y-150052251D01*
X46543868Y-150085807D01*
X46454094Y-150112556D01*
X46391914Y-150144032D01*
X46345809Y-150191765D01*
X46304262Y-150267290D01*
X46255755Y-150382137D01*
X46196399Y-150529216D01*
X46157142Y-150651405D01*
X46161790Y-150725999D01*
X45270515Y-150964816D01*
X45278289Y-150922215D01*
X45271292Y-150918631D01*
X45210394Y-150923288D01*
X45189932Y-150921980D01*
X45150749Y-150948994D01*
X45130250Y-151036352D01*
X45130123Y-151037810D01*
X45108340Y-151128279D01*
X45059683Y-151258581D01*
X44992598Y-151411374D01*
X44915529Y-151569316D01*
X44836924Y-151715065D01*
X44765229Y-151831280D01*
X44710710Y-151898990D01*
X44642687Y-151952804D01*
X44613988Y-151954111D01*
X44624735Y-151902340D01*
X44675049Y-151796919D01*
X44765049Y-151637276D01*
X44766228Y-151635270D01*
X44842473Y-151498543D01*
X44903593Y-151375463D01*
X44941926Y-151282263D01*
X44951099Y-151243469D01*
X44968895Y-151157844D01*
X45008766Y-151058716D01*
X45013610Y-151049399D01*
X45048217Y-150976371D01*
X45059211Y-150935321D01*
X45057243Y-150932523D01*
X44974474Y-150913265D01*
X44858687Y-150892353D01*
X44730507Y-150872739D01*
X44610558Y-150857373D01*
X44519467Y-150849210D01*
X44480606Y-150850003D01*
X44463721Y-150884788D01*
X44452317Y-150963802D01*
X44450414Y-151000173D01*
X44433592Y-151100070D01*
X44392938Y-151233569D01*
X44336626Y-151374577D01*
X44325709Y-151398212D01*
X44266729Y-151528647D01*
X44236429Y-151615912D01*
X44231337Y-151676452D01*
X43916018Y-151760942D01*
X43900869Y-151740949D01*
X43874356Y-151713675D01*
X43834389Y-151664461D01*
X43791900Y-151581407D01*
X43742762Y-151454733D01*
X43721836Y-151391838D01*
X44024901Y-151310632D01*
X44051005Y-151386254D01*
X44076453Y-151432377D01*
X44146226Y-151551136D01*
X44211233Y-151422337D01*
X44251172Y-151305508D01*
X44265984Y-151183296D01*
X44265053Y-151163506D01*
X44272612Y-151046008D01*
X44306076Y-150935490D01*
X44309841Y-150928054D01*
X44365814Y-150822636D01*
X44271470Y-150806855D01*
X44173137Y-150797468D01*
X44128889Y-150814442D01*
X44127425Y-150854981D01*
X44126329Y-150917688D01*
X44108168Y-151018466D01*
X44078877Y-151131673D01*
X44044387Y-151231667D01*
X44035702Y-151251478D01*
X44024901Y-151310632D01*
X43721836Y-151391838D01*
X43682849Y-151274659D01*
X43664345Y-151215790D01*
X43614501Y-151055779D01*
X43885359Y-150983203D01*
X43914567Y-151075982D01*
X43934962Y-151124106D01*
X43942155Y-151117234D01*
X43942149Y-151116998D01*
X43956672Y-151041024D01*
X43994564Y-150946987D01*
X44000742Y-150935122D01*
X44035630Y-150862093D01*
X44046837Y-150820964D01*
X44044868Y-150818114D01*
X43957659Y-150795130D01*
X43880810Y-150778935D01*
X43843582Y-150775265D01*
X43843408Y-150807222D01*
X43859586Y-150886117D01*
X43885359Y-150983203D01*
X43614501Y-151055779D01*
X43530222Y-150785224D01*
X43596034Y-150676809D01*
X43643330Y-150610470D01*
X43698054Y-150573204D01*
X43785200Y-150551075D01*
X43835673Y-150543204D01*
X43943975Y-150532495D01*
X44028147Y-150533019D01*
X44055137Y-150538631D01*
X44115048Y-150550929D01*
X44212721Y-150557823D01*
X44258326Y-150558404D01*
X44395528Y-150563933D01*
X44535936Y-150578679D01*
X44562921Y-150582935D01*
X44803146Y-150623836D01*
X44983700Y-150653210D01*
X45111473Y-150672055D01*
X45193361Y-150681369D01*
X45236255Y-150682151D01*
X45241446Y-150681199D01*
X45297211Y-150679685D01*
X45384627Y-150688939D01*
X45392779Y-150690217D01*
X45509134Y-150704497D01*
X45633901Y-150713736D01*
X45640630Y-150714016D01*
X45731799Y-150722945D01*
X45791575Y-150738583D01*
X45798168Y-150742883D01*
X45843857Y-150744667D01*
X45910978Y-150699450D01*
X45988177Y-150619502D01*
X46064097Y-150517093D01*
X46127386Y-150404492D01*
X46141812Y-150371549D01*
X46224410Y-150168348D01*
X45820315Y-150287408D01*
X45647849Y-150337461D01*
X45532112Y-150366914D01*
X45464957Y-150374624D01*
X45438237Y-150359451D01*
X45443800Y-150320251D01*
X45473499Y-150255884D01*
X45481592Y-150239942D01*
X45498766Y-150209660D01*
X45521655Y-150184134D01*
X45558836Y-150160192D01*
X45618887Y-150134661D01*
X45710388Y-150104367D01*
X45841915Y-150066139D01*
X46022047Y-150016803D01*
X46250419Y-149955576D01*
X46509094Y-149884608D01*
X46777584Y-149807642D01*
X47047307Y-149727444D01*
X47309681Y-149646779D01*
X47556123Y-149568414D01*
X47778052Y-149495113D01*
X47966884Y-149429643D01*
X48114038Y-149374772D01*
X48210932Y-149333261D01*
X48245363Y-149312648D01*
X48308116Y-149275347D01*
X48404224Y-149238563D01*
X48433602Y-149230062D01*
X48531761Y-149200188D01*
X48669156Y-149153377D01*
X48832935Y-149094549D01*
X49010247Y-149028624D01*
X49188235Y-148960523D01*
X49354048Y-148895162D01*
X49494831Y-148837463D01*
X49597733Y-148792345D01*
X49649899Y-148764728D01*
X49650387Y-148764347D01*
X49699110Y-148739160D01*
X49801011Y-148695849D01*
X49945330Y-148638664D01*
X50121313Y-148571851D01*
X50318201Y-148499656D01*
X50347685Y-148489051D01*
X50544114Y-148417388D01*
X50718753Y-148351421D01*
X50861502Y-148295147D01*
X50962265Y-148252566D01*
X51010946Y-148227675D01*
X51013343Y-148225456D01*
X51054150Y-148199416D01*
X51143774Y-148155959D01*
X51267744Y-148101792D01*
X51372257Y-148059089D01*
X51520836Y-147996628D01*
X51653837Y-147934556D01*
X51753189Y-147881623D01*
X51791225Y-147856213D01*
X51877594Y-147792115D01*
X51982735Y-147722485D01*
X52006153Y-147708113D01*
X52091114Y-147648632D01*
X52149605Y-147592485D01*
X52159433Y-147577177D01*
X52202213Y-147524555D01*
X52224686Y-147512774D01*
X52271695Y-147479950D01*
X52330128Y-147415263D01*
X52333365Y-147410987D01*
X52366648Y-147359662D01*
X52380243Y-147308219D01*
X52374052Y-147237706D01*
X52347976Y-147129169D01*
X52331607Y-147069610D01*
X52288697Y-146934460D01*
X52241364Y-146814225D01*
X52199354Y-146733464D01*
X52196702Y-146729701D01*
X52139789Y-146664065D01*
X52060100Y-146586590D01*
X51974049Y-146511419D01*
X51898051Y-146452690D01*
X51848522Y-146424547D01*
X51841863Y-146424015D01*
X51808734Y-146450112D01*
X51750734Y-146509533D01*
X51730547Y-146531981D01*
X51649544Y-146617823D01*
X51548921Y-146716770D01*
X51503133Y-146759457D01*
X51413604Y-146841910D01*
X51336219Y-146914639D01*
X51306886Y-146943005D01*
X51238839Y-146995656D01*
X51193779Y-147017138D01*
X51135348Y-147058376D01*
X51113091Y-147091868D01*
X51076208Y-147145867D01*
X51055444Y-147159907D01*
X51015724Y-147184190D01*
X50940596Y-147240068D01*
X50847058Y-147314848D01*
X50730299Y-147406675D01*
X50610619Y-147493984D01*
X50533402Y-147545452D01*
X50446883Y-147602189D01*
X50385156Y-147648503D01*
X50371656Y-147661489D01*
X50330455Y-147692955D01*
X50246976Y-147745252D01*
X50138757Y-147807431D01*
X50131364Y-147811510D01*
X50022183Y-147874121D01*
X49936695Y-147927814D01*
X49892420Y-147961547D01*
X49891402Y-147962766D01*
X49850626Y-147992101D01*
X49764438Y-148041318D01*
X49648740Y-148101523D01*
X49601725Y-148124761D01*
X49474078Y-148189166D01*
X49365076Y-148248152D01*
X49293079Y-148291656D01*
X49280739Y-148300757D01*
X49224065Y-148338072D01*
X49125545Y-148394139D01*
X49004292Y-148458186D01*
X48976130Y-148472446D01*
X48820872Y-148550447D01*
X48653346Y-148634678D01*
X48512651Y-148705480D01*
X48370211Y-148774817D01*
X48229285Y-148837538D01*
X48080770Y-148896624D01*
X47915563Y-148955061D01*
X47724558Y-149015830D01*
X47498652Y-149081912D01*
X47228742Y-149156291D01*
X46905724Y-149241950D01*
X46756009Y-149280974D01*
X46461384Y-149357243D01*
X46224680Y-149417696D01*
X46038347Y-149463867D01*
X45894832Y-149497285D01*
X45786582Y-149519482D01*
X45706047Y-149531991D01*
X45645673Y-149536341D01*
X45597909Y-149534064D01*
X45555201Y-149526693D01*
X45549988Y-149525523D01*
X45409329Y-149493408D01*
X45477075Y-149381665D01*
X45562665Y-149291049D01*
X45670250Y-149264457D01*
X45773433Y-149290273D01*
X45821342Y-149288834D01*
X45923684Y-149270968D01*
X46071451Y-149239109D01*
X46255634Y-149195691D01*
X46467222Y-149143146D01*
X46697208Y-149083909D01*
X46936582Y-149020413D01*
X47176335Y-148955092D01*
X47407458Y-148890377D01*
X47620941Y-148828705D01*
X47807775Y-148772505D01*
X47958952Y-148724215D01*
X48065461Y-148686266D01*
X48118294Y-148661091D01*
X48122435Y-148655797D01*
X48155604Y-148617967D01*
X48240535Y-148581025D01*
X48269583Y-148572541D01*
X48354861Y-148543402D01*
X48402409Y-148514781D01*
X48406288Y-148504806D01*
X48431604Y-148479831D01*
X48505471Y-148442004D01*
X48612031Y-148399421D01*
X48614479Y-148398544D01*
X48864613Y-148307334D01*
X49056485Y-148233111D01*
X49196596Y-148173015D01*
X49291448Y-148124187D01*
X49347536Y-148083767D01*
X49359384Y-148070861D01*
X49400175Y-148041500D01*
X49486221Y-147992100D01*
X49601574Y-147931635D01*
X49646939Y-147909018D01*
X49769173Y-147846414D01*
X49868011Y-147791179D01*
X49927378Y-147752468D01*
X49935921Y-147744434D01*
X49978934Y-147711679D01*
X50064199Y-147661496D01*
X50164766Y-147609043D01*
X50274640Y-147549788D01*
X50361939Y-147493626D01*
X50404353Y-147456386D01*
X50460067Y-147406444D01*
X50545434Y-147355022D01*
X50556391Y-147349719D01*
X50652824Y-147292360D01*
X50758543Y-147212415D01*
X50792147Y-147182764D01*
X50885836Y-147102817D01*
X50977272Y-147035951D01*
X51005791Y-147018543D01*
X51084816Y-146963773D01*
X51135115Y-146912360D01*
X51188158Y-146857415D01*
X51269139Y-146795009D01*
X51282561Y-146786138D01*
X51361765Y-146724877D01*
X51414472Y-146665748D01*
X51418930Y-146657511D01*
X51460986Y-146602840D01*
X51485603Y-146588848D01*
X51556616Y-146548555D01*
X51637937Y-146475056D01*
X51704827Y-146393108D01*
X51729616Y-146344644D01*
X51771080Y-146279838D01*
X51809331Y-146256676D01*
X51853943Y-146228264D01*
X51858123Y-146208541D01*
X51879361Y-146176168D01*
X51928412Y-146154646D01*
X51990396Y-146126703D01*
X52010577Y-146101445D01*
X52031703Y-146056575D01*
X52082389Y-145977713D01*
X52150050Y-145881928D01*
X52222106Y-145786291D01*
X52285970Y-145707872D01*
X52329064Y-145663743D01*
X52336180Y-145659710D01*
X52379683Y-145622599D01*
X52447625Y-145532815D01*
X52535252Y-145398806D01*
X52637814Y-145229021D01*
X52750558Y-145031906D01*
X52868734Y-144815910D01*
X52987588Y-144589482D01*
X53102370Y-144361068D01*
X53208326Y-144139117D01*
X53276626Y-143987734D01*
X53375669Y-143758450D01*
X53450591Y-143574438D01*
X53506228Y-143419742D01*
X53547420Y-143278405D01*
X53579006Y-143134469D01*
X53605823Y-142971976D01*
X53623788Y-142842870D01*
X53635916Y-142742542D01*
X53640802Y-142658033D01*
X53636447Y-142574554D01*
X53620849Y-142477305D01*
X53592008Y-142351495D01*
X53547921Y-142182326D01*
X53520811Y-142081582D01*
X53415408Y-141725981D01*
X53305831Y-141430365D01*
X53187464Y-141186995D01*
X53055687Y-140988124D01*
X52905881Y-140826009D01*
X52733427Y-140692905D01*
X52668607Y-140652762D01*
X52474392Y-140538780D01*
X52180122Y-140617629D01*
X52030738Y-140663617D01*
X51868260Y-140723275D01*
X51707742Y-140789925D01*
X51564242Y-140856891D01*
X51452813Y-140917498D01*
X51388511Y-140965069D01*
X51383791Y-140970765D01*
X51340841Y-141008350D01*
X51262189Y-141062374D01*
X51222130Y-141087118D01*
X51131218Y-141147093D01*
X51062592Y-141202441D01*
X51047115Y-141219058D01*
X50995319Y-141267151D01*
X50910751Y-141328557D01*
X50872624Y-141352953D01*
X50777638Y-141415740D01*
X50700347Y-141474481D01*
X50681788Y-141491273D01*
X50622207Y-141542580D01*
X50532172Y-141611704D01*
X50478910Y-141650080D01*
X50387143Y-141719532D01*
X50316009Y-141782256D01*
X50293273Y-141807802D01*
X50236415Y-141861549D01*
X50157042Y-141911882D01*
X50079693Y-141964296D01*
X50032514Y-142019274D01*
X49988143Y-142074422D01*
X49961878Y-142088540D01*
X49916815Y-142116443D01*
X49839410Y-142178883D01*
X49745617Y-142262910D01*
X49736261Y-142271708D01*
X49641358Y-142357285D01*
X49560872Y-142422606D01*
X49510961Y-142454640D01*
X49508423Y-142455472D01*
X49455070Y-142494538D01*
X49436306Y-142523719D01*
X49389228Y-142576540D01*
X49310715Y-142627431D01*
X49307286Y-142629099D01*
X49222891Y-142686311D01*
X49165216Y-142754168D01*
X49115835Y-142813209D01*
X49029094Y-142886247D01*
X48955239Y-142937154D01*
X48855383Y-143005262D01*
X48776614Y-143068728D01*
X48744620Y-143102677D01*
X48686385Y-143159181D01*
X48607382Y-143209104D01*
X48530371Y-143259850D01*
X48484129Y-143312669D01*
X48438771Y-143366973D01*
X48413262Y-143380024D01*
X48349945Y-143412320D01*
X48318732Y-143436477D01*
X48255995Y-143491242D01*
X48158957Y-143573880D01*
X48042399Y-143672035D01*
X47921103Y-143773353D01*
X47809847Y-143865477D01*
X47723416Y-143936052D01*
X47681762Y-143968929D01*
X47516691Y-144098214D01*
X47313496Y-144266199D01*
X47192887Y-144368883D01*
X47095006Y-144449341D01*
X47012600Y-144510585D01*
X46962684Y-144540015D01*
X46961137Y-144540483D01*
X46903445Y-144576869D01*
X46874349Y-144609141D01*
X46824618Y-144658544D01*
X46739301Y-144726138D01*
X46670478Y-144774538D01*
X46570416Y-144845745D01*
X46487905Y-144912174D01*
X46454122Y-144944870D01*
X46386352Y-145000956D01*
X46340072Y-145022435D01*
X46274821Y-145059016D01*
X46207765Y-145121084D01*
X46113424Y-145206559D01*
X45975892Y-145301941D01*
X45815792Y-145394429D01*
X45653749Y-145471224D01*
X45625040Y-145482753D01*
X45457676Y-145547758D01*
X45521973Y-145431747D01*
X45570465Y-145363462D01*
X45642733Y-145301128D01*
X45753676Y-145233516D01*
X45854963Y-145180726D01*
X45980907Y-145113332D01*
X46085466Y-145049831D01*
X46151888Y-145000684D01*
X46163701Y-144987868D01*
X46213468Y-144938936D01*
X46300285Y-144872825D01*
X46376414Y-144822269D01*
X46469809Y-144760289D01*
X46535990Y-144709398D01*
X46557903Y-144685144D01*
X46590132Y-144652373D01*
X46662345Y-144601748D01*
X46711651Y-144571735D01*
X46805207Y-144511439D01*
X46876250Y-144454923D01*
X46894960Y-144434660D01*
X46943850Y-144387550D01*
X47028978Y-144322557D01*
X47097858Y-144275936D01*
X47195758Y-144207432D01*
X47272717Y-144143547D01*
X47302001Y-144111547D01*
X47353574Y-144057805D01*
X47383663Y-144041578D01*
X47433827Y-144012682D01*
X47506607Y-143954736D01*
X47527819Y-143935624D01*
X47651823Y-143826125D01*
X47808600Y-143695528D01*
X47975777Y-143562057D01*
X48130978Y-143443937D01*
X48136120Y-143440155D01*
X48199399Y-143385977D01*
X48221006Y-143364401D01*
X48279793Y-143308647D01*
X48367014Y-143233366D01*
X48466822Y-143151316D01*
X48563366Y-143075255D01*
X48640799Y-143017940D01*
X48683271Y-142992128D01*
X48683601Y-142992034D01*
X48729004Y-142964797D01*
X48803217Y-142906384D01*
X48852854Y-142863056D01*
X48947487Y-142779522D01*
X49068059Y-142676018D01*
X49184840Y-142577975D01*
X49287102Y-142492166D01*
X49372009Y-142418870D01*
X49423181Y-142372260D01*
X49426766Y-142368625D01*
X49486250Y-142312736D01*
X49532730Y-142273398D01*
X49614813Y-142207383D01*
X49662533Y-142169003D01*
X49731500Y-142109637D01*
X49768593Y-142074135D01*
X49821503Y-142024357D01*
X49904751Y-141951322D01*
X50003961Y-141867005D01*
X50104760Y-141783381D01*
X50192775Y-141712423D01*
X50253630Y-141666104D01*
X50271948Y-141654843D01*
X50310766Y-141624512D01*
X50337813Y-141591777D01*
X50387543Y-141542375D01*
X50472861Y-141474779D01*
X50541684Y-141426379D01*
X50641747Y-141355174D01*
X50724257Y-141288744D01*
X50758041Y-141256048D01*
X50815908Y-141203271D01*
X50851636Y-141183964D01*
X50898759Y-141157722D01*
X50977662Y-141101438D01*
X51044344Y-141049029D01*
X51154170Y-140963384D01*
X51265494Y-140882746D01*
X51316084Y-140848932D01*
X51398187Y-140792376D01*
X51455289Y-140745095D01*
X51463671Y-140735721D01*
X51524511Y-140686246D01*
X51636057Y-140624159D01*
X51783963Y-140555709D01*
X51953877Y-140487141D01*
X52131452Y-140424703D01*
X52279024Y-140380760D01*
X52432682Y-140340534D01*
G36*
X33226254Y-143426932D02*
G01*
X33214897Y-143463337D01*
X33183971Y-143554780D01*
X33150785Y-143687168D01*
X33120080Y-143836492D01*
X33096598Y-143978741D01*
X33085081Y-144089902D01*
X33084942Y-144121345D01*
X33081704Y-144220725D01*
X33064884Y-144298555D01*
X33063147Y-144302492D01*
X33039981Y-144383713D01*
X33032586Y-144450926D01*
X33025906Y-144533830D01*
X33011072Y-144651764D01*
X32998769Y-144732751D01*
X32982404Y-144840031D01*
X32972805Y-144917411D01*
X32971707Y-144943529D01*
X32969298Y-144984276D01*
X32957958Y-145068173D01*
X32949807Y-145119238D01*
X32934643Y-145257172D01*
X32929371Y-145406451D01*
X32930237Y-145445441D01*
X32930809Y-145551673D01*
X32924425Y-145632115D01*
X32918896Y-145654511D01*
X32914015Y-145712400D01*
X32921860Y-145825318D01*
X32940870Y-145982083D01*
X32969484Y-146171517D01*
X33006140Y-146382439D01*
X33049277Y-146603667D01*
X33055987Y-146635990D01*
X33086309Y-146791939D01*
X33108775Y-146929270D01*
X33120836Y-147030893D01*
X33121397Y-147074261D01*
X33122381Y-147154087D01*
X33138785Y-147286655D01*
X33168166Y-147461500D01*
X33208078Y-147668155D01*
X33256076Y-147896155D01*
X33309715Y-148135037D01*
X33366550Y-148374334D01*
X33424136Y-148603581D01*
X33480028Y-148812312D01*
X33531780Y-148990063D01*
X33576949Y-149126368D01*
X33613089Y-149210761D01*
X33624507Y-149227682D01*
X33658342Y-149279167D01*
X33711439Y-149375056D01*
X33774550Y-149498314D01*
X33802647Y-149555865D01*
X33865831Y-149682163D01*
X33921814Y-149784933D01*
X33961995Y-149848768D01*
X33972873Y-149860865D01*
X34010538Y-149904328D01*
X34063599Y-149983791D01*
X34087258Y-150023574D01*
X34136931Y-150097596D01*
X34219598Y-150207905D01*
X34323448Y-150339989D01*
X34436675Y-150479336D01*
X34547467Y-150611434D01*
X34644013Y-150721773D01*
X34714507Y-150795841D01*
X34719737Y-150800758D01*
X34770661Y-150853848D01*
X34836537Y-150929451D01*
X34844213Y-150938674D01*
X34924078Y-151026755D01*
X35005069Y-151104248D01*
X35006579Y-151105536D01*
X35119014Y-151202346D01*
X35243759Y-151311676D01*
X35367490Y-151421625D01*
X35476883Y-151520286D01*
X35558615Y-151595761D01*
X35594351Y-151630623D01*
X35655237Y-151684677D01*
X35760401Y-151767992D01*
X35897954Y-151871977D01*
X36056006Y-151988038D01*
X36222669Y-152107583D01*
X36386053Y-152222017D01*
X36534269Y-152322748D01*
X36655427Y-152401185D01*
X36687802Y-152420924D01*
X36801954Y-152484857D01*
X36896439Y-152530311D01*
X36954547Y-152549452D01*
X36961471Y-152549197D01*
X37020088Y-152559739D01*
X37039087Y-152573069D01*
X37095488Y-152606502D01*
X37182415Y-152641135D01*
X37190332Y-152643688D01*
X37291404Y-152680114D01*
X37375840Y-152717665D01*
X37376590Y-152718062D01*
X37420491Y-152747111D01*
X37426420Y-152782164D01*
X37394807Y-152845513D01*
X37379533Y-152870950D01*
X37310136Y-152985418D01*
X37195168Y-152934494D01*
X37088991Y-152890713D01*
X36963367Y-152843192D01*
X36925533Y-152829745D01*
X36820846Y-152786792D01*
X36689536Y-152723496D01*
X36544734Y-152647378D01*
X36399575Y-152565954D01*
X36267190Y-152486744D01*
X36160714Y-152417269D01*
X36093278Y-152365046D01*
X36076530Y-152343658D01*
X36046462Y-152313288D01*
X35981289Y-152268468D01*
X35976756Y-152265711D01*
X35860295Y-152193339D01*
X35761171Y-152125446D01*
X35663242Y-152049437D01*
X35550373Y-151952718D01*
X35406425Y-151822693D01*
X35390964Y-151808533D01*
X35347265Y-151769520D01*
X35264661Y-151696638D01*
X35155276Y-151600557D01*
X35039786Y-151499425D01*
X34878907Y-151357356D01*
X34757511Y-151246091D01*
X34662958Y-151153169D01*
X34582614Y-151066136D01*
X34503839Y-150972532D01*
X34498011Y-150965353D01*
X34432029Y-150887839D01*
X34376983Y-150829464D01*
X34371145Y-150824040D01*
X34315504Y-150766090D01*
X34269541Y-150711019D01*
X34215154Y-150643045D01*
X34138827Y-150549826D01*
X34093516Y-150495225D01*
X34008198Y-150387009D01*
X33928341Y-150276147D01*
X33899222Y-150231734D01*
X33831843Y-150129790D01*
X33763877Y-150036297D01*
X33754930Y-150024967D01*
X33707633Y-149952239D01*
X33646421Y-149839388D01*
X33583343Y-149708850D01*
X33573875Y-149687806D01*
X33517554Y-149567717D01*
X33467457Y-149472396D01*
X33432499Y-149418504D01*
X33427022Y-149413356D01*
X33403843Y-149370815D01*
X33369179Y-149272476D01*
X33325669Y-149128785D01*
X33275950Y-148950186D01*
X33222661Y-148747125D01*
X33168441Y-148530050D01*
X33115926Y-148309403D01*
X33067755Y-148095634D01*
X33026566Y-147899185D01*
X32994997Y-147730505D01*
X32982905Y-147654821D01*
X32952925Y-147453014D01*
X32920124Y-147237424D01*
X32888999Y-147037355D01*
X32869265Y-146913921D01*
X32821096Y-146612383D01*
X32784505Y-146365759D01*
X32758721Y-146162366D01*
X32742982Y-145990519D01*
X32736519Y-145838533D01*
X32738570Y-145694723D01*
X32748365Y-145547405D01*
X32765140Y-145384895D01*
X32767635Y-145363391D01*
X32816076Y-144957357D01*
X32859305Y-144613351D01*
X32898306Y-144325958D01*
X32934061Y-144089754D01*
X32967553Y-143899323D01*
X32999767Y-143749244D01*
X33031684Y-143634097D01*
X33064287Y-143548464D01*
X33098560Y-143486925D01*
X33111040Y-143470190D01*
X33169868Y-143413720D01*
X33212863Y-143398998D01*
X33226254Y-143426932D01*
G37*
X33226254Y-143426932D02*
X33214897Y-143463337D01*
X33183971Y-143554780D01*
X33150785Y-143687168D01*
X33120080Y-143836492D01*
X33096598Y-143978741D01*
X33085081Y-144089902D01*
X33084942Y-144121345D01*
X33081704Y-144220725D01*
X33064884Y-144298555D01*
X33063147Y-144302492D01*
X33039981Y-144383713D01*
X33032586Y-144450926D01*
X33025906Y-144533830D01*
X33011072Y-144651764D01*
X32998769Y-144732751D01*
X32982404Y-144840031D01*
X32972805Y-144917411D01*
X32971707Y-144943529D01*
X32969298Y-144984276D01*
X32957958Y-145068173D01*
X32949807Y-145119238D01*
X32934643Y-145257172D01*
X32929371Y-145406451D01*
X32930237Y-145445441D01*
X32930809Y-145551673D01*
X32924425Y-145632115D01*
X32918896Y-145654511D01*
X32914015Y-145712400D01*
X32921860Y-145825318D01*
X32940870Y-145982083D01*
X32969484Y-146171517D01*
X33006140Y-146382439D01*
X33049277Y-146603667D01*
X33055987Y-146635990D01*
X33086309Y-146791939D01*
X33108775Y-146929270D01*
X33120836Y-147030893D01*
X33121397Y-147074261D01*
X33122381Y-147154087D01*
X33138785Y-147286655D01*
X33168166Y-147461500D01*
X33208078Y-147668155D01*
X33256076Y-147896155D01*
X33309715Y-148135037D01*
X33366550Y-148374334D01*
X33424136Y-148603581D01*
X33480028Y-148812312D01*
X33531780Y-148990063D01*
X33576949Y-149126368D01*
X33613089Y-149210761D01*
X33624507Y-149227682D01*
X33658342Y-149279167D01*
X33711439Y-149375056D01*
X33774550Y-149498314D01*
X33802647Y-149555865D01*
X33865831Y-149682163D01*
X33921814Y-149784933D01*
X33961995Y-149848768D01*
X33972873Y-149860865D01*
X34010538Y-149904328D01*
X34063599Y-149983791D01*
X34087258Y-150023574D01*
X34136931Y-150097596D01*
X34219598Y-150207905D01*
X34323448Y-150339989D01*
X34436675Y-150479336D01*
X34547467Y-150611434D01*
X34644013Y-150721773D01*
X34714507Y-150795841D01*
X34719737Y-150800758D01*
X34770661Y-150853848D01*
X34836537Y-150929451D01*
X34844213Y-150938674D01*
X34924078Y-151026755D01*
X35005069Y-151104248D01*
X35006579Y-151105536D01*
X35119014Y-151202346D01*
X35243759Y-151311676D01*
X35367490Y-151421625D01*
X35476883Y-151520286D01*
X35558615Y-151595761D01*
X35594351Y-151630623D01*
X35655237Y-151684677D01*
X35760401Y-151767992D01*
X35897954Y-151871977D01*
X36056006Y-151988038D01*
X36222669Y-152107583D01*
X36386053Y-152222017D01*
X36534269Y-152322748D01*
X36655427Y-152401185D01*
X36687802Y-152420924D01*
X36801954Y-152484857D01*
X36896439Y-152530311D01*
X36954547Y-152549452D01*
X36961471Y-152549197D01*
X37020088Y-152559739D01*
X37039087Y-152573069D01*
X37095488Y-152606502D01*
X37182415Y-152641135D01*
X37190332Y-152643688D01*
X37291404Y-152680114D01*
X37375840Y-152717665D01*
X37376590Y-152718062D01*
X37420491Y-152747111D01*
X37426420Y-152782164D01*
X37394807Y-152845513D01*
X37379533Y-152870950D01*
X37310136Y-152985418D01*
X37195168Y-152934494D01*
X37088991Y-152890713D01*
X36963367Y-152843192D01*
X36925533Y-152829745D01*
X36820846Y-152786792D01*
X36689536Y-152723496D01*
X36544734Y-152647378D01*
X36399575Y-152565954D01*
X36267190Y-152486744D01*
X36160714Y-152417269D01*
X36093278Y-152365046D01*
X36076530Y-152343658D01*
X36046462Y-152313288D01*
X35981289Y-152268468D01*
X35976756Y-152265711D01*
X35860295Y-152193339D01*
X35761171Y-152125446D01*
X35663242Y-152049437D01*
X35550373Y-151952718D01*
X35406425Y-151822693D01*
X35390964Y-151808533D01*
X35347265Y-151769520D01*
X35264661Y-151696638D01*
X35155276Y-151600557D01*
X35039786Y-151499425D01*
X34878907Y-151357356D01*
X34757511Y-151246091D01*
X34662958Y-151153169D01*
X34582614Y-151066136D01*
X34503839Y-150972532D01*
X34498011Y-150965353D01*
X34432029Y-150887839D01*
X34376983Y-150829464D01*
X34371145Y-150824040D01*
X34315504Y-150766090D01*
X34269541Y-150711019D01*
X34215154Y-150643045D01*
X34138827Y-150549826D01*
X34093516Y-150495225D01*
X34008198Y-150387009D01*
X33928341Y-150276147D01*
X33899222Y-150231734D01*
X33831843Y-150129790D01*
X33763877Y-150036297D01*
X33754930Y-150024967D01*
X33707633Y-149952239D01*
X33646421Y-149839388D01*
X33583343Y-149708850D01*
X33573875Y-149687806D01*
X33517554Y-149567717D01*
X33467457Y-149472396D01*
X33432499Y-149418504D01*
X33427022Y-149413356D01*
X33403843Y-149370815D01*
X33369179Y-149272476D01*
X33325669Y-149128785D01*
X33275950Y-148950186D01*
X33222661Y-148747125D01*
X33168441Y-148530050D01*
X33115926Y-148309403D01*
X33067755Y-148095634D01*
X33026566Y-147899185D01*
X32994997Y-147730505D01*
X32982905Y-147654821D01*
X32952925Y-147453014D01*
X32920124Y-147237424D01*
X32888999Y-147037355D01*
X32869265Y-146913921D01*
X32821096Y-146612383D01*
X32784505Y-146365759D01*
X32758721Y-146162366D01*
X32742982Y-145990519D01*
X32736519Y-145838533D01*
X32738570Y-145694723D01*
X32748365Y-145547405D01*
X32765140Y-145384895D01*
X32767635Y-145363391D01*
X32816076Y-144957357D01*
X32859305Y-144613351D01*
X32898306Y-144325958D01*
X32934061Y-144089754D01*
X32967553Y-143899323D01*
X32999767Y-143749244D01*
X33031684Y-143634097D01*
X33064287Y-143548464D01*
X33098560Y-143486925D01*
X33111040Y-143470190D01*
X33169868Y-143413720D01*
X33212863Y-143398998D01*
X33226254Y-143426932D01*
G36*
X42195139Y-141658987D02*
G01*
X42383837Y-141674520D01*
X42656143Y-141745995D01*
X42907380Y-141863723D01*
X43143526Y-142025629D01*
X43431379Y-142289818D01*
X43687342Y-142601866D01*
X43909479Y-142953260D01*
X44095857Y-143335492D01*
X44244541Y-143740051D01*
X44353596Y-144158426D01*
X44421089Y-144582107D01*
X44445082Y-145002583D01*
X44423644Y-145411345D01*
X44354839Y-145799881D01*
X44236733Y-146159681D01*
X44132172Y-146374893D01*
X43971073Y-146610086D01*
X43777606Y-146805563D01*
X43561551Y-146954982D01*
X43332686Y-147051997D01*
X43100793Y-147090267D01*
X43030752Y-147089267D01*
X42733571Y-147045534D01*
X42460690Y-146947035D01*
X42341391Y-146884061D01*
X42038141Y-146671565D01*
X41760558Y-146403206D01*
X41511714Y-146086973D01*
X41294679Y-145730854D01*
X41112525Y-145342838D01*
X40968320Y-144930915D01*
X40865138Y-144503074D01*
X40806048Y-144067303D01*
X40794120Y-143631592D01*
X40832425Y-143203929D01*
X40862568Y-143036584D01*
X40960029Y-142680918D01*
X41095021Y-142377582D01*
X41270897Y-142120433D01*
X41472452Y-141918725D01*
X41688601Y-141779022D01*
X41935603Y-141690806D01*
X42195139Y-141658987D01*
G37*
X42195139Y-141658987D02*
X42383837Y-141674520D01*
X42656143Y-141745995D01*
X42907380Y-141863723D01*
X43143526Y-142025629D01*
X43431379Y-142289818D01*
X43687342Y-142601866D01*
X43909479Y-142953260D01*
X44095857Y-143335492D01*
X44244541Y-143740051D01*
X44353596Y-144158426D01*
X44421089Y-144582107D01*
X44445082Y-145002583D01*
X44423644Y-145411345D01*
X44354839Y-145799881D01*
X44236733Y-146159681D01*
X44132172Y-146374893D01*
X43971073Y-146610086D01*
X43777606Y-146805563D01*
X43561551Y-146954982D01*
X43332686Y-147051997D01*
X43100793Y-147090267D01*
X43030752Y-147089267D01*
X42733571Y-147045534D01*
X42460690Y-146947035D01*
X42341391Y-146884061D01*
X42038141Y-146671565D01*
X41760558Y-146403206D01*
X41511714Y-146086973D01*
X41294679Y-145730854D01*
X41112525Y-145342838D01*
X40968320Y-144930915D01*
X40865138Y-144503074D01*
X40806048Y-144067303D01*
X40794120Y-143631592D01*
X40832425Y-143203929D01*
X40862568Y-143036584D01*
X40960029Y-142680918D01*
X41095021Y-142377582D01*
X41270897Y-142120433D01*
X41472452Y-141918725D01*
X41688601Y-141779022D01*
X41935603Y-141690806D01*
X42195139Y-141658987D01*
G36*
X43742926Y-140116804D02*
G01*
X43796863Y-140182646D01*
X43874667Y-140301310D01*
X43882698Y-140313983D01*
X43951137Y-140415973D01*
X44014594Y-140500456D01*
X44045958Y-140535715D01*
X44105291Y-140607183D01*
X44152120Y-140681359D01*
X44205713Y-140766952D01*
X44277808Y-140865489D01*
X44296056Y-140888221D01*
X44364451Y-140984494D01*
X44439852Y-141109902D01*
X44486208Y-141197865D01*
X44538351Y-141296733D01*
X44581215Y-141364353D01*
X44604035Y-141385427D01*
X44627164Y-141411384D01*
X44671337Y-141486320D01*
X44729478Y-141597592D01*
X44774690Y-141690314D01*
X44838213Y-141819532D01*
X44892417Y-141921350D01*
X44930311Y-141983109D01*
X44943388Y-141995724D01*
X44964737Y-142022380D01*
X45006898Y-142099038D01*
X45063600Y-142213617D01*
X45123155Y-142341996D01*
X45190633Y-142485913D01*
X45252600Y-142607899D01*
X45301614Y-142693904D01*
X45327848Y-142728468D01*
X45352985Y-142772031D01*
X45392328Y-142870496D01*
X45442181Y-143013446D01*
X45498843Y-143190458D01*
X45538135Y-143320758D01*
X45638789Y-143689107D01*
X45706544Y-143999918D01*
X45741584Y-144254760D01*
X45744090Y-144455198D01*
X45714248Y-144602800D01*
X45693590Y-144646888D01*
X45645914Y-144715377D01*
X45608867Y-144744258D01*
X45601060Y-144742081D01*
X45587284Y-144699367D01*
X45571907Y-144606813D01*
X45557712Y-144482171D01*
X45554341Y-144444091D01*
X45537367Y-144319694D01*
X45505446Y-144156265D01*
X45461966Y-143965979D01*
X45410314Y-143761011D01*
X45353881Y-143553537D01*
X45296054Y-143355731D01*
X45240223Y-143179768D01*
X45189775Y-143037824D01*
X45148101Y-142942075D01*
X45127515Y-142910574D01*
X45090116Y-142856289D01*
X45034641Y-142757007D01*
X44970307Y-142629721D01*
X44936604Y-142558524D01*
X44872129Y-142423270D01*
X44813077Y-142306848D01*
X44768274Y-142226334D01*
X44753566Y-142204363D01*
X44717923Y-142148117D01*
X44663345Y-142048989D01*
X44599812Y-141925342D01*
X44578935Y-141883011D01*
X44516850Y-141760462D01*
X44462479Y-141661542D01*
X44424722Y-141602150D01*
X44416754Y-141593385D01*
X44385406Y-141552575D01*
X44333206Y-141468487D01*
X44270505Y-141357956D01*
X44259423Y-141337520D01*
X44196068Y-141224121D01*
X44141601Y-141134219D01*
X44106317Y-141084660D01*
X44102931Y-141081431D01*
X44065051Y-141037825D01*
X44010777Y-140961355D01*
X43993841Y-140935354D01*
X43931805Y-140844495D01*
X43874646Y-140770850D01*
X43864561Y-140759626D01*
X43819588Y-140703262D01*
X43753260Y-140610030D01*
X43682424Y-140503907D01*
X43553226Y-140304127D01*
X43624212Y-140187038D01*
X43666610Y-140123915D01*
X43702846Y-140098865D01*
X43742926Y-140116804D01*
G37*
X43742926Y-140116804D02*
X43796863Y-140182646D01*
X43874667Y-140301310D01*
X43882698Y-140313983D01*
X43951137Y-140415973D01*
X44014594Y-140500456D01*
X44045958Y-140535715D01*
X44105291Y-140607183D01*
X44152120Y-140681359D01*
X44205713Y-140766952D01*
X44277808Y-140865489D01*
X44296056Y-140888221D01*
X44364451Y-140984494D01*
X44439852Y-141109902D01*
X44486208Y-141197865D01*
X44538351Y-141296733D01*
X44581215Y-141364353D01*
X44604035Y-141385427D01*
X44627164Y-141411384D01*
X44671337Y-141486320D01*
X44729478Y-141597592D01*
X44774690Y-141690314D01*
X44838213Y-141819532D01*
X44892417Y-141921350D01*
X44930311Y-141983109D01*
X44943388Y-141995724D01*
X44964737Y-142022380D01*
X45006898Y-142099038D01*
X45063600Y-142213617D01*
X45123155Y-142341996D01*
X45190633Y-142485913D01*
X45252600Y-142607899D01*
X45301614Y-142693904D01*
X45327848Y-142728468D01*
X45352985Y-142772031D01*
X45392328Y-142870496D01*
X45442181Y-143013446D01*
X45498843Y-143190458D01*
X45538135Y-143320758D01*
X45638789Y-143689107D01*
X45706544Y-143999918D01*
X45741584Y-144254760D01*
X45744090Y-144455198D01*
X45714248Y-144602800D01*
X45693590Y-144646888D01*
X45645914Y-144715377D01*
X45608867Y-144744258D01*
X45601060Y-144742081D01*
X45587284Y-144699367D01*
X45571907Y-144606813D01*
X45557712Y-144482171D01*
X45554341Y-144444091D01*
X45537367Y-144319694D01*
X45505446Y-144156265D01*
X45461966Y-143965979D01*
X45410314Y-143761011D01*
X45353881Y-143553537D01*
X45296054Y-143355731D01*
X45240223Y-143179768D01*
X45189775Y-143037824D01*
X45148101Y-142942075D01*
X45127515Y-142910574D01*
X45090116Y-142856289D01*
X45034641Y-142757007D01*
X44970307Y-142629721D01*
X44936604Y-142558524D01*
X44872129Y-142423270D01*
X44813077Y-142306848D01*
X44768274Y-142226334D01*
X44753566Y-142204363D01*
X44717923Y-142148117D01*
X44663345Y-142048989D01*
X44599812Y-141925342D01*
X44578935Y-141883011D01*
X44516850Y-141760462D01*
X44462479Y-141661542D01*
X44424722Y-141602150D01*
X44416754Y-141593385D01*
X44385406Y-141552575D01*
X44333206Y-141468487D01*
X44270505Y-141357956D01*
X44259423Y-141337520D01*
X44196068Y-141224121D01*
X44141601Y-141134219D01*
X44106317Y-141084660D01*
X44102931Y-141081431D01*
X44065051Y-141037825D01*
X44010777Y-140961355D01*
X43993841Y-140935354D01*
X43931805Y-140844495D01*
X43874646Y-140770850D01*
X43864561Y-140759626D01*
X43819588Y-140703262D01*
X43753260Y-140610030D01*
X43682424Y-140503907D01*
X43553226Y-140304127D01*
X43624212Y-140187038D01*
X43666610Y-140123915D01*
X43702846Y-140098865D01*
X43742926Y-140116804D01*
G36*
X36493684Y-135203824D02*
G01*
X36808487Y-135183477D01*
X37150985Y-135202614D01*
X37531731Y-135258215D01*
X37554675Y-135262397D01*
X37971468Y-135339069D01*
X38480027Y-135241593D01*
X38948442Y-135156325D01*
X39370792Y-135088708D01*
X39744138Y-135039008D01*
X40065541Y-135007485D01*
X40332063Y-134994404D01*
X40540763Y-135000026D01*
X40688702Y-135024615D01*
X40731385Y-135040368D01*
X40813001Y-135067127D01*
X40848716Y-135072892D01*
X40865215Y-135077483D01*
X40882446Y-135092065D01*
X40902177Y-135121710D01*
X40926178Y-135171485D01*
X40956218Y-135246461D01*
X40994068Y-135351705D01*
X41041495Y-135492285D01*
X41100270Y-135673272D01*
X41172164Y-135899734D01*
X41258943Y-136176739D01*
X41362379Y-136509356D01*
X41458901Y-136820809D01*
X41546506Y-137103244D01*
X41616748Y-137327584D01*
X41672164Y-137500479D01*
X41715296Y-137628579D01*
X41748682Y-137718530D01*
X41774863Y-137776983D01*
X41796376Y-137810585D01*
X41815762Y-137825986D01*
X41835562Y-137829834D01*
X41844231Y-137829626D01*
X42354982Y-137810446D01*
X42802977Y-137809146D01*
X43190889Y-137826087D01*
X43521387Y-137861631D01*
X43797144Y-137916137D01*
X44020833Y-137989966D01*
X44195124Y-138083480D01*
X44287894Y-138159583D01*
X44389094Y-138284583D01*
X44432290Y-138413044D01*
X44424134Y-138567295D01*
X44418244Y-138597106D01*
X44350262Y-138768553D01*
X44219246Y-138950734D01*
X44028770Y-139142059D01*
X43782401Y-139340939D01*
X43483710Y-139545783D01*
X43136266Y-139755001D01*
X42743642Y-139967002D01*
X42309407Y-140180197D01*
X41837130Y-140392996D01*
X41330382Y-140603809D01*
X40792733Y-140811046D01*
X40227754Y-141013114D01*
X39639014Y-141208428D01*
X39030084Y-141395394D01*
X38404534Y-141572423D01*
X37765934Y-141737927D01*
X37117854Y-141890313D01*
X36933027Y-141930877D01*
X36274983Y-142064877D01*
X35645297Y-142176914D01*
X35047137Y-142266920D01*
X34483671Y-142334823D01*
X33958066Y-142380552D01*
X33473489Y-142404037D01*
X33033107Y-142405209D01*
X32640086Y-142383995D01*
X32297595Y-142340326D01*
X32008799Y-142274131D01*
X31776867Y-142185339D01*
X31604966Y-142073879D01*
X31579402Y-142050183D01*
X31478017Y-141924383D01*
X31435566Y-141795464D01*
X31436543Y-141782313D01*
X31599751Y-141738582D01*
X31634028Y-141861453D01*
X31730421Y-141966993D01*
X31885541Y-142055108D01*
X32095998Y-142125703D01*
X32358406Y-142178683D01*
X32669374Y-142213953D01*
X33025516Y-142231419D01*
X33423442Y-142230984D01*
X33859764Y-142212554D01*
X34331092Y-142176036D01*
X34834041Y-142121334D01*
X35365219Y-142048353D01*
X35921240Y-141956997D01*
X36373642Y-141872206D01*
X36955469Y-141749897D01*
X37567424Y-141607625D01*
X38187702Y-141450997D01*
X38794500Y-141285624D01*
X39366011Y-141117114D01*
X39620903Y-141036921D01*
X40290600Y-140812560D01*
X40919965Y-140584065D01*
X41505892Y-140352954D01*
X42045276Y-140120744D01*
X42535013Y-139888953D01*
X42971998Y-139659098D01*
X43353126Y-139432694D01*
X43675293Y-139211262D01*
X43935394Y-138996317D01*
X44066624Y-138864217D01*
X44191727Y-138698706D01*
X44256272Y-138547357D01*
X44259064Y-138413803D01*
X44235045Y-138351380D01*
X44146443Y-138255193D01*
X43997648Y-138169963D01*
X43795606Y-138097686D01*
X43547260Y-138040360D01*
X43259556Y-137999982D01*
X42939440Y-137978550D01*
X42938646Y-137978523D01*
X42765888Y-137975075D01*
X42575504Y-137975139D01*
X42382527Y-137978272D01*
X42201996Y-137984037D01*
X42048946Y-137991992D01*
X41938414Y-138001700D01*
X41895354Y-138009037D01*
X41865435Y-138045667D01*
X41871107Y-138114243D01*
X41907367Y-138192488D01*
X41947267Y-138240158D01*
X41987297Y-138303177D01*
X41980353Y-138335464D01*
X41943114Y-138373767D01*
X41859383Y-138445562D01*
X41737459Y-138544518D01*
X41585640Y-138664302D01*
X41412225Y-138798584D01*
X41225513Y-138941034D01*
X41033801Y-139085318D01*
X40845388Y-139225107D01*
X40668572Y-139354069D01*
X40511652Y-139465871D01*
X40383430Y-139553847D01*
X40144695Y-139708397D01*
X39912414Y-139848443D01*
X39681445Y-139975331D01*
X39446647Y-140090398D01*
X39202879Y-140194987D01*
X38945000Y-140290438D01*
X38667870Y-140378093D01*
X38366346Y-140459293D01*
X38035289Y-140535380D01*
X37669556Y-140607692D01*
X37264008Y-140677573D01*
X36813502Y-140746364D01*
X36312898Y-140815405D01*
X35757055Y-140886036D01*
X35140831Y-140959601D01*
X34878285Y-140989919D01*
X34589012Y-141023357D01*
X34316828Y-141055387D01*
X34070071Y-141084985D01*
X33857083Y-141111127D01*
X33686204Y-141132789D01*
X33565775Y-141148946D01*
X33504137Y-141158575D01*
X33503525Y-141158702D01*
X33384235Y-141183649D01*
X33157915Y-140412975D01*
X33042737Y-140468221D01*
X32895771Y-140546493D01*
X32714200Y-140654741D01*
X32516482Y-140780841D01*
X32321074Y-140912674D01*
X32146433Y-141038116D01*
X32011017Y-141145047D01*
X32007262Y-141148265D01*
X31840900Y-141307861D01*
X31713013Y-141464784D01*
X31630378Y-141609218D01*
X31599773Y-141731343D01*
X31599751Y-141738582D01*
X31436543Y-141782313D01*
X31446853Y-141643530D01*
X31459628Y-141591622D01*
X31529403Y-141435654D01*
X31654418Y-141262465D01*
X31827344Y-141080776D01*
X32040852Y-140899306D01*
X32042682Y-140897896D01*
X32139214Y-140828386D01*
X32269818Y-140740977D01*
X32421940Y-140643338D01*
X32583026Y-140543141D01*
X32740522Y-140448056D01*
X32881875Y-140365754D01*
X32994531Y-140303906D01*
X33065938Y-140270180D01*
X33074574Y-140267374D01*
X33082580Y-140254149D01*
X33082277Y-140217328D01*
X33072449Y-140151743D01*
X33051879Y-140052225D01*
X33019353Y-139913607D01*
X32973654Y-139730719D01*
X32913566Y-139498394D01*
X32837873Y-139211464D01*
X32745360Y-138864759D01*
X32738967Y-138840896D01*
X32411114Y-137617332D01*
X32574099Y-137573661D01*
X33039036Y-139274959D01*
X33503972Y-140976259D01*
X34559119Y-140857748D01*
X34959697Y-140811739D01*
X35368685Y-140762881D01*
X35776089Y-140712483D01*
X36171911Y-140661861D01*
X36546154Y-140612328D01*
X36888823Y-140565197D01*
X37189919Y-140521781D01*
X37439446Y-140483395D01*
X37556535Y-140463964D01*
X37804241Y-140415890D01*
X38079163Y-140353503D01*
X38362523Y-140281794D01*
X38635540Y-140205753D01*
X38879434Y-140130367D01*
X39075426Y-140060630D01*
X39077206Y-140059928D01*
X39370347Y-139936630D01*
X39640873Y-139804933D01*
X39913188Y-139652083D01*
X40198602Y-139473830D01*
X40310676Y-139398365D01*
X40455985Y-139296407D01*
X40625191Y-139174918D01*
X40808953Y-139040864D01*
X40997929Y-138901209D01*
X41182780Y-138762917D01*
X41354165Y-138632953D01*
X41502744Y-138518280D01*
X41619175Y-138425866D01*
X41694120Y-138362671D01*
X41712050Y-138345375D01*
X41716499Y-138322710D01*
X41710183Y-138271636D01*
X41691731Y-138187176D01*
X41659774Y-138064353D01*
X41612943Y-137898186D01*
X41549868Y-137683699D01*
X41469177Y-137415913D01*
X41369502Y-137089848D01*
X41341609Y-136999140D01*
X41251441Y-136707127D01*
X41165228Y-136429715D01*
X41085492Y-136174881D01*
X41014749Y-135950600D01*
X40955521Y-135764851D01*
X40910327Y-135625611D01*
X40881687Y-135540854D01*
X40876839Y-135527611D01*
X40815472Y-135366726D01*
X40615867Y-135498760D01*
X40387253Y-135633110D01*
X40098559Y-135775278D01*
X39756745Y-135923401D01*
X39368768Y-136075614D01*
X38941587Y-136230055D01*
X38482161Y-136384859D01*
X37997447Y-136538162D01*
X37494405Y-136688100D01*
X36979993Y-136832810D01*
X36461168Y-136970427D01*
X35944891Y-137099088D01*
X35438118Y-137216929D01*
X34947808Y-137322085D01*
X34480922Y-137412693D01*
X34044414Y-137486888D01*
X33645245Y-137542808D01*
X33290374Y-137578589D01*
X32986758Y-137592365D01*
X32857722Y-137589332D01*
X33825105Y-137330123D01*
X33852861Y-137336346D01*
X33938305Y-137329792D01*
X34072901Y-137311904D01*
X34248110Y-137284124D01*
X34455395Y-137247894D01*
X34686222Y-137204658D01*
X34932053Y-137155857D01*
X35184350Y-137102934D01*
X35236232Y-137091678D01*
X35525657Y-137025771D01*
X35858422Y-136945395D01*
X36220651Y-136854254D01*
X36598465Y-136756057D01*
X36977987Y-136654510D01*
X37345338Y-136553321D01*
X37686643Y-136456197D01*
X37988022Y-136366845D01*
X38210631Y-136297120D01*
X38546696Y-136187235D01*
X38820372Y-136095966D01*
X39034135Y-136022424D01*
X39190461Y-135965727D01*
X39291828Y-135924988D01*
X39340712Y-135899324D01*
X39346160Y-135891426D01*
X39312566Y-135875341D01*
X39223950Y-135846109D01*
X39091109Y-135806569D01*
X38924839Y-135759560D01*
X38735939Y-135707919D01*
X38535206Y-135654488D01*
X38333438Y-135602103D01*
X38141432Y-135553603D01*
X38043658Y-135529778D01*
X38400163Y-135434253D01*
X38797949Y-135544880D01*
X38977557Y-135595109D01*
X39156609Y-135645663D01*
X39312079Y-135690014D01*
X39405035Y-135716947D01*
X39514476Y-135745262D01*
X39609018Y-135756725D01*
X39703339Y-135748360D01*
X39812113Y-135717190D01*
X39950016Y-135660238D01*
X40131724Y-135574527D01*
X40149353Y-135565969D01*
X40351775Y-135462554D01*
X40509567Y-135371395D01*
X40617472Y-135295967D01*
X40670233Y-135239742D01*
X40674104Y-135219146D01*
X40632653Y-135189874D01*
X40532657Y-135172687D01*
X40382109Y-135166985D01*
X40188998Y-135172172D01*
X39961317Y-135187649D01*
X39707056Y-135212816D01*
X39434206Y-135247077D01*
X39150760Y-135289833D01*
X38864708Y-135340485D01*
X38749280Y-135363243D01*
X38400163Y-135434253D01*
X38043658Y-135529778D01*
X37969984Y-135511826D01*
X37829893Y-135479613D01*
X37731957Y-135459801D01*
X37686972Y-135455228D01*
X37686971Y-135455228D01*
X37648587Y-135438831D01*
X37645544Y-135431267D01*
X37611514Y-135408012D01*
X37594744Y-135409818D01*
X37544201Y-135410749D01*
X37444106Y-135403796D01*
X37312000Y-135390342D01*
X37242067Y-135381945D01*
X36854579Y-135354102D01*
X36504955Y-135375366D01*
X36182203Y-135447931D01*
X35875330Y-135573991D01*
X35660271Y-135697679D01*
X35494206Y-135809906D01*
X35331104Y-135929988D01*
X35188304Y-136044524D01*
X35083143Y-136140111D01*
X35069452Y-136154374D01*
X35020938Y-136200038D01*
X34941064Y-136269294D01*
X34884887Y-136316095D01*
X34810583Y-136380259D01*
X34705827Y-136475080D01*
X34579407Y-136592151D01*
X34440106Y-136723065D01*
X34296712Y-136859416D01*
X34158013Y-136992796D01*
X34032790Y-137114798D01*
X33929835Y-137217017D01*
X33857930Y-137291044D01*
X33825864Y-137328473D01*
X33825105Y-137330123D01*
X32857722Y-137589332D01*
X32815003Y-137588329D01*
X32574099Y-137573661D01*
X32411114Y-137617332D01*
X32367843Y-137455843D01*
X32638368Y-137383356D01*
X32697064Y-137409134D01*
X32819685Y-137421959D01*
X32874790Y-137424001D01*
X33082546Y-137424551D01*
X33268038Y-137415508D01*
X33420185Y-137398174D01*
X33527902Y-137373851D01*
X33580109Y-137343844D01*
X33581716Y-137340883D01*
X33612418Y-137301679D01*
X33683332Y-137224565D01*
X33785815Y-137118537D01*
X33911218Y-136992594D01*
X34006684Y-136898693D01*
X34134083Y-136772355D01*
X34235892Y-136667321D01*
X34305982Y-136590274D01*
X34338221Y-136547900D01*
X34332281Y-136543632D01*
X34263617Y-136572961D01*
X34152771Y-136615731D01*
X34021676Y-136663528D01*
X33998459Y-136671722D01*
X33822638Y-136737568D01*
X33621503Y-136819500D01*
X33411271Y-136910249D01*
X33208162Y-137002544D01*
X33028394Y-137089114D01*
X32888184Y-137162690D01*
X32840297Y-137190882D01*
X32710538Y-137277971D01*
X32643044Y-137340881D01*
X32638368Y-137383356D01*
X32367843Y-137455843D01*
X32359867Y-137426072D01*
X32446911Y-137308067D01*
X32545880Y-137200386D01*
X32687245Y-137090524D01*
X32875135Y-136976350D01*
X33113682Y-136855735D01*
X33407016Y-136726550D01*
X33759267Y-136586663D01*
X34067741Y-136472311D01*
X34659063Y-136258412D01*
X34965747Y-136003571D01*
X35300365Y-135740484D01*
X35609915Y-135531986D01*
X35904950Y-135375058D01*
X36196022Y-135266677D01*
X36493684Y-135203824D01*
G37*
X36493684Y-135203824D02*
X36808487Y-135183477D01*
X37150985Y-135202614D01*
X37531731Y-135258215D01*
X37554675Y-135262397D01*
X37971468Y-135339069D01*
X38480027Y-135241593D01*
X38948442Y-135156325D01*
X39370792Y-135088708D01*
X39744138Y-135039008D01*
X40065541Y-135007485D01*
X40332063Y-134994404D01*
X40540763Y-135000026D01*
X40688702Y-135024615D01*
X40731385Y-135040368D01*
X40813001Y-135067127D01*
X40848716Y-135072892D01*
X40865215Y-135077483D01*
X40882446Y-135092065D01*
X40902177Y-135121710D01*
X40926178Y-135171485D01*
X40956218Y-135246461D01*
X40994068Y-135351705D01*
X41041495Y-135492285D01*
X41100270Y-135673272D01*
X41172164Y-135899734D01*
X41258943Y-136176739D01*
X41362379Y-136509356D01*
X41458901Y-136820809D01*
X41546506Y-137103244D01*
X41616748Y-137327584D01*
X41672164Y-137500479D01*
X41715296Y-137628579D01*
X41748682Y-137718530D01*
X41774863Y-137776983D01*
X41796376Y-137810585D01*
X41815762Y-137825986D01*
X41835562Y-137829834D01*
X41844231Y-137829626D01*
X42354982Y-137810446D01*
X42802977Y-137809146D01*
X43190889Y-137826087D01*
X43521387Y-137861631D01*
X43797144Y-137916137D01*
X44020833Y-137989966D01*
X44195124Y-138083480D01*
X44287894Y-138159583D01*
X44389094Y-138284583D01*
X44432290Y-138413044D01*
X44424134Y-138567295D01*
X44418244Y-138597106D01*
X44350262Y-138768553D01*
X44219246Y-138950734D01*
X44028770Y-139142059D01*
X43782401Y-139340939D01*
X43483710Y-139545783D01*
X43136266Y-139755001D01*
X42743642Y-139967002D01*
X42309407Y-140180197D01*
X41837130Y-140392996D01*
X41330382Y-140603809D01*
X40792733Y-140811046D01*
X40227754Y-141013114D01*
X39639014Y-141208428D01*
X39030084Y-141395394D01*
X38404534Y-141572423D01*
X37765934Y-141737927D01*
X37117854Y-141890313D01*
X36933027Y-141930877D01*
X36274983Y-142064877D01*
X35645297Y-142176914D01*
X35047137Y-142266920D01*
X34483671Y-142334823D01*
X33958066Y-142380552D01*
X33473489Y-142404037D01*
X33033107Y-142405209D01*
X32640086Y-142383995D01*
X32297595Y-142340326D01*
X32008799Y-142274131D01*
X31776867Y-142185339D01*
X31604966Y-142073879D01*
X31579402Y-142050183D01*
X31478017Y-141924383D01*
X31435566Y-141795464D01*
X31436543Y-141782313D01*
X31599751Y-141738582D01*
X31634028Y-141861453D01*
X31730421Y-141966993D01*
X31885541Y-142055108D01*
X32095998Y-142125703D01*
X32358406Y-142178683D01*
X32669374Y-142213953D01*
X33025516Y-142231419D01*
X33423442Y-142230984D01*
X33859764Y-142212554D01*
X34331092Y-142176036D01*
X34834041Y-142121334D01*
X35365219Y-142048353D01*
X35921240Y-141956997D01*
X36373642Y-141872206D01*
X36955469Y-141749897D01*
X37567424Y-141607625D01*
X38187702Y-141450997D01*
X38794500Y-141285624D01*
X39366011Y-141117114D01*
X39620903Y-141036921D01*
X40290600Y-140812560D01*
X40919965Y-140584065D01*
X41505892Y-140352954D01*
X42045276Y-140120744D01*
X42535013Y-139888953D01*
X42971998Y-139659098D01*
X43353126Y-139432694D01*
X43675293Y-139211262D01*
X43935394Y-138996317D01*
X44066624Y-138864217D01*
X44191727Y-138698706D01*
X44256272Y-138547357D01*
X44259064Y-138413803D01*
X44235045Y-138351380D01*
X44146443Y-138255193D01*
X43997648Y-138169963D01*
X43795606Y-138097686D01*
X43547260Y-138040360D01*
X43259556Y-137999982D01*
X42939440Y-137978550D01*
X42938646Y-137978523D01*
X42765888Y-137975075D01*
X42575504Y-137975139D01*
X42382527Y-137978272D01*
X42201996Y-137984037D01*
X42048946Y-137991992D01*
X41938414Y-138001700D01*
X41895354Y-138009037D01*
X41865435Y-138045667D01*
X41871107Y-138114243D01*
X41907367Y-138192488D01*
X41947267Y-138240158D01*
X41987297Y-138303177D01*
X41980353Y-138335464D01*
X41943114Y-138373767D01*
X41859383Y-138445562D01*
X41737459Y-138544518D01*
X41585640Y-138664302D01*
X41412225Y-138798584D01*
X41225513Y-138941034D01*
X41033801Y-139085318D01*
X40845388Y-139225107D01*
X40668572Y-139354069D01*
X40511652Y-139465871D01*
X40383430Y-139553847D01*
X40144695Y-139708397D01*
X39912414Y-139848443D01*
X39681445Y-139975331D01*
X39446647Y-140090398D01*
X39202879Y-140194987D01*
X38945000Y-140290438D01*
X38667870Y-140378093D01*
X38366346Y-140459293D01*
X38035289Y-140535380D01*
X37669556Y-140607692D01*
X37264008Y-140677573D01*
X36813502Y-140746364D01*
X36312898Y-140815405D01*
X35757055Y-140886036D01*
X35140831Y-140959601D01*
X34878285Y-140989919D01*
X34589012Y-141023357D01*
X34316828Y-141055387D01*
X34070071Y-141084985D01*
X33857083Y-141111127D01*
X33686204Y-141132789D01*
X33565775Y-141148946D01*
X33504137Y-141158575D01*
X33503525Y-141158702D01*
X33384235Y-141183649D01*
X33157915Y-140412975D01*
X33042737Y-140468221D01*
X32895771Y-140546493D01*
X32714200Y-140654741D01*
X32516482Y-140780841D01*
X32321074Y-140912674D01*
X32146433Y-141038116D01*
X32011017Y-141145047D01*
X32007262Y-141148265D01*
X31840900Y-141307861D01*
X31713013Y-141464784D01*
X31630378Y-141609218D01*
X31599773Y-141731343D01*
X31599751Y-141738582D01*
X31436543Y-141782313D01*
X31446853Y-141643530D01*
X31459628Y-141591622D01*
X31529403Y-141435654D01*
X31654418Y-141262465D01*
X31827344Y-141080776D01*
X32040852Y-140899306D01*
X32042682Y-140897896D01*
X32139214Y-140828386D01*
X32269818Y-140740977D01*
X32421940Y-140643338D01*
X32583026Y-140543141D01*
X32740522Y-140448056D01*
X32881875Y-140365754D01*
X32994531Y-140303906D01*
X33065938Y-140270180D01*
X33074574Y-140267374D01*
X33082580Y-140254149D01*
X33082277Y-140217328D01*
X33072449Y-140151743D01*
X33051879Y-140052225D01*
X33019353Y-139913607D01*
X32973654Y-139730719D01*
X32913566Y-139498394D01*
X32837873Y-139211464D01*
X32745360Y-138864759D01*
X32738967Y-138840896D01*
X32411114Y-137617332D01*
X32574099Y-137573661D01*
X33039036Y-139274959D01*
X33503972Y-140976259D01*
X34559119Y-140857748D01*
X34959697Y-140811739D01*
X35368685Y-140762881D01*
X35776089Y-140712483D01*
X36171911Y-140661861D01*
X36546154Y-140612328D01*
X36888823Y-140565197D01*
X37189919Y-140521781D01*
X37439446Y-140483395D01*
X37556535Y-140463964D01*
X37804241Y-140415890D01*
X38079163Y-140353503D01*
X38362523Y-140281794D01*
X38635540Y-140205753D01*
X38879434Y-140130367D01*
X39075426Y-140060630D01*
X39077206Y-140059928D01*
X39370347Y-139936630D01*
X39640873Y-139804933D01*
X39913188Y-139652083D01*
X40198602Y-139473830D01*
X40310676Y-139398365D01*
X40455985Y-139296407D01*
X40625191Y-139174918D01*
X40808953Y-139040864D01*
X40997929Y-138901209D01*
X41182780Y-138762917D01*
X41354165Y-138632953D01*
X41502744Y-138518280D01*
X41619175Y-138425866D01*
X41694120Y-138362671D01*
X41712050Y-138345375D01*
X41716499Y-138322710D01*
X41710183Y-138271636D01*
X41691731Y-138187176D01*
X41659774Y-138064353D01*
X41612943Y-137898186D01*
X41549868Y-137683699D01*
X41469177Y-137415913D01*
X41369502Y-137089848D01*
X41341609Y-136999140D01*
X41251441Y-136707127D01*
X41165228Y-136429715D01*
X41085492Y-136174881D01*
X41014749Y-135950600D01*
X40955521Y-135764851D01*
X40910327Y-135625611D01*
X40881687Y-135540854D01*
X40876839Y-135527611D01*
X40815472Y-135366726D01*
X40615867Y-135498760D01*
X40387253Y-135633110D01*
X40098559Y-135775278D01*
X39756745Y-135923401D01*
X39368768Y-136075614D01*
X38941587Y-136230055D01*
X38482161Y-136384859D01*
X37997447Y-136538162D01*
X37494405Y-136688100D01*
X36979993Y-136832810D01*
X36461168Y-136970427D01*
X35944891Y-137099088D01*
X35438118Y-137216929D01*
X34947808Y-137322085D01*
X34480922Y-137412693D01*
X34044414Y-137486888D01*
X33645245Y-137542808D01*
X33290374Y-137578589D01*
X32986758Y-137592365D01*
X32857722Y-137589332D01*
X33825105Y-137330123D01*
X33852861Y-137336346D01*
X33938305Y-137329792D01*
X34072901Y-137311904D01*
X34248110Y-137284124D01*
X34455395Y-137247894D01*
X34686222Y-137204658D01*
X34932053Y-137155857D01*
X35184350Y-137102934D01*
X35236232Y-137091678D01*
X35525657Y-137025771D01*
X35858422Y-136945395D01*
X36220651Y-136854254D01*
X36598465Y-136756057D01*
X36977987Y-136654510D01*
X37345338Y-136553321D01*
X37686643Y-136456197D01*
X37988022Y-136366845D01*
X38210631Y-136297120D01*
X38546696Y-136187235D01*
X38820372Y-136095966D01*
X39034135Y-136022424D01*
X39190461Y-135965727D01*
X39291828Y-135924988D01*
X39340712Y-135899324D01*
X39346160Y-135891426D01*
X39312566Y-135875341D01*
X39223950Y-135846109D01*
X39091109Y-135806569D01*
X38924839Y-135759560D01*
X38735939Y-135707919D01*
X38535206Y-135654488D01*
X38333438Y-135602103D01*
X38141432Y-135553603D01*
X38043658Y-135529778D01*
X38400163Y-135434253D01*
X38797949Y-135544880D01*
X38977557Y-135595109D01*
X39156609Y-135645663D01*
X39312079Y-135690014D01*
X39405035Y-135716947D01*
X39514476Y-135745262D01*
X39609018Y-135756725D01*
X39703339Y-135748360D01*
X39812113Y-135717190D01*
X39950016Y-135660238D01*
X40131724Y-135574527D01*
X40149353Y-135565969D01*
X40351775Y-135462554D01*
X40509567Y-135371395D01*
X40617472Y-135295967D01*
X40670233Y-135239742D01*
X40674104Y-135219146D01*
X40632653Y-135189874D01*
X40532657Y-135172687D01*
X40382109Y-135166985D01*
X40188998Y-135172172D01*
X39961317Y-135187649D01*
X39707056Y-135212816D01*
X39434206Y-135247077D01*
X39150760Y-135289833D01*
X38864708Y-135340485D01*
X38749280Y-135363243D01*
X38400163Y-135434253D01*
X38043658Y-135529778D01*
X37969984Y-135511826D01*
X37829893Y-135479613D01*
X37731957Y-135459801D01*
X37686972Y-135455228D01*
X37686971Y-135455228D01*
X37648587Y-135438831D01*
X37645544Y-135431267D01*
X37611514Y-135408012D01*
X37594744Y-135409818D01*
X37544201Y-135410749D01*
X37444106Y-135403796D01*
X37312000Y-135390342D01*
X37242067Y-135381945D01*
X36854579Y-135354102D01*
X36504955Y-135375366D01*
X36182203Y-135447931D01*
X35875330Y-135573991D01*
X35660271Y-135697679D01*
X35494206Y-135809906D01*
X35331104Y-135929988D01*
X35188304Y-136044524D01*
X35083143Y-136140111D01*
X35069452Y-136154374D01*
X35020938Y-136200038D01*
X34941064Y-136269294D01*
X34884887Y-136316095D01*
X34810583Y-136380259D01*
X34705827Y-136475080D01*
X34579407Y-136592151D01*
X34440106Y-136723065D01*
X34296712Y-136859416D01*
X34158013Y-136992796D01*
X34032790Y-137114798D01*
X33929835Y-137217017D01*
X33857930Y-137291044D01*
X33825864Y-137328473D01*
X33825105Y-137330123D01*
X32857722Y-137589332D01*
X32815003Y-137588329D01*
X32574099Y-137573661D01*
X32411114Y-137617332D01*
X32367843Y-137455843D01*
X32638368Y-137383356D01*
X32697064Y-137409134D01*
X32819685Y-137421959D01*
X32874790Y-137424001D01*
X33082546Y-137424551D01*
X33268038Y-137415508D01*
X33420185Y-137398174D01*
X33527902Y-137373851D01*
X33580109Y-137343844D01*
X33581716Y-137340883D01*
X33612418Y-137301679D01*
X33683332Y-137224565D01*
X33785815Y-137118537D01*
X33911218Y-136992594D01*
X34006684Y-136898693D01*
X34134083Y-136772355D01*
X34235892Y-136667321D01*
X34305982Y-136590274D01*
X34338221Y-136547900D01*
X34332281Y-136543632D01*
X34263617Y-136572961D01*
X34152771Y-136615731D01*
X34021676Y-136663528D01*
X33998459Y-136671722D01*
X33822638Y-136737568D01*
X33621503Y-136819500D01*
X33411271Y-136910249D01*
X33208162Y-137002544D01*
X33028394Y-137089114D01*
X32888184Y-137162690D01*
X32840297Y-137190882D01*
X32710538Y-137277971D01*
X32643044Y-137340881D01*
X32638368Y-137383356D01*
X32367843Y-137455843D01*
X32359867Y-137426072D01*
X32446911Y-137308067D01*
X32545880Y-137200386D01*
X32687245Y-137090524D01*
X32875135Y-136976350D01*
X33113682Y-136855735D01*
X33407016Y-136726550D01*
X33759267Y-136586663D01*
X34067741Y-136472311D01*
X34659063Y-136258412D01*
X34965747Y-136003571D01*
X35300365Y-135740484D01*
X35609915Y-135531986D01*
X35904950Y-135375058D01*
X36196022Y-135266677D01*
X36493684Y-135203824D01*
G36*
X46482570Y-150538946D02*
G01*
X46626902Y-150548989D01*
X46775792Y-150561720D01*
X46913937Y-150570964D01*
X47015695Y-150575056D01*
X47029901Y-150575107D01*
X47122949Y-150584867D01*
X47172229Y-150609726D01*
X47170335Y-150640382D01*
X47109862Y-150667536D01*
X47104498Y-150668787D01*
X47007889Y-150685711D01*
X46941288Y-150692119D01*
X46848752Y-150690238D01*
X46726587Y-150681270D01*
X46591997Y-150667353D01*
X46462189Y-150650626D01*
X46354369Y-150633226D01*
X46285746Y-150617290D01*
X46270315Y-150608755D01*
X46283413Y-150565877D01*
X46353136Y-150542779D01*
X46482570Y-150538946D01*
G37*
X46482570Y-150538946D02*
X46626902Y-150548989D01*
X46775792Y-150561720D01*
X46913937Y-150570964D01*
X47015695Y-150575056D01*
X47029901Y-150575107D01*
X47122949Y-150584867D01*
X47172229Y-150609726D01*
X47170335Y-150640382D01*
X47109862Y-150667536D01*
X47104498Y-150668787D01*
X47007889Y-150685711D01*
X46941288Y-150692119D01*
X46848752Y-150690238D01*
X46726587Y-150681270D01*
X46591997Y-150667353D01*
X46462189Y-150650626D01*
X46354369Y-150633226D01*
X46285746Y-150617290D01*
X46270315Y-150608755D01*
X46283413Y-150565877D01*
X46353136Y-150542779D01*
X46482570Y-150538946D01*
G36*
X46626670Y-150360435D02*
G01*
X46743828Y-150372267D01*
X46852864Y-150398733D01*
X46935698Y-150438091D01*
X46973376Y-150484748D01*
X46966524Y-150526151D01*
X46911977Y-150535862D01*
X46804802Y-150514011D01*
X46729677Y-150491207D01*
X46616563Y-150462696D01*
X46518459Y-150451685D01*
X46480407Y-150455066D01*
X46420792Y-150455461D01*
X46407255Y-150430179D01*
X46440304Y-150387649D01*
X46519468Y-150364982D01*
X46626670Y-150360435D01*
G37*
X46626670Y-150360435D02*
X46743828Y-150372267D01*
X46852864Y-150398733D01*
X46935698Y-150438091D01*
X46973376Y-150484748D01*
X46966524Y-150526151D01*
X46911977Y-150535862D01*
X46804802Y-150514011D01*
X46729677Y-150491207D01*
X46616563Y-150462696D01*
X46518459Y-150451685D01*
X46480407Y-150455066D01*
X46420792Y-150455461D01*
X46407255Y-150430179D01*
X46440304Y-150387649D01*
X46519468Y-150364982D01*
X46626670Y-150360435D01*
D14*
%TO.C,K36*%
X253179000Y-117462000D02*
X254957000Y-117462000D01*
X264101000Y-117462000D02*
X265879000Y-117462000D01*
X265879000Y-117462000D02*
X265879000Y-119240000D01*
X265879000Y-128384000D02*
X265879000Y-130162000D01*
X265879000Y-130162000D02*
X264101000Y-130162000D01*
X254957000Y-130162000D02*
X253179000Y-130162000D01*
X253179000Y-130162000D02*
X253179000Y-128384000D01*
X253179000Y-119240000D02*
X253179000Y-117462000D01*
%TO.C,K21*%
X169844000Y-81144000D02*
X169844000Y-79366000D01*
X169844000Y-92066000D02*
X169844000Y-90288000D01*
X171622000Y-92066000D02*
X169844000Y-92066000D01*
X182544000Y-92066000D02*
X180766000Y-92066000D01*
X182544000Y-90288000D02*
X182544000Y-92066000D01*
X182544000Y-79366000D02*
X182544000Y-81144000D01*
X180766000Y-79366000D02*
X182544000Y-79366000D01*
X169844000Y-79366000D02*
X171622000Y-79366000D01*
%TO.C,K24*%
X167463000Y-136510000D02*
X169241000Y-136510000D01*
X178385000Y-136510000D02*
X180163000Y-136510000D01*
X180163000Y-136510000D02*
X180163000Y-138288000D01*
X180163000Y-147432000D02*
X180163000Y-149210000D01*
X180163000Y-149210000D02*
X178385000Y-149210000D01*
X169241000Y-149210000D02*
X167463000Y-149210000D01*
X167463000Y-149210000D02*
X167463000Y-147432000D01*
X167463000Y-138288000D02*
X167463000Y-136510000D01*
%TO.C,K1*%
X55556000Y-79366000D02*
X57334000Y-79366000D01*
X66478000Y-79366000D02*
X68256000Y-79366000D01*
X68256000Y-79366000D02*
X68256000Y-81144000D01*
X68256000Y-90288000D02*
X68256000Y-92066000D01*
X68256000Y-92066000D02*
X66478000Y-92066000D01*
X57334000Y-92066000D02*
X55556000Y-92066000D01*
X55556000Y-92066000D02*
X55556000Y-90288000D01*
X55556000Y-81144000D02*
X55556000Y-79366000D01*
%TO.C,K2*%
X57937000Y-100192000D02*
X57937000Y-98414000D01*
X57937000Y-111114000D02*
X57937000Y-109336000D01*
X59715000Y-111114000D02*
X57937000Y-111114000D01*
X70637000Y-111114000D02*
X68859000Y-111114000D01*
X70637000Y-109336000D02*
X70637000Y-111114000D01*
X70637000Y-98414000D02*
X70637000Y-100192000D01*
X68859000Y-98414000D02*
X70637000Y-98414000D01*
X57937000Y-98414000D02*
X59715000Y-98414000D01*
%TO.C,K3*%
X62699000Y-117462000D02*
X64477000Y-117462000D01*
X73621000Y-117462000D02*
X75399000Y-117462000D01*
X75399000Y-117462000D02*
X75399000Y-119240000D01*
X75399000Y-128384000D02*
X75399000Y-130162000D01*
X75399000Y-130162000D02*
X73621000Y-130162000D01*
X64477000Y-130162000D02*
X62699000Y-130162000D01*
X62699000Y-130162000D02*
X62699000Y-128384000D01*
X62699000Y-119240000D02*
X62699000Y-117462000D01*
%TO.C,K4*%
X57937000Y-136510000D02*
X59715000Y-136510000D01*
X68859000Y-136510000D02*
X70637000Y-136510000D01*
X70637000Y-136510000D02*
X70637000Y-138288000D01*
X70637000Y-147432000D02*
X70637000Y-149210000D01*
X70637000Y-149210000D02*
X68859000Y-149210000D01*
X59715000Y-149210000D02*
X57937000Y-149210000D01*
X57937000Y-149210000D02*
X57937000Y-147432000D01*
X57937000Y-138288000D02*
X57937000Y-136510000D01*
%TO.C,K5*%
X74604000Y-79366000D02*
X76382000Y-79366000D01*
X85526000Y-79366000D02*
X87304000Y-79366000D01*
X87304000Y-79366000D02*
X87304000Y-81144000D01*
X87304000Y-90288000D02*
X87304000Y-92066000D01*
X87304000Y-92066000D02*
X85526000Y-92066000D01*
X76382000Y-92066000D02*
X74604000Y-92066000D01*
X74604000Y-92066000D02*
X74604000Y-90288000D01*
X74604000Y-81144000D02*
X74604000Y-79366000D01*
%TO.C,K6*%
X79366000Y-98414000D02*
X81144000Y-98414000D01*
X90288000Y-98414000D02*
X92066000Y-98414000D01*
X92066000Y-98414000D02*
X92066000Y-100192000D01*
X92066000Y-109336000D02*
X92066000Y-111114000D01*
X92066000Y-111114000D02*
X90288000Y-111114000D01*
X81144000Y-111114000D02*
X79366000Y-111114000D01*
X79366000Y-111114000D02*
X79366000Y-109336000D01*
X79366000Y-100192000D02*
X79366000Y-98414000D01*
%TO.C,K7*%
X79366000Y-138288000D02*
X79366000Y-136510000D01*
X79366000Y-149210000D02*
X79366000Y-147432000D01*
X81144000Y-149210000D02*
X79366000Y-149210000D01*
X92066000Y-149210000D02*
X90288000Y-149210000D01*
X92066000Y-147432000D02*
X92066000Y-149210000D01*
X92066000Y-136510000D02*
X92066000Y-138288000D01*
X90288000Y-136510000D02*
X92066000Y-136510000D01*
X79366000Y-136510000D02*
X81144000Y-136510000D01*
%TO.C,K8*%
X93652000Y-81144000D02*
X93652000Y-79366000D01*
X93652000Y-92066000D02*
X93652000Y-90288000D01*
X95430000Y-92066000D02*
X93652000Y-92066000D01*
X106352000Y-92066000D02*
X104574000Y-92066000D01*
X106352000Y-90288000D02*
X106352000Y-92066000D01*
X106352000Y-79366000D02*
X106352000Y-81144000D01*
X104574000Y-79366000D02*
X106352000Y-79366000D01*
X93652000Y-79366000D02*
X95430000Y-79366000D01*
%TO.C,K9*%
X98414000Y-100192000D02*
X98414000Y-98414000D01*
X98414000Y-111114000D02*
X98414000Y-109336000D01*
X100192000Y-111114000D02*
X98414000Y-111114000D01*
X111114000Y-111114000D02*
X109336000Y-111114000D01*
X111114000Y-109336000D02*
X111114000Y-111114000D01*
X111114000Y-98414000D02*
X111114000Y-100192000D01*
X109336000Y-98414000D02*
X111114000Y-98414000D01*
X98414000Y-98414000D02*
X100192000Y-98414000D01*
%TO.C,K10*%
X88890000Y-119240000D02*
X88890000Y-117462000D01*
X88890000Y-130162000D02*
X88890000Y-128384000D01*
X90668000Y-130162000D02*
X88890000Y-130162000D01*
X101590000Y-130162000D02*
X99812000Y-130162000D01*
X101590000Y-128384000D02*
X101590000Y-130162000D01*
X101590000Y-117462000D02*
X101590000Y-119240000D01*
X99812000Y-117462000D02*
X101590000Y-117462000D01*
X88890000Y-117462000D02*
X90668000Y-117462000D01*
%TO.C,K11*%
X98414000Y-138288000D02*
X98414000Y-136510000D01*
X98414000Y-149210000D02*
X98414000Y-147432000D01*
X100192000Y-149210000D02*
X98414000Y-149210000D01*
X111114000Y-149210000D02*
X109336000Y-149210000D01*
X111114000Y-147432000D02*
X111114000Y-149210000D01*
X111114000Y-136510000D02*
X111114000Y-138288000D01*
X109336000Y-136510000D02*
X111114000Y-136510000D01*
X98414000Y-136510000D02*
X100192000Y-136510000D01*
%TO.C,K12*%
X112700000Y-79366000D02*
X114478000Y-79366000D01*
X123622000Y-79366000D02*
X125400000Y-79366000D01*
X125400000Y-79366000D02*
X125400000Y-81144000D01*
X125400000Y-90288000D02*
X125400000Y-92066000D01*
X125400000Y-92066000D02*
X123622000Y-92066000D01*
X114478000Y-92066000D02*
X112700000Y-92066000D01*
X112700000Y-92066000D02*
X112700000Y-90288000D01*
X112700000Y-81144000D02*
X112700000Y-79366000D01*
%TO.C,K13*%
X117462000Y-98414000D02*
X119240000Y-98414000D01*
X128384000Y-98414000D02*
X130162000Y-98414000D01*
X130162000Y-98414000D02*
X130162000Y-100192000D01*
X130162000Y-109336000D02*
X130162000Y-111114000D01*
X130162000Y-111114000D02*
X128384000Y-111114000D01*
X119240000Y-111114000D02*
X117462000Y-111114000D01*
X117462000Y-111114000D02*
X117462000Y-109336000D01*
X117462000Y-100192000D02*
X117462000Y-98414000D01*
%TO.C,K14*%
X107938000Y-117462000D02*
X109716000Y-117462000D01*
X118860000Y-117462000D02*
X120638000Y-117462000D01*
X120638000Y-117462000D02*
X120638000Y-119240000D01*
X120638000Y-128384000D02*
X120638000Y-130162000D01*
X120638000Y-130162000D02*
X118860000Y-130162000D01*
X109716000Y-130162000D02*
X107938000Y-130162000D01*
X107938000Y-130162000D02*
X107938000Y-128384000D01*
X107938000Y-119240000D02*
X107938000Y-117462000D01*
%TO.C,K15*%
X131748000Y-81144000D02*
X131748000Y-79366000D01*
X131748000Y-92066000D02*
X131748000Y-90288000D01*
X133526000Y-92066000D02*
X131748000Y-92066000D01*
X144448000Y-92066000D02*
X142670000Y-92066000D01*
X144448000Y-90288000D02*
X144448000Y-92066000D01*
X144448000Y-79366000D02*
X144448000Y-81144000D01*
X142670000Y-79366000D02*
X144448000Y-79366000D01*
X131748000Y-79366000D02*
X133526000Y-79366000D01*
%TO.C,K16*%
X136510000Y-100192000D02*
X136510000Y-98414000D01*
X136510000Y-111114000D02*
X136510000Y-109336000D01*
X138288000Y-111114000D02*
X136510000Y-111114000D01*
X149210000Y-111114000D02*
X147432000Y-111114000D01*
X149210000Y-109336000D02*
X149210000Y-111114000D01*
X149210000Y-98414000D02*
X149210000Y-100192000D01*
X147432000Y-98414000D02*
X149210000Y-98414000D01*
X136510000Y-98414000D02*
X138288000Y-98414000D01*
%TO.C,K17*%
X126986000Y-119240000D02*
X126986000Y-117462000D01*
X126986000Y-130162000D02*
X126986000Y-128384000D01*
X128764000Y-130162000D02*
X126986000Y-130162000D01*
X139686000Y-130162000D02*
X137908000Y-130162000D01*
X139686000Y-128384000D02*
X139686000Y-130162000D01*
X139686000Y-117462000D02*
X139686000Y-119240000D01*
X137908000Y-117462000D02*
X139686000Y-117462000D01*
X126986000Y-117462000D02*
X128764000Y-117462000D01*
%TO.C,K18*%
X150796000Y-79366000D02*
X152574000Y-79366000D01*
X161718000Y-79366000D02*
X163496000Y-79366000D01*
X163496000Y-79366000D02*
X163496000Y-81144000D01*
X163496000Y-90288000D02*
X163496000Y-92066000D01*
X163496000Y-92066000D02*
X161718000Y-92066000D01*
X152574000Y-92066000D02*
X150796000Y-92066000D01*
X150796000Y-92066000D02*
X150796000Y-90288000D01*
X150796000Y-81144000D02*
X150796000Y-79366000D01*
%TO.C,K19*%
X155558000Y-98414000D02*
X157336000Y-98414000D01*
X166480000Y-98414000D02*
X168258000Y-98414000D01*
X168258000Y-98414000D02*
X168258000Y-100192000D01*
X168258000Y-109336000D02*
X168258000Y-111114000D01*
X168258000Y-111114000D02*
X166480000Y-111114000D01*
X157336000Y-111114000D02*
X155558000Y-111114000D01*
X155558000Y-111114000D02*
X155558000Y-109336000D01*
X155558000Y-100192000D02*
X155558000Y-98414000D01*
%TO.C,K20*%
X146034000Y-117462000D02*
X147812000Y-117462000D01*
X156956000Y-117462000D02*
X158734000Y-117462000D01*
X158734000Y-117462000D02*
X158734000Y-119240000D01*
X158734000Y-128384000D02*
X158734000Y-130162000D01*
X158734000Y-130162000D02*
X156956000Y-130162000D01*
X147812000Y-130162000D02*
X146034000Y-130162000D01*
X146034000Y-130162000D02*
X146034000Y-128384000D01*
X146034000Y-119240000D02*
X146034000Y-117462000D01*
%TO.C,K22*%
X174606000Y-100192000D02*
X174606000Y-98414000D01*
X174606000Y-111114000D02*
X174606000Y-109336000D01*
X176384000Y-111114000D02*
X174606000Y-111114000D01*
X187306000Y-111114000D02*
X185528000Y-111114000D01*
X187306000Y-109336000D02*
X187306000Y-111114000D01*
X187306000Y-98414000D02*
X187306000Y-100192000D01*
X185528000Y-98414000D02*
X187306000Y-98414000D01*
X174606000Y-98414000D02*
X176384000Y-98414000D01*
%TO.C,K23*%
X165082000Y-117462000D02*
X166860000Y-117462000D01*
X176004000Y-117462000D02*
X177782000Y-117462000D01*
X177782000Y-117462000D02*
X177782000Y-119240000D01*
X177782000Y-128384000D02*
X177782000Y-130162000D01*
X177782000Y-130162000D02*
X176004000Y-130162000D01*
X166860000Y-130162000D02*
X165082000Y-130162000D01*
X165082000Y-130162000D02*
X165082000Y-128384000D01*
X165082000Y-119240000D02*
X165082000Y-117462000D01*
%TO.C,K25*%
X188892000Y-79366000D02*
X190670000Y-79366000D01*
X199814000Y-79366000D02*
X201592000Y-79366000D01*
X201592000Y-79366000D02*
X201592000Y-81144000D01*
X201592000Y-90288000D02*
X201592000Y-92066000D01*
X201592000Y-92066000D02*
X199814000Y-92066000D01*
X190670000Y-92066000D02*
X188892000Y-92066000D01*
X188892000Y-92066000D02*
X188892000Y-90288000D01*
X188892000Y-81144000D02*
X188892000Y-79366000D01*
%TO.C,K26*%
X193654000Y-98414000D02*
X195432000Y-98414000D01*
X204576000Y-98414000D02*
X206354000Y-98414000D01*
X206354000Y-98414000D02*
X206354000Y-100192000D01*
X206354000Y-109336000D02*
X206354000Y-111114000D01*
X206354000Y-111114000D02*
X204576000Y-111114000D01*
X195432000Y-111114000D02*
X193654000Y-111114000D01*
X193654000Y-111114000D02*
X193654000Y-109336000D01*
X193654000Y-100192000D02*
X193654000Y-98414000D01*
%TO.C,K27*%
X184130000Y-119240000D02*
X184130000Y-117462000D01*
X184130000Y-130162000D02*
X184130000Y-128384000D01*
X185908000Y-130162000D02*
X184130000Y-130162000D01*
X196830000Y-130162000D02*
X195052000Y-130162000D01*
X196830000Y-128384000D02*
X196830000Y-130162000D01*
X196830000Y-117462000D02*
X196830000Y-119240000D01*
X195052000Y-117462000D02*
X196830000Y-117462000D01*
X184130000Y-117462000D02*
X185908000Y-117462000D01*
%TO.C,K28*%
X207940000Y-81144000D02*
X207940000Y-79366000D01*
X207940000Y-92066000D02*
X207940000Y-90288000D01*
X209718000Y-92066000D02*
X207940000Y-92066000D01*
X220640000Y-92066000D02*
X218862000Y-92066000D01*
X220640000Y-90288000D02*
X220640000Y-92066000D01*
X220640000Y-79366000D02*
X220640000Y-81144000D01*
X218862000Y-79366000D02*
X220640000Y-79366000D01*
X207940000Y-79366000D02*
X209718000Y-79366000D01*
%TO.C,K29*%
X212702000Y-100192000D02*
X212702000Y-98414000D01*
X212702000Y-111114000D02*
X212702000Y-109336000D01*
X214480000Y-111114000D02*
X212702000Y-111114000D01*
X225402000Y-111114000D02*
X223624000Y-111114000D01*
X225402000Y-109336000D02*
X225402000Y-111114000D01*
X225402000Y-98414000D02*
X225402000Y-100192000D01*
X223624000Y-98414000D02*
X225402000Y-98414000D01*
X212702000Y-98414000D02*
X214480000Y-98414000D01*
%TO.C,K30*%
X203178000Y-117462000D02*
X204956000Y-117462000D01*
X214100000Y-117462000D02*
X215878000Y-117462000D01*
X215878000Y-117462000D02*
X215878000Y-119240000D01*
X215878000Y-128384000D02*
X215878000Y-130162000D01*
X215878000Y-130162000D02*
X214100000Y-130162000D01*
X204956000Y-130162000D02*
X203178000Y-130162000D01*
X203178000Y-130162000D02*
X203178000Y-128384000D01*
X203178000Y-119240000D02*
X203178000Y-117462000D01*
%TO.C,K31*%
X226988000Y-79366000D02*
X228766000Y-79366000D01*
X237910000Y-79366000D02*
X239688000Y-79366000D01*
X239688000Y-79366000D02*
X239688000Y-81144000D01*
X239688000Y-90288000D02*
X239688000Y-92066000D01*
X239688000Y-92066000D02*
X237910000Y-92066000D01*
X228766000Y-92066000D02*
X226988000Y-92066000D01*
X226988000Y-92066000D02*
X226988000Y-90288000D01*
X226988000Y-81144000D02*
X226988000Y-79366000D01*
%TO.C,K32*%
X231750000Y-98414000D02*
X233528000Y-98414000D01*
X242672000Y-98414000D02*
X244450000Y-98414000D01*
X244450000Y-98414000D02*
X244450000Y-100192000D01*
X244450000Y-109336000D02*
X244450000Y-111114000D01*
X244450000Y-111114000D02*
X242672000Y-111114000D01*
X233528000Y-111114000D02*
X231750000Y-111114000D01*
X231750000Y-111114000D02*
X231750000Y-109336000D01*
X231750000Y-100192000D02*
X231750000Y-98414000D01*
%TO.C,K33*%
X222226000Y-119240000D02*
X222226000Y-117462000D01*
X222226000Y-130162000D02*
X222226000Y-128384000D01*
X224004000Y-130162000D02*
X222226000Y-130162000D01*
X234926000Y-130162000D02*
X233148000Y-130162000D01*
X234926000Y-128384000D02*
X234926000Y-130162000D01*
X234926000Y-117462000D02*
X234926000Y-119240000D01*
X233148000Y-117462000D02*
X234926000Y-117462000D01*
X222226000Y-117462000D02*
X224004000Y-117462000D01*
%TO.C,K34*%
X246036000Y-81144000D02*
X246036000Y-79366000D01*
X246036000Y-92066000D02*
X246036000Y-90288000D01*
X247814000Y-92066000D02*
X246036000Y-92066000D01*
X258736000Y-92066000D02*
X256958000Y-92066000D01*
X258736000Y-90288000D02*
X258736000Y-92066000D01*
X258736000Y-79366000D02*
X258736000Y-81144000D01*
X256958000Y-79366000D02*
X258736000Y-79366000D01*
X246036000Y-79366000D02*
X247814000Y-79366000D01*
%TO.C,K35*%
X257941000Y-100192000D02*
X257941000Y-98414000D01*
X257941000Y-111114000D02*
X257941000Y-109336000D01*
X259719000Y-111114000D02*
X257941000Y-111114000D01*
X270641000Y-111114000D02*
X268863000Y-111114000D01*
X270641000Y-109336000D02*
X270641000Y-111114000D01*
X270641000Y-98414000D02*
X270641000Y-100192000D01*
X268863000Y-98414000D02*
X270641000Y-98414000D01*
X257941000Y-98414000D02*
X259719000Y-98414000D01*
%TO.C,K37*%
X238893000Y-138288000D02*
X238893000Y-136510000D01*
X238893000Y-149210000D02*
X238893000Y-147432000D01*
X240671000Y-149210000D02*
X238893000Y-149210000D01*
X251593000Y-149210000D02*
X249815000Y-149210000D01*
X251593000Y-147432000D02*
X251593000Y-149210000D01*
X251593000Y-136510000D02*
X251593000Y-138288000D01*
X249815000Y-136510000D02*
X251593000Y-136510000D01*
X238893000Y-136510000D02*
X240671000Y-136510000D01*
%TO.C,K38*%
X265084000Y-79366000D02*
X266862000Y-79366000D01*
X276006000Y-79366000D02*
X277784000Y-79366000D01*
X277784000Y-79366000D02*
X277784000Y-81144000D01*
X277784000Y-90288000D02*
X277784000Y-92066000D01*
X277784000Y-92066000D02*
X276006000Y-92066000D01*
X266862000Y-92066000D02*
X265084000Y-92066000D01*
X265084000Y-92066000D02*
X265084000Y-90288000D01*
X265084000Y-81144000D02*
X265084000Y-79366000D01*
%TO.C,K39*%
X262703000Y-136510000D02*
X264481000Y-136510000D01*
X273625000Y-136510000D02*
X275403000Y-136510000D01*
X275403000Y-136510000D02*
X275403000Y-138288000D01*
X275403000Y-147432000D02*
X275403000Y-149210000D01*
X275403000Y-149210000D02*
X273625000Y-149210000D01*
X264481000Y-149210000D02*
X262703000Y-149210000D01*
X262703000Y-149210000D02*
X262703000Y-147432000D01*
X262703000Y-138288000D02*
X262703000Y-136510000D01*
%TO.C,OL1*%
D15*
X38119857Y-128026380D02*
X38310333Y-128026380D01*
X38405571Y-128074000D01*
X38500809Y-128169238D01*
X38548428Y-128359714D01*
X38548428Y-128693047D01*
X38500809Y-128883523D01*
X38405571Y-128978761D01*
X38310333Y-129026380D01*
X38119857Y-129026380D01*
X38024619Y-128978761D01*
X37929380Y-128883523D01*
X37881761Y-128693047D01*
X37881761Y-128359714D01*
X37929380Y-128169238D01*
X38024619Y-128074000D01*
X38119857Y-128026380D01*
X38881761Y-128359714D02*
X39072238Y-129026380D01*
X39262714Y-128550190D01*
X39453190Y-129026380D01*
X39643666Y-128359714D01*
X40167476Y-129026380D02*
X40072238Y-128978761D01*
X40024619Y-128931142D01*
X39977000Y-128835904D01*
X39977000Y-128550190D01*
X40024619Y-128454952D01*
X40072238Y-128407333D01*
X40167476Y-128359714D01*
X40310333Y-128359714D01*
X40405571Y-128407333D01*
X40453190Y-128454952D01*
X40500809Y-128550190D01*
X40500809Y-128835904D01*
X40453190Y-128931142D01*
X40405571Y-128978761D01*
X40310333Y-129026380D01*
X40167476Y-129026380D01*
X41405571Y-129026380D02*
X40929380Y-129026380D01*
X40929380Y-128026380D01*
X42119857Y-128978761D02*
X42024619Y-129026380D01*
X41834142Y-129026380D01*
X41738904Y-128978761D01*
X41691285Y-128883523D01*
X41691285Y-128502571D01*
X41738904Y-128407333D01*
X41834142Y-128359714D01*
X42024619Y-128359714D01*
X42119857Y-128407333D01*
X42167476Y-128502571D01*
X42167476Y-128597809D01*
X41691285Y-128693047D01*
X43024619Y-129026380D02*
X43024619Y-128026380D01*
X43024619Y-128978761D02*
X42929380Y-129026380D01*
X42738904Y-129026380D01*
X42643666Y-128978761D01*
X42596047Y-128931142D01*
X42548428Y-128835904D01*
X42548428Y-128550190D01*
X42596047Y-128454952D01*
X42643666Y-128407333D01*
X42738904Y-128359714D01*
X42929380Y-128359714D01*
X43024619Y-128407333D01*
%TD*%
M02*
