%TF.GenerationSoftware,KiCad,Pcbnew,(5.1.10)-1*%
%TF.CreationDate,2022-03-22T21:52:09-04:00*%
%TF.ProjectId,Keeber40,4b656562-6572-4343-902e-6b696361645f,rev?*%
%TF.SameCoordinates,Original*%
%TF.FileFunction,Legend,Bot*%
%TF.FilePolarity,Positive*%
%FSLAX46Y46*%
G04 Gerber Fmt 4.6, Leading zero omitted, Abs format (unit mm)*
G04 Created by KiCad (PCBNEW (5.1.10)-1) date 2022-03-22 21:52:09*
%MOMM*%
%LPD*%
G01*
G04 APERTURE LIST*
%ADD10C,0.120000*%
%ADD11C,0.200000*%
%ADD12C,0.150000*%
G04 APERTURE END LIST*
D10*
%TO.C,PicOwo*%
X50977000Y-76883000D02*
X29977000Y-76883000D01*
X44177000Y-127883000D02*
X50977000Y-127883000D01*
X50977000Y-79550000D02*
X47970000Y-79550000D01*
X47970000Y-79550000D02*
X47970000Y-76883000D01*
X50977000Y-76883000D02*
X50977000Y-77183000D01*
X50977000Y-79283000D02*
X50977000Y-79683000D01*
X50977000Y-81883000D02*
X50977000Y-82283000D01*
X50977000Y-84383000D02*
X50977000Y-84783000D01*
X50977000Y-86983000D02*
X50977000Y-87383000D01*
X50977000Y-89483000D02*
X50977000Y-89883000D01*
X50977000Y-91983000D02*
X50977000Y-92383000D01*
X50977000Y-94583000D02*
X50977000Y-94983000D01*
X50977000Y-97083000D02*
X50977000Y-97483000D01*
X50977000Y-99683000D02*
X50977000Y-100083000D01*
X50977000Y-102183000D02*
X50977000Y-102583000D01*
X50977000Y-104683000D02*
X50977000Y-105083000D01*
X50977000Y-107283000D02*
X50977000Y-107683000D01*
X50977000Y-109783000D02*
X50977000Y-110183000D01*
X50977000Y-112383000D02*
X50977000Y-112783000D01*
X50977000Y-114883000D02*
X50977000Y-115283000D01*
X50977000Y-117483000D02*
X50977000Y-117883000D01*
X50977000Y-119983000D02*
X50977000Y-120383000D01*
X50977000Y-122483000D02*
X50977000Y-122883000D01*
X50977000Y-125083000D02*
X50977000Y-125483000D01*
X29977000Y-91983000D02*
X29977000Y-92383000D01*
X29977000Y-97083000D02*
X29977000Y-97483000D01*
X29977000Y-104683000D02*
X29977000Y-105083000D01*
X29977000Y-112383000D02*
X29977000Y-112783000D01*
X29977000Y-81883000D02*
X29977000Y-82283000D01*
X29977000Y-79283000D02*
X29977000Y-79683000D01*
X29977000Y-86983000D02*
X29977000Y-87383000D01*
X29977000Y-119983000D02*
X29977000Y-120383000D01*
X29977000Y-125083000D02*
X29977000Y-125483000D01*
X29977000Y-122483000D02*
X29977000Y-122883000D01*
X29977000Y-107283000D02*
X29977000Y-107683000D01*
X29977000Y-102183000D02*
X29977000Y-102583000D01*
X29977000Y-89483000D02*
X29977000Y-89883000D01*
X29977000Y-94583000D02*
X29977000Y-94983000D01*
X29977000Y-114883000D02*
X29977000Y-115283000D01*
X29977000Y-99683000D02*
X29977000Y-100083000D01*
X29977000Y-76883000D02*
X29977000Y-77183000D01*
X29977000Y-84383000D02*
X29977000Y-84783000D01*
X29977000Y-109783000D02*
X29977000Y-110183000D01*
X29977000Y-117483000D02*
X29977000Y-117883000D01*
X29977000Y-127883000D02*
X36777000Y-127883000D01*
X41977000Y-127883000D02*
X41577000Y-127883000D01*
X39377000Y-127883000D02*
X38977000Y-127883000D01*
D11*
%TO.C,D1*%
X64981000Y-91678000D02*
X64981000Y-89278000D01*
X64706000Y-89278000D02*
X64706000Y-91678000D01*
X64831000Y-89278000D02*
X64831000Y-91678000D01*
X65106000Y-89278000D02*
X59106000Y-89278000D01*
X59106000Y-89278000D02*
X59106000Y-91678000D01*
X59106000Y-91678000D02*
X65106000Y-91678000D01*
X65106000Y-91678000D02*
X65106000Y-89278000D01*
%TO.C,D2*%
X67362000Y-110726000D02*
X67362000Y-108326000D01*
X67087000Y-108326000D02*
X67087000Y-110726000D01*
X67212000Y-108326000D02*
X67212000Y-110726000D01*
X67487000Y-108326000D02*
X61487000Y-108326000D01*
X61487000Y-108326000D02*
X61487000Y-110726000D01*
X61487000Y-110726000D02*
X67487000Y-110726000D01*
X67487000Y-110726000D02*
X67487000Y-108326000D01*
%TO.C,D3*%
X72124000Y-129774000D02*
X72124000Y-127374000D01*
X71849000Y-127374000D02*
X71849000Y-129774000D01*
X71974000Y-127374000D02*
X71974000Y-129774000D01*
X72249000Y-127374000D02*
X66249000Y-127374000D01*
X66249000Y-127374000D02*
X66249000Y-129774000D01*
X66249000Y-129774000D02*
X72249000Y-129774000D01*
X72249000Y-129774000D02*
X72249000Y-127374000D01*
%TO.C,D4*%
X67487000Y-148822000D02*
X67487000Y-146422000D01*
X61487000Y-148822000D02*
X67487000Y-148822000D01*
X61487000Y-146422000D02*
X61487000Y-148822000D01*
X67487000Y-146422000D02*
X61487000Y-146422000D01*
X67212000Y-146422000D02*
X67212000Y-148822000D01*
X67087000Y-146422000D02*
X67087000Y-148822000D01*
X67362000Y-148822000D02*
X67362000Y-146422000D01*
%TO.C,D5*%
X84154000Y-91678000D02*
X84154000Y-89278000D01*
X78154000Y-91678000D02*
X84154000Y-91678000D01*
X78154000Y-89278000D02*
X78154000Y-91678000D01*
X84154000Y-89278000D02*
X78154000Y-89278000D01*
X83879000Y-89278000D02*
X83879000Y-91678000D01*
X83754000Y-89278000D02*
X83754000Y-91678000D01*
X84029000Y-91678000D02*
X84029000Y-89278000D01*
%TO.C,D6*%
X88916000Y-110726000D02*
X88916000Y-108326000D01*
X82916000Y-110726000D02*
X88916000Y-110726000D01*
X82916000Y-108326000D02*
X82916000Y-110726000D01*
X88916000Y-108326000D02*
X82916000Y-108326000D01*
X88641000Y-108326000D02*
X88641000Y-110726000D01*
X88516000Y-108326000D02*
X88516000Y-110726000D01*
X88791000Y-110726000D02*
X88791000Y-108326000D01*
%TO.C,D7*%
X88791000Y-148822000D02*
X88791000Y-146422000D01*
X88516000Y-146422000D02*
X88516000Y-148822000D01*
X88641000Y-146422000D02*
X88641000Y-148822000D01*
X88916000Y-146422000D02*
X82916000Y-146422000D01*
X82916000Y-146422000D02*
X82916000Y-148822000D01*
X82916000Y-148822000D02*
X88916000Y-148822000D01*
X88916000Y-148822000D02*
X88916000Y-146422000D01*
%TO.C,D8*%
X103077000Y-91678000D02*
X103077000Y-89278000D01*
X102802000Y-89278000D02*
X102802000Y-91678000D01*
X102927000Y-89278000D02*
X102927000Y-91678000D01*
X103202000Y-89278000D02*
X97202000Y-89278000D01*
X97202000Y-89278000D02*
X97202000Y-91678000D01*
X97202000Y-91678000D02*
X103202000Y-91678000D01*
X103202000Y-91678000D02*
X103202000Y-89278000D01*
%TO.C,D9*%
X107839000Y-110726000D02*
X107839000Y-108326000D01*
X107564000Y-108326000D02*
X107564000Y-110726000D01*
X107689000Y-108326000D02*
X107689000Y-110726000D01*
X107964000Y-108326000D02*
X101964000Y-108326000D01*
X101964000Y-108326000D02*
X101964000Y-110726000D01*
X101964000Y-110726000D02*
X107964000Y-110726000D01*
X107964000Y-110726000D02*
X107964000Y-108326000D01*
%TO.C,D10*%
X98440000Y-129774000D02*
X98440000Y-127374000D01*
X92440000Y-129774000D02*
X98440000Y-129774000D01*
X92440000Y-127374000D02*
X92440000Y-129774000D01*
X98440000Y-127374000D02*
X92440000Y-127374000D01*
X98165000Y-127374000D02*
X98165000Y-129774000D01*
X98040000Y-127374000D02*
X98040000Y-129774000D01*
X98315000Y-129774000D02*
X98315000Y-127374000D01*
%TO.C,D11*%
X107964000Y-148822000D02*
X107964000Y-146422000D01*
X101964000Y-148822000D02*
X107964000Y-148822000D01*
X101964000Y-146422000D02*
X101964000Y-148822000D01*
X107964000Y-146422000D02*
X101964000Y-146422000D01*
X107689000Y-146422000D02*
X107689000Y-148822000D01*
X107564000Y-146422000D02*
X107564000Y-148822000D01*
X107839000Y-148822000D02*
X107839000Y-146422000D01*
%TO.C,D12*%
X122250000Y-91678000D02*
X122250000Y-89278000D01*
X116250000Y-91678000D02*
X122250000Y-91678000D01*
X116250000Y-89278000D02*
X116250000Y-91678000D01*
X122250000Y-89278000D02*
X116250000Y-89278000D01*
X121975000Y-89278000D02*
X121975000Y-91678000D01*
X121850000Y-89278000D02*
X121850000Y-91678000D01*
X122125000Y-91678000D02*
X122125000Y-89278000D01*
%TO.C,D13*%
X127012000Y-110726000D02*
X127012000Y-108326000D01*
X121012000Y-110726000D02*
X127012000Y-110726000D01*
X121012000Y-108326000D02*
X121012000Y-110726000D01*
X127012000Y-108326000D02*
X121012000Y-108326000D01*
X126737000Y-108326000D02*
X126737000Y-110726000D01*
X126612000Y-108326000D02*
X126612000Y-110726000D01*
X126887000Y-110726000D02*
X126887000Y-108326000D01*
%TO.C,D14*%
X117363000Y-129774000D02*
X117363000Y-127374000D01*
X117088000Y-127374000D02*
X117088000Y-129774000D01*
X117213000Y-127374000D02*
X117213000Y-129774000D01*
X117488000Y-127374000D02*
X111488000Y-127374000D01*
X111488000Y-127374000D02*
X111488000Y-129774000D01*
X111488000Y-129774000D02*
X117488000Y-129774000D01*
X117488000Y-129774000D02*
X117488000Y-127374000D01*
%TO.C,D15*%
X141173000Y-91678000D02*
X141173000Y-89278000D01*
X140898000Y-89278000D02*
X140898000Y-91678000D01*
X141023000Y-89278000D02*
X141023000Y-91678000D01*
X141298000Y-89278000D02*
X135298000Y-89278000D01*
X135298000Y-89278000D02*
X135298000Y-91678000D01*
X135298000Y-91678000D02*
X141298000Y-91678000D01*
X141298000Y-91678000D02*
X141298000Y-89278000D01*
%TO.C,D16*%
X145935000Y-110726000D02*
X145935000Y-108326000D01*
X145660000Y-108326000D02*
X145660000Y-110726000D01*
X145785000Y-108326000D02*
X145785000Y-110726000D01*
X146060000Y-108326000D02*
X140060000Y-108326000D01*
X140060000Y-108326000D02*
X140060000Y-110726000D01*
X140060000Y-110726000D02*
X146060000Y-110726000D01*
X146060000Y-110726000D02*
X146060000Y-108326000D01*
%TO.C,D17*%
X136411000Y-129774000D02*
X136411000Y-127374000D01*
X136136000Y-127374000D02*
X136136000Y-129774000D01*
X136261000Y-127374000D02*
X136261000Y-129774000D01*
X136536000Y-127374000D02*
X130536000Y-127374000D01*
X130536000Y-127374000D02*
X130536000Y-129774000D01*
X130536000Y-129774000D02*
X136536000Y-129774000D01*
X136536000Y-129774000D02*
X136536000Y-127374000D01*
%TO.C,D18*%
X160346000Y-91678000D02*
X160346000Y-89278000D01*
X154346000Y-91678000D02*
X160346000Y-91678000D01*
X154346000Y-89278000D02*
X154346000Y-91678000D01*
X160346000Y-89278000D02*
X154346000Y-89278000D01*
X160071000Y-89278000D02*
X160071000Y-91678000D01*
X159946000Y-89278000D02*
X159946000Y-91678000D01*
X160221000Y-91678000D02*
X160221000Y-89278000D01*
%TO.C,D19*%
X165108000Y-110726000D02*
X165108000Y-108326000D01*
X159108000Y-110726000D02*
X165108000Y-110726000D01*
X159108000Y-108326000D02*
X159108000Y-110726000D01*
X165108000Y-108326000D02*
X159108000Y-108326000D01*
X164833000Y-108326000D02*
X164833000Y-110726000D01*
X164708000Y-108326000D02*
X164708000Y-110726000D01*
X164983000Y-110726000D02*
X164983000Y-108326000D01*
%TO.C,D20*%
X155584000Y-129774000D02*
X155584000Y-127374000D01*
X149584000Y-129774000D02*
X155584000Y-129774000D01*
X149584000Y-127374000D02*
X149584000Y-129774000D01*
X155584000Y-127374000D02*
X149584000Y-127374000D01*
X155309000Y-127374000D02*
X155309000Y-129774000D01*
X155184000Y-127374000D02*
X155184000Y-129774000D01*
X155459000Y-129774000D02*
X155459000Y-127374000D01*
%TO.C,D21*%
X179269000Y-91678000D02*
X179269000Y-89278000D01*
X178994000Y-89278000D02*
X178994000Y-91678000D01*
X179119000Y-89278000D02*
X179119000Y-91678000D01*
X179394000Y-89278000D02*
X173394000Y-89278000D01*
X173394000Y-89278000D02*
X173394000Y-91678000D01*
X173394000Y-91678000D02*
X179394000Y-91678000D01*
X179394000Y-91678000D02*
X179394000Y-89278000D01*
%TO.C,D22*%
X184156000Y-110726000D02*
X184156000Y-108326000D01*
X178156000Y-110726000D02*
X184156000Y-110726000D01*
X178156000Y-108326000D02*
X178156000Y-110726000D01*
X184156000Y-108326000D02*
X178156000Y-108326000D01*
X183881000Y-108326000D02*
X183881000Y-110726000D01*
X183756000Y-108326000D02*
X183756000Y-110726000D01*
X184031000Y-110726000D02*
X184031000Y-108326000D01*
%TO.C,D23*%
X174632000Y-129774000D02*
X174632000Y-127374000D01*
X168632000Y-129774000D02*
X174632000Y-129774000D01*
X168632000Y-127374000D02*
X168632000Y-129774000D01*
X174632000Y-127374000D02*
X168632000Y-127374000D01*
X174357000Y-127374000D02*
X174357000Y-129774000D01*
X174232000Y-127374000D02*
X174232000Y-129774000D01*
X174507000Y-129774000D02*
X174507000Y-127374000D01*
%TO.C,D24*%
X176888000Y-148822000D02*
X176888000Y-146422000D01*
X176613000Y-146422000D02*
X176613000Y-148822000D01*
X176738000Y-146422000D02*
X176738000Y-148822000D01*
X177013000Y-146422000D02*
X171013000Y-146422000D01*
X171013000Y-146422000D02*
X171013000Y-148822000D01*
X171013000Y-148822000D02*
X177013000Y-148822000D01*
X177013000Y-148822000D02*
X177013000Y-146422000D01*
%TO.C,D25*%
X198442000Y-91678000D02*
X198442000Y-89278000D01*
X192442000Y-91678000D02*
X198442000Y-91678000D01*
X192442000Y-89278000D02*
X192442000Y-91678000D01*
X198442000Y-89278000D02*
X192442000Y-89278000D01*
X198167000Y-89278000D02*
X198167000Y-91678000D01*
X198042000Y-89278000D02*
X198042000Y-91678000D01*
X198317000Y-91678000D02*
X198317000Y-89278000D01*
%TO.C,D26*%
X203079000Y-110726000D02*
X203079000Y-108326000D01*
X202804000Y-108326000D02*
X202804000Y-110726000D01*
X202929000Y-108326000D02*
X202929000Y-110726000D01*
X203204000Y-108326000D02*
X197204000Y-108326000D01*
X197204000Y-108326000D02*
X197204000Y-110726000D01*
X197204000Y-110726000D02*
X203204000Y-110726000D01*
X203204000Y-110726000D02*
X203204000Y-108326000D01*
%TO.C,D27*%
X193555000Y-129774000D02*
X193555000Y-127374000D01*
X193280000Y-127374000D02*
X193280000Y-129774000D01*
X193405000Y-127374000D02*
X193405000Y-129774000D01*
X193680000Y-127374000D02*
X187680000Y-127374000D01*
X187680000Y-127374000D02*
X187680000Y-129774000D01*
X187680000Y-129774000D02*
X193680000Y-129774000D01*
X193680000Y-129774000D02*
X193680000Y-127374000D01*
%TO.C,D28*%
X217365000Y-91678000D02*
X217365000Y-89278000D01*
X217090000Y-89278000D02*
X217090000Y-91678000D01*
X217215000Y-89278000D02*
X217215000Y-91678000D01*
X217490000Y-89278000D02*
X211490000Y-89278000D01*
X211490000Y-89278000D02*
X211490000Y-91678000D01*
X211490000Y-91678000D02*
X217490000Y-91678000D01*
X217490000Y-91678000D02*
X217490000Y-89278000D01*
%TO.C,D29*%
X222252000Y-110726000D02*
X222252000Y-108326000D01*
X216252000Y-110726000D02*
X222252000Y-110726000D01*
X216252000Y-108326000D02*
X216252000Y-110726000D01*
X222252000Y-108326000D02*
X216252000Y-108326000D01*
X221977000Y-108326000D02*
X221977000Y-110726000D01*
X221852000Y-108326000D02*
X221852000Y-110726000D01*
X222127000Y-110726000D02*
X222127000Y-108326000D01*
%TO.C,D30*%
X212728000Y-129774000D02*
X212728000Y-127374000D01*
X206728000Y-129774000D02*
X212728000Y-129774000D01*
X206728000Y-127374000D02*
X206728000Y-129774000D01*
X212728000Y-127374000D02*
X206728000Y-127374000D01*
X212453000Y-127374000D02*
X212453000Y-129774000D01*
X212328000Y-127374000D02*
X212328000Y-129774000D01*
X212603000Y-129774000D02*
X212603000Y-127374000D01*
%TO.C,D31*%
X236538000Y-91678000D02*
X236538000Y-89278000D01*
X230538000Y-91678000D02*
X236538000Y-91678000D01*
X230538000Y-89278000D02*
X230538000Y-91678000D01*
X236538000Y-89278000D02*
X230538000Y-89278000D01*
X236263000Y-89278000D02*
X236263000Y-91678000D01*
X236138000Y-89278000D02*
X236138000Y-91678000D01*
X236413000Y-91678000D02*
X236413000Y-89278000D01*
%TO.C,D32*%
X241175000Y-110726000D02*
X241175000Y-108326000D01*
X240900000Y-108326000D02*
X240900000Y-110726000D01*
X241025000Y-108326000D02*
X241025000Y-110726000D01*
X241300000Y-108326000D02*
X235300000Y-108326000D01*
X235300000Y-108326000D02*
X235300000Y-110726000D01*
X235300000Y-110726000D02*
X241300000Y-110726000D01*
X241300000Y-110726000D02*
X241300000Y-108326000D01*
%TO.C,D33*%
X231651000Y-129774000D02*
X231651000Y-127374000D01*
X231376000Y-127374000D02*
X231376000Y-129774000D01*
X231501000Y-127374000D02*
X231501000Y-129774000D01*
X231776000Y-127374000D02*
X225776000Y-127374000D01*
X225776000Y-127374000D02*
X225776000Y-129774000D01*
X225776000Y-129774000D02*
X231776000Y-129774000D01*
X231776000Y-129774000D02*
X231776000Y-127374000D01*
%TO.C,D34*%
X255461000Y-91678000D02*
X255461000Y-89278000D01*
X255186000Y-89278000D02*
X255186000Y-91678000D01*
X255311000Y-89278000D02*
X255311000Y-91678000D01*
X255586000Y-89278000D02*
X249586000Y-89278000D01*
X249586000Y-89278000D02*
X249586000Y-91678000D01*
X249586000Y-91678000D02*
X255586000Y-91678000D01*
X255586000Y-91678000D02*
X255586000Y-89278000D01*
%TO.C,D35*%
X267366000Y-110726000D02*
X267366000Y-108326000D01*
X267091000Y-108326000D02*
X267091000Y-110726000D01*
X267216000Y-108326000D02*
X267216000Y-110726000D01*
X267491000Y-108326000D02*
X261491000Y-108326000D01*
X261491000Y-108326000D02*
X261491000Y-110726000D01*
X261491000Y-110726000D02*
X267491000Y-110726000D01*
X267491000Y-110726000D02*
X267491000Y-108326000D01*
%TO.C,D36*%
X262729000Y-129774000D02*
X262729000Y-127374000D01*
X256729000Y-129774000D02*
X262729000Y-129774000D01*
X256729000Y-127374000D02*
X256729000Y-129774000D01*
X262729000Y-127374000D02*
X256729000Y-127374000D01*
X262454000Y-127374000D02*
X262454000Y-129774000D01*
X262329000Y-127374000D02*
X262329000Y-129774000D01*
X262604000Y-129774000D02*
X262604000Y-127374000D01*
%TO.C,D37*%
X248443000Y-148822000D02*
X248443000Y-146422000D01*
X242443000Y-148822000D02*
X248443000Y-148822000D01*
X242443000Y-146422000D02*
X242443000Y-148822000D01*
X248443000Y-146422000D02*
X242443000Y-146422000D01*
X248168000Y-146422000D02*
X248168000Y-148822000D01*
X248043000Y-146422000D02*
X248043000Y-148822000D01*
X248318000Y-148822000D02*
X248318000Y-146422000D01*
%TO.C,D38*%
X274634000Y-91678000D02*
X274634000Y-89278000D01*
X268634000Y-91678000D02*
X274634000Y-91678000D01*
X268634000Y-89278000D02*
X268634000Y-91678000D01*
X274634000Y-89278000D02*
X268634000Y-89278000D01*
X274359000Y-89278000D02*
X274359000Y-91678000D01*
X274234000Y-89278000D02*
X274234000Y-91678000D01*
X274509000Y-91678000D02*
X274509000Y-89278000D01*
%TO.C,D39*%
X272253000Y-148822000D02*
X272253000Y-146422000D01*
X266253000Y-148822000D02*
X272253000Y-148822000D01*
X266253000Y-146422000D02*
X266253000Y-148822000D01*
X272253000Y-146422000D02*
X266253000Y-146422000D01*
X271978000Y-146422000D02*
X271978000Y-148822000D01*
X271853000Y-146422000D02*
X271853000Y-148822000D01*
X272128000Y-148822000D02*
X272128000Y-146422000D01*
D10*
%TO.C,Reset*%
X46489000Y-135348000D02*
X43989000Y-135348000D01*
X47989000Y-137098000D02*
X47989000Y-139098000D01*
X46489000Y-140848000D02*
X43989000Y-140848000D01*
X42489000Y-137098000D02*
X42489000Y-139098000D01*
X46939000Y-135798000D02*
X46489000Y-135348000D01*
X43539000Y-135798000D02*
X43989000Y-135348000D01*
X43539000Y-140398000D02*
X43989000Y-140848000D01*
X46939000Y-140398000D02*
X46489000Y-140848000D01*
%TO.C,PicOwo*%
D12*
X42905571Y-102835380D02*
X42905571Y-101835380D01*
X42524619Y-101835380D01*
X42429380Y-101883000D01*
X42381761Y-101930619D01*
X42334142Y-102025857D01*
X42334142Y-102168714D01*
X42381761Y-102263952D01*
X42429380Y-102311571D01*
X42524619Y-102359190D01*
X42905571Y-102359190D01*
X41905571Y-102835380D02*
X41905571Y-102168714D01*
X41905571Y-101835380D02*
X41953190Y-101883000D01*
X41905571Y-101930619D01*
X41857952Y-101883000D01*
X41905571Y-101835380D01*
X41905571Y-101930619D01*
X41000809Y-102787761D02*
X41096047Y-102835380D01*
X41286523Y-102835380D01*
X41381761Y-102787761D01*
X41429380Y-102740142D01*
X41477000Y-102644904D01*
X41477000Y-102359190D01*
X41429380Y-102263952D01*
X41381761Y-102216333D01*
X41286523Y-102168714D01*
X41096047Y-102168714D01*
X41000809Y-102216333D01*
X40381761Y-101835380D02*
X40191285Y-101835380D01*
X40096047Y-101883000D01*
X40000809Y-101978238D01*
X39953190Y-102168714D01*
X39953190Y-102502047D01*
X40000809Y-102692523D01*
X40096047Y-102787761D01*
X40191285Y-102835380D01*
X40381761Y-102835380D01*
X40477000Y-102787761D01*
X40572238Y-102692523D01*
X40619857Y-102502047D01*
X40619857Y-102168714D01*
X40572238Y-101978238D01*
X40477000Y-101883000D01*
X40381761Y-101835380D01*
X39619857Y-102168714D02*
X39429380Y-102835380D01*
X39238904Y-102359190D01*
X39048428Y-102835380D01*
X38857952Y-102168714D01*
X38334142Y-102835380D02*
X38429380Y-102787761D01*
X38477000Y-102740142D01*
X38524619Y-102644904D01*
X38524619Y-102359190D01*
X38477000Y-102263952D01*
X38429380Y-102216333D01*
X38334142Y-102168714D01*
X38191285Y-102168714D01*
X38096047Y-102216333D01*
X38048428Y-102263952D01*
X38000809Y-102359190D01*
X38000809Y-102644904D01*
X38048428Y-102740142D01*
X38096047Y-102787761D01*
X38191285Y-102835380D01*
X38334142Y-102835380D01*
%TO.C,D1*%
X62496476Y-92764904D02*
X62496476Y-91964904D01*
X62306000Y-91964904D01*
X62191714Y-92003000D01*
X62115523Y-92079190D01*
X62077428Y-92155380D01*
X62039333Y-92307761D01*
X62039333Y-92422047D01*
X62077428Y-92574428D01*
X62115523Y-92650619D01*
X62191714Y-92726809D01*
X62306000Y-92764904D01*
X62496476Y-92764904D01*
X61277428Y-92764904D02*
X61734571Y-92764904D01*
X61506000Y-92764904D02*
X61506000Y-91964904D01*
X61582190Y-92079190D01*
X61658380Y-92155380D01*
X61734571Y-92193476D01*
%TO.C,D2*%
X64877476Y-111812904D02*
X64877476Y-111012904D01*
X64687000Y-111012904D01*
X64572714Y-111051000D01*
X64496523Y-111127190D01*
X64458428Y-111203380D01*
X64420333Y-111355761D01*
X64420333Y-111470047D01*
X64458428Y-111622428D01*
X64496523Y-111698619D01*
X64572714Y-111774809D01*
X64687000Y-111812904D01*
X64877476Y-111812904D01*
X64115571Y-111089095D02*
X64077476Y-111051000D01*
X64001285Y-111012904D01*
X63810809Y-111012904D01*
X63734619Y-111051000D01*
X63696523Y-111089095D01*
X63658428Y-111165285D01*
X63658428Y-111241476D01*
X63696523Y-111355761D01*
X64153666Y-111812904D01*
X63658428Y-111812904D01*
%TO.C,D3*%
X69639476Y-130860904D02*
X69639476Y-130060904D01*
X69449000Y-130060904D01*
X69334714Y-130099000D01*
X69258523Y-130175190D01*
X69220428Y-130251380D01*
X69182333Y-130403761D01*
X69182333Y-130518047D01*
X69220428Y-130670428D01*
X69258523Y-130746619D01*
X69334714Y-130822809D01*
X69449000Y-130860904D01*
X69639476Y-130860904D01*
X68915666Y-130060904D02*
X68420428Y-130060904D01*
X68687095Y-130365666D01*
X68572809Y-130365666D01*
X68496619Y-130403761D01*
X68458523Y-130441857D01*
X68420428Y-130518047D01*
X68420428Y-130708523D01*
X68458523Y-130784714D01*
X68496619Y-130822809D01*
X68572809Y-130860904D01*
X68801380Y-130860904D01*
X68877571Y-130822809D01*
X68915666Y-130784714D01*
%TO.C,D4*%
X64877476Y-149908904D02*
X64877476Y-149108904D01*
X64687000Y-149108904D01*
X64572714Y-149147000D01*
X64496523Y-149223190D01*
X64458428Y-149299380D01*
X64420333Y-149451761D01*
X64420333Y-149566047D01*
X64458428Y-149718428D01*
X64496523Y-149794619D01*
X64572714Y-149870809D01*
X64687000Y-149908904D01*
X64877476Y-149908904D01*
X63734619Y-149375571D02*
X63734619Y-149908904D01*
X63925095Y-149070809D02*
X64115571Y-149642238D01*
X63620333Y-149642238D01*
%TO.C,D5*%
X81544476Y-92764904D02*
X81544476Y-91964904D01*
X81354000Y-91964904D01*
X81239714Y-92003000D01*
X81163523Y-92079190D01*
X81125428Y-92155380D01*
X81087333Y-92307761D01*
X81087333Y-92422047D01*
X81125428Y-92574428D01*
X81163523Y-92650619D01*
X81239714Y-92726809D01*
X81354000Y-92764904D01*
X81544476Y-92764904D01*
X80363523Y-91964904D02*
X80744476Y-91964904D01*
X80782571Y-92345857D01*
X80744476Y-92307761D01*
X80668285Y-92269666D01*
X80477809Y-92269666D01*
X80401619Y-92307761D01*
X80363523Y-92345857D01*
X80325428Y-92422047D01*
X80325428Y-92612523D01*
X80363523Y-92688714D01*
X80401619Y-92726809D01*
X80477809Y-92764904D01*
X80668285Y-92764904D01*
X80744476Y-92726809D01*
X80782571Y-92688714D01*
%TO.C,D6*%
X86306476Y-111812904D02*
X86306476Y-111012904D01*
X86116000Y-111012904D01*
X86001714Y-111051000D01*
X85925523Y-111127190D01*
X85887428Y-111203380D01*
X85849333Y-111355761D01*
X85849333Y-111470047D01*
X85887428Y-111622428D01*
X85925523Y-111698619D01*
X86001714Y-111774809D01*
X86116000Y-111812904D01*
X86306476Y-111812904D01*
X85163619Y-111012904D02*
X85316000Y-111012904D01*
X85392190Y-111051000D01*
X85430285Y-111089095D01*
X85506476Y-111203380D01*
X85544571Y-111355761D01*
X85544571Y-111660523D01*
X85506476Y-111736714D01*
X85468380Y-111774809D01*
X85392190Y-111812904D01*
X85239809Y-111812904D01*
X85163619Y-111774809D01*
X85125523Y-111736714D01*
X85087428Y-111660523D01*
X85087428Y-111470047D01*
X85125523Y-111393857D01*
X85163619Y-111355761D01*
X85239809Y-111317666D01*
X85392190Y-111317666D01*
X85468380Y-111355761D01*
X85506476Y-111393857D01*
X85544571Y-111470047D01*
%TO.C,D7*%
X86306476Y-149908904D02*
X86306476Y-149108904D01*
X86116000Y-149108904D01*
X86001714Y-149147000D01*
X85925523Y-149223190D01*
X85887428Y-149299380D01*
X85849333Y-149451761D01*
X85849333Y-149566047D01*
X85887428Y-149718428D01*
X85925523Y-149794619D01*
X86001714Y-149870809D01*
X86116000Y-149908904D01*
X86306476Y-149908904D01*
X85582666Y-149108904D02*
X85049333Y-149108904D01*
X85392190Y-149908904D01*
%TO.C,D8*%
X100592476Y-92764904D02*
X100592476Y-91964904D01*
X100402000Y-91964904D01*
X100287714Y-92003000D01*
X100211523Y-92079190D01*
X100173428Y-92155380D01*
X100135333Y-92307761D01*
X100135333Y-92422047D01*
X100173428Y-92574428D01*
X100211523Y-92650619D01*
X100287714Y-92726809D01*
X100402000Y-92764904D01*
X100592476Y-92764904D01*
X99678190Y-92307761D02*
X99754380Y-92269666D01*
X99792476Y-92231571D01*
X99830571Y-92155380D01*
X99830571Y-92117285D01*
X99792476Y-92041095D01*
X99754380Y-92003000D01*
X99678190Y-91964904D01*
X99525809Y-91964904D01*
X99449619Y-92003000D01*
X99411523Y-92041095D01*
X99373428Y-92117285D01*
X99373428Y-92155380D01*
X99411523Y-92231571D01*
X99449619Y-92269666D01*
X99525809Y-92307761D01*
X99678190Y-92307761D01*
X99754380Y-92345857D01*
X99792476Y-92383952D01*
X99830571Y-92460142D01*
X99830571Y-92612523D01*
X99792476Y-92688714D01*
X99754380Y-92726809D01*
X99678190Y-92764904D01*
X99525809Y-92764904D01*
X99449619Y-92726809D01*
X99411523Y-92688714D01*
X99373428Y-92612523D01*
X99373428Y-92460142D01*
X99411523Y-92383952D01*
X99449619Y-92345857D01*
X99525809Y-92307761D01*
%TO.C,D9*%
X105354476Y-111812904D02*
X105354476Y-111012904D01*
X105164000Y-111012904D01*
X105049714Y-111051000D01*
X104973523Y-111127190D01*
X104935428Y-111203380D01*
X104897333Y-111355761D01*
X104897333Y-111470047D01*
X104935428Y-111622428D01*
X104973523Y-111698619D01*
X105049714Y-111774809D01*
X105164000Y-111812904D01*
X105354476Y-111812904D01*
X104516380Y-111812904D02*
X104364000Y-111812904D01*
X104287809Y-111774809D01*
X104249714Y-111736714D01*
X104173523Y-111622428D01*
X104135428Y-111470047D01*
X104135428Y-111165285D01*
X104173523Y-111089095D01*
X104211619Y-111051000D01*
X104287809Y-111012904D01*
X104440190Y-111012904D01*
X104516380Y-111051000D01*
X104554476Y-111089095D01*
X104592571Y-111165285D01*
X104592571Y-111355761D01*
X104554476Y-111431952D01*
X104516380Y-111470047D01*
X104440190Y-111508142D01*
X104287809Y-111508142D01*
X104211619Y-111470047D01*
X104173523Y-111431952D01*
X104135428Y-111355761D01*
%TO.C,D10*%
X96211428Y-130860904D02*
X96211428Y-130060904D01*
X96020952Y-130060904D01*
X95906666Y-130099000D01*
X95830476Y-130175190D01*
X95792380Y-130251380D01*
X95754285Y-130403761D01*
X95754285Y-130518047D01*
X95792380Y-130670428D01*
X95830476Y-130746619D01*
X95906666Y-130822809D01*
X96020952Y-130860904D01*
X96211428Y-130860904D01*
X94992380Y-130860904D02*
X95449523Y-130860904D01*
X95220952Y-130860904D02*
X95220952Y-130060904D01*
X95297142Y-130175190D01*
X95373333Y-130251380D01*
X95449523Y-130289476D01*
X94497142Y-130060904D02*
X94420952Y-130060904D01*
X94344761Y-130099000D01*
X94306666Y-130137095D01*
X94268571Y-130213285D01*
X94230476Y-130365666D01*
X94230476Y-130556142D01*
X94268571Y-130708523D01*
X94306666Y-130784714D01*
X94344761Y-130822809D01*
X94420952Y-130860904D01*
X94497142Y-130860904D01*
X94573333Y-130822809D01*
X94611428Y-130784714D01*
X94649523Y-130708523D01*
X94687619Y-130556142D01*
X94687619Y-130365666D01*
X94649523Y-130213285D01*
X94611428Y-130137095D01*
X94573333Y-130099000D01*
X94497142Y-130060904D01*
%TO.C,D11*%
X105735428Y-149908904D02*
X105735428Y-149108904D01*
X105544952Y-149108904D01*
X105430666Y-149147000D01*
X105354476Y-149223190D01*
X105316380Y-149299380D01*
X105278285Y-149451761D01*
X105278285Y-149566047D01*
X105316380Y-149718428D01*
X105354476Y-149794619D01*
X105430666Y-149870809D01*
X105544952Y-149908904D01*
X105735428Y-149908904D01*
X104516380Y-149908904D02*
X104973523Y-149908904D01*
X104744952Y-149908904D02*
X104744952Y-149108904D01*
X104821142Y-149223190D01*
X104897333Y-149299380D01*
X104973523Y-149337476D01*
X103754476Y-149908904D02*
X104211619Y-149908904D01*
X103983047Y-149908904D02*
X103983047Y-149108904D01*
X104059238Y-149223190D01*
X104135428Y-149299380D01*
X104211619Y-149337476D01*
%TO.C,D12*%
X120021428Y-92764904D02*
X120021428Y-91964904D01*
X119830952Y-91964904D01*
X119716666Y-92003000D01*
X119640476Y-92079190D01*
X119602380Y-92155380D01*
X119564285Y-92307761D01*
X119564285Y-92422047D01*
X119602380Y-92574428D01*
X119640476Y-92650619D01*
X119716666Y-92726809D01*
X119830952Y-92764904D01*
X120021428Y-92764904D01*
X118802380Y-92764904D02*
X119259523Y-92764904D01*
X119030952Y-92764904D02*
X119030952Y-91964904D01*
X119107142Y-92079190D01*
X119183333Y-92155380D01*
X119259523Y-92193476D01*
X118497619Y-92041095D02*
X118459523Y-92003000D01*
X118383333Y-91964904D01*
X118192857Y-91964904D01*
X118116666Y-92003000D01*
X118078571Y-92041095D01*
X118040476Y-92117285D01*
X118040476Y-92193476D01*
X118078571Y-92307761D01*
X118535714Y-92764904D01*
X118040476Y-92764904D01*
%TO.C,D13*%
X124783428Y-111812904D02*
X124783428Y-111012904D01*
X124592952Y-111012904D01*
X124478666Y-111051000D01*
X124402476Y-111127190D01*
X124364380Y-111203380D01*
X124326285Y-111355761D01*
X124326285Y-111470047D01*
X124364380Y-111622428D01*
X124402476Y-111698619D01*
X124478666Y-111774809D01*
X124592952Y-111812904D01*
X124783428Y-111812904D01*
X123564380Y-111812904D02*
X124021523Y-111812904D01*
X123792952Y-111812904D02*
X123792952Y-111012904D01*
X123869142Y-111127190D01*
X123945333Y-111203380D01*
X124021523Y-111241476D01*
X123297714Y-111012904D02*
X122802476Y-111012904D01*
X123069142Y-111317666D01*
X122954857Y-111317666D01*
X122878666Y-111355761D01*
X122840571Y-111393857D01*
X122802476Y-111470047D01*
X122802476Y-111660523D01*
X122840571Y-111736714D01*
X122878666Y-111774809D01*
X122954857Y-111812904D01*
X123183428Y-111812904D01*
X123259619Y-111774809D01*
X123297714Y-111736714D01*
%TO.C,D14*%
X115259428Y-130860904D02*
X115259428Y-130060904D01*
X115068952Y-130060904D01*
X114954666Y-130099000D01*
X114878476Y-130175190D01*
X114840380Y-130251380D01*
X114802285Y-130403761D01*
X114802285Y-130518047D01*
X114840380Y-130670428D01*
X114878476Y-130746619D01*
X114954666Y-130822809D01*
X115068952Y-130860904D01*
X115259428Y-130860904D01*
X114040380Y-130860904D02*
X114497523Y-130860904D01*
X114268952Y-130860904D02*
X114268952Y-130060904D01*
X114345142Y-130175190D01*
X114421333Y-130251380D01*
X114497523Y-130289476D01*
X113354666Y-130327571D02*
X113354666Y-130860904D01*
X113545142Y-130022809D02*
X113735619Y-130594238D01*
X113240380Y-130594238D01*
%TO.C,D15*%
X139069428Y-92764904D02*
X139069428Y-91964904D01*
X138878952Y-91964904D01*
X138764666Y-92003000D01*
X138688476Y-92079190D01*
X138650380Y-92155380D01*
X138612285Y-92307761D01*
X138612285Y-92422047D01*
X138650380Y-92574428D01*
X138688476Y-92650619D01*
X138764666Y-92726809D01*
X138878952Y-92764904D01*
X139069428Y-92764904D01*
X137850380Y-92764904D02*
X138307523Y-92764904D01*
X138078952Y-92764904D02*
X138078952Y-91964904D01*
X138155142Y-92079190D01*
X138231333Y-92155380D01*
X138307523Y-92193476D01*
X137126571Y-91964904D02*
X137507523Y-91964904D01*
X137545619Y-92345857D01*
X137507523Y-92307761D01*
X137431333Y-92269666D01*
X137240857Y-92269666D01*
X137164666Y-92307761D01*
X137126571Y-92345857D01*
X137088476Y-92422047D01*
X137088476Y-92612523D01*
X137126571Y-92688714D01*
X137164666Y-92726809D01*
X137240857Y-92764904D01*
X137431333Y-92764904D01*
X137507523Y-92726809D01*
X137545619Y-92688714D01*
%TO.C,D16*%
X143831428Y-111812904D02*
X143831428Y-111012904D01*
X143640952Y-111012904D01*
X143526666Y-111051000D01*
X143450476Y-111127190D01*
X143412380Y-111203380D01*
X143374285Y-111355761D01*
X143374285Y-111470047D01*
X143412380Y-111622428D01*
X143450476Y-111698619D01*
X143526666Y-111774809D01*
X143640952Y-111812904D01*
X143831428Y-111812904D01*
X142612380Y-111812904D02*
X143069523Y-111812904D01*
X142840952Y-111812904D02*
X142840952Y-111012904D01*
X142917142Y-111127190D01*
X142993333Y-111203380D01*
X143069523Y-111241476D01*
X141926666Y-111012904D02*
X142079047Y-111012904D01*
X142155238Y-111051000D01*
X142193333Y-111089095D01*
X142269523Y-111203380D01*
X142307619Y-111355761D01*
X142307619Y-111660523D01*
X142269523Y-111736714D01*
X142231428Y-111774809D01*
X142155238Y-111812904D01*
X142002857Y-111812904D01*
X141926666Y-111774809D01*
X141888571Y-111736714D01*
X141850476Y-111660523D01*
X141850476Y-111470047D01*
X141888571Y-111393857D01*
X141926666Y-111355761D01*
X142002857Y-111317666D01*
X142155238Y-111317666D01*
X142231428Y-111355761D01*
X142269523Y-111393857D01*
X142307619Y-111470047D01*
%TO.C,D17*%
X134307428Y-130860904D02*
X134307428Y-130060904D01*
X134116952Y-130060904D01*
X134002666Y-130099000D01*
X133926476Y-130175190D01*
X133888380Y-130251380D01*
X133850285Y-130403761D01*
X133850285Y-130518047D01*
X133888380Y-130670428D01*
X133926476Y-130746619D01*
X134002666Y-130822809D01*
X134116952Y-130860904D01*
X134307428Y-130860904D01*
X133088380Y-130860904D02*
X133545523Y-130860904D01*
X133316952Y-130860904D02*
X133316952Y-130060904D01*
X133393142Y-130175190D01*
X133469333Y-130251380D01*
X133545523Y-130289476D01*
X132821714Y-130060904D02*
X132288380Y-130060904D01*
X132631238Y-130860904D01*
%TO.C,D18*%
X158117428Y-92764904D02*
X158117428Y-91964904D01*
X157926952Y-91964904D01*
X157812666Y-92003000D01*
X157736476Y-92079190D01*
X157698380Y-92155380D01*
X157660285Y-92307761D01*
X157660285Y-92422047D01*
X157698380Y-92574428D01*
X157736476Y-92650619D01*
X157812666Y-92726809D01*
X157926952Y-92764904D01*
X158117428Y-92764904D01*
X156898380Y-92764904D02*
X157355523Y-92764904D01*
X157126952Y-92764904D02*
X157126952Y-91964904D01*
X157203142Y-92079190D01*
X157279333Y-92155380D01*
X157355523Y-92193476D01*
X156441238Y-92307761D02*
X156517428Y-92269666D01*
X156555523Y-92231571D01*
X156593619Y-92155380D01*
X156593619Y-92117285D01*
X156555523Y-92041095D01*
X156517428Y-92003000D01*
X156441238Y-91964904D01*
X156288857Y-91964904D01*
X156212666Y-92003000D01*
X156174571Y-92041095D01*
X156136476Y-92117285D01*
X156136476Y-92155380D01*
X156174571Y-92231571D01*
X156212666Y-92269666D01*
X156288857Y-92307761D01*
X156441238Y-92307761D01*
X156517428Y-92345857D01*
X156555523Y-92383952D01*
X156593619Y-92460142D01*
X156593619Y-92612523D01*
X156555523Y-92688714D01*
X156517428Y-92726809D01*
X156441238Y-92764904D01*
X156288857Y-92764904D01*
X156212666Y-92726809D01*
X156174571Y-92688714D01*
X156136476Y-92612523D01*
X156136476Y-92460142D01*
X156174571Y-92383952D01*
X156212666Y-92345857D01*
X156288857Y-92307761D01*
%TO.C,D19*%
X162879428Y-111812904D02*
X162879428Y-111012904D01*
X162688952Y-111012904D01*
X162574666Y-111051000D01*
X162498476Y-111127190D01*
X162460380Y-111203380D01*
X162422285Y-111355761D01*
X162422285Y-111470047D01*
X162460380Y-111622428D01*
X162498476Y-111698619D01*
X162574666Y-111774809D01*
X162688952Y-111812904D01*
X162879428Y-111812904D01*
X161660380Y-111812904D02*
X162117523Y-111812904D01*
X161888952Y-111812904D02*
X161888952Y-111012904D01*
X161965142Y-111127190D01*
X162041333Y-111203380D01*
X162117523Y-111241476D01*
X161279428Y-111812904D02*
X161127047Y-111812904D01*
X161050857Y-111774809D01*
X161012761Y-111736714D01*
X160936571Y-111622428D01*
X160898476Y-111470047D01*
X160898476Y-111165285D01*
X160936571Y-111089095D01*
X160974666Y-111051000D01*
X161050857Y-111012904D01*
X161203238Y-111012904D01*
X161279428Y-111051000D01*
X161317523Y-111089095D01*
X161355619Y-111165285D01*
X161355619Y-111355761D01*
X161317523Y-111431952D01*
X161279428Y-111470047D01*
X161203238Y-111508142D01*
X161050857Y-111508142D01*
X160974666Y-111470047D01*
X160936571Y-111431952D01*
X160898476Y-111355761D01*
%TO.C,D20*%
X153355428Y-130860904D02*
X153355428Y-130060904D01*
X153164952Y-130060904D01*
X153050666Y-130099000D01*
X152974476Y-130175190D01*
X152936380Y-130251380D01*
X152898285Y-130403761D01*
X152898285Y-130518047D01*
X152936380Y-130670428D01*
X152974476Y-130746619D01*
X153050666Y-130822809D01*
X153164952Y-130860904D01*
X153355428Y-130860904D01*
X152593523Y-130137095D02*
X152555428Y-130099000D01*
X152479238Y-130060904D01*
X152288761Y-130060904D01*
X152212571Y-130099000D01*
X152174476Y-130137095D01*
X152136380Y-130213285D01*
X152136380Y-130289476D01*
X152174476Y-130403761D01*
X152631619Y-130860904D01*
X152136380Y-130860904D01*
X151641142Y-130060904D02*
X151564952Y-130060904D01*
X151488761Y-130099000D01*
X151450666Y-130137095D01*
X151412571Y-130213285D01*
X151374476Y-130365666D01*
X151374476Y-130556142D01*
X151412571Y-130708523D01*
X151450666Y-130784714D01*
X151488761Y-130822809D01*
X151564952Y-130860904D01*
X151641142Y-130860904D01*
X151717333Y-130822809D01*
X151755428Y-130784714D01*
X151793523Y-130708523D01*
X151831619Y-130556142D01*
X151831619Y-130365666D01*
X151793523Y-130213285D01*
X151755428Y-130137095D01*
X151717333Y-130099000D01*
X151641142Y-130060904D01*
%TO.C,D21*%
X177165428Y-92764904D02*
X177165428Y-91964904D01*
X176974952Y-91964904D01*
X176860666Y-92003000D01*
X176784476Y-92079190D01*
X176746380Y-92155380D01*
X176708285Y-92307761D01*
X176708285Y-92422047D01*
X176746380Y-92574428D01*
X176784476Y-92650619D01*
X176860666Y-92726809D01*
X176974952Y-92764904D01*
X177165428Y-92764904D01*
X176403523Y-92041095D02*
X176365428Y-92003000D01*
X176289238Y-91964904D01*
X176098761Y-91964904D01*
X176022571Y-92003000D01*
X175984476Y-92041095D01*
X175946380Y-92117285D01*
X175946380Y-92193476D01*
X175984476Y-92307761D01*
X176441619Y-92764904D01*
X175946380Y-92764904D01*
X175184476Y-92764904D02*
X175641619Y-92764904D01*
X175413047Y-92764904D02*
X175413047Y-91964904D01*
X175489238Y-92079190D01*
X175565428Y-92155380D01*
X175641619Y-92193476D01*
%TO.C,D22*%
X181927428Y-111812904D02*
X181927428Y-111012904D01*
X181736952Y-111012904D01*
X181622666Y-111051000D01*
X181546476Y-111127190D01*
X181508380Y-111203380D01*
X181470285Y-111355761D01*
X181470285Y-111470047D01*
X181508380Y-111622428D01*
X181546476Y-111698619D01*
X181622666Y-111774809D01*
X181736952Y-111812904D01*
X181927428Y-111812904D01*
X181165523Y-111089095D02*
X181127428Y-111051000D01*
X181051238Y-111012904D01*
X180860761Y-111012904D01*
X180784571Y-111051000D01*
X180746476Y-111089095D01*
X180708380Y-111165285D01*
X180708380Y-111241476D01*
X180746476Y-111355761D01*
X181203619Y-111812904D01*
X180708380Y-111812904D01*
X180403619Y-111089095D02*
X180365523Y-111051000D01*
X180289333Y-111012904D01*
X180098857Y-111012904D01*
X180022666Y-111051000D01*
X179984571Y-111089095D01*
X179946476Y-111165285D01*
X179946476Y-111241476D01*
X179984571Y-111355761D01*
X180441714Y-111812904D01*
X179946476Y-111812904D01*
%TO.C,D23*%
X172403428Y-130860904D02*
X172403428Y-130060904D01*
X172212952Y-130060904D01*
X172098666Y-130099000D01*
X172022476Y-130175190D01*
X171984380Y-130251380D01*
X171946285Y-130403761D01*
X171946285Y-130518047D01*
X171984380Y-130670428D01*
X172022476Y-130746619D01*
X172098666Y-130822809D01*
X172212952Y-130860904D01*
X172403428Y-130860904D01*
X171641523Y-130137095D02*
X171603428Y-130099000D01*
X171527238Y-130060904D01*
X171336761Y-130060904D01*
X171260571Y-130099000D01*
X171222476Y-130137095D01*
X171184380Y-130213285D01*
X171184380Y-130289476D01*
X171222476Y-130403761D01*
X171679619Y-130860904D01*
X171184380Y-130860904D01*
X170917714Y-130060904D02*
X170422476Y-130060904D01*
X170689142Y-130365666D01*
X170574857Y-130365666D01*
X170498666Y-130403761D01*
X170460571Y-130441857D01*
X170422476Y-130518047D01*
X170422476Y-130708523D01*
X170460571Y-130784714D01*
X170498666Y-130822809D01*
X170574857Y-130860904D01*
X170803428Y-130860904D01*
X170879619Y-130822809D01*
X170917714Y-130784714D01*
%TO.C,D24*%
X174784428Y-149908904D02*
X174784428Y-149108904D01*
X174593952Y-149108904D01*
X174479666Y-149147000D01*
X174403476Y-149223190D01*
X174365380Y-149299380D01*
X174327285Y-149451761D01*
X174327285Y-149566047D01*
X174365380Y-149718428D01*
X174403476Y-149794619D01*
X174479666Y-149870809D01*
X174593952Y-149908904D01*
X174784428Y-149908904D01*
X174022523Y-149185095D02*
X173984428Y-149147000D01*
X173908238Y-149108904D01*
X173717761Y-149108904D01*
X173641571Y-149147000D01*
X173603476Y-149185095D01*
X173565380Y-149261285D01*
X173565380Y-149337476D01*
X173603476Y-149451761D01*
X174060619Y-149908904D01*
X173565380Y-149908904D01*
X172879666Y-149375571D02*
X172879666Y-149908904D01*
X173070142Y-149070809D02*
X173260619Y-149642238D01*
X172765380Y-149642238D01*
%TO.C,D25*%
X196213428Y-92764904D02*
X196213428Y-91964904D01*
X196022952Y-91964904D01*
X195908666Y-92003000D01*
X195832476Y-92079190D01*
X195794380Y-92155380D01*
X195756285Y-92307761D01*
X195756285Y-92422047D01*
X195794380Y-92574428D01*
X195832476Y-92650619D01*
X195908666Y-92726809D01*
X196022952Y-92764904D01*
X196213428Y-92764904D01*
X195451523Y-92041095D02*
X195413428Y-92003000D01*
X195337238Y-91964904D01*
X195146761Y-91964904D01*
X195070571Y-92003000D01*
X195032476Y-92041095D01*
X194994380Y-92117285D01*
X194994380Y-92193476D01*
X195032476Y-92307761D01*
X195489619Y-92764904D01*
X194994380Y-92764904D01*
X194270571Y-91964904D02*
X194651523Y-91964904D01*
X194689619Y-92345857D01*
X194651523Y-92307761D01*
X194575333Y-92269666D01*
X194384857Y-92269666D01*
X194308666Y-92307761D01*
X194270571Y-92345857D01*
X194232476Y-92422047D01*
X194232476Y-92612523D01*
X194270571Y-92688714D01*
X194308666Y-92726809D01*
X194384857Y-92764904D01*
X194575333Y-92764904D01*
X194651523Y-92726809D01*
X194689619Y-92688714D01*
%TO.C,D26*%
X200975428Y-111812904D02*
X200975428Y-111012904D01*
X200784952Y-111012904D01*
X200670666Y-111051000D01*
X200594476Y-111127190D01*
X200556380Y-111203380D01*
X200518285Y-111355761D01*
X200518285Y-111470047D01*
X200556380Y-111622428D01*
X200594476Y-111698619D01*
X200670666Y-111774809D01*
X200784952Y-111812904D01*
X200975428Y-111812904D01*
X200213523Y-111089095D02*
X200175428Y-111051000D01*
X200099238Y-111012904D01*
X199908761Y-111012904D01*
X199832571Y-111051000D01*
X199794476Y-111089095D01*
X199756380Y-111165285D01*
X199756380Y-111241476D01*
X199794476Y-111355761D01*
X200251619Y-111812904D01*
X199756380Y-111812904D01*
X199070666Y-111012904D02*
X199223047Y-111012904D01*
X199299238Y-111051000D01*
X199337333Y-111089095D01*
X199413523Y-111203380D01*
X199451619Y-111355761D01*
X199451619Y-111660523D01*
X199413523Y-111736714D01*
X199375428Y-111774809D01*
X199299238Y-111812904D01*
X199146857Y-111812904D01*
X199070666Y-111774809D01*
X199032571Y-111736714D01*
X198994476Y-111660523D01*
X198994476Y-111470047D01*
X199032571Y-111393857D01*
X199070666Y-111355761D01*
X199146857Y-111317666D01*
X199299238Y-111317666D01*
X199375428Y-111355761D01*
X199413523Y-111393857D01*
X199451619Y-111470047D01*
%TO.C,D27*%
X191451428Y-130860904D02*
X191451428Y-130060904D01*
X191260952Y-130060904D01*
X191146666Y-130099000D01*
X191070476Y-130175190D01*
X191032380Y-130251380D01*
X190994285Y-130403761D01*
X190994285Y-130518047D01*
X191032380Y-130670428D01*
X191070476Y-130746619D01*
X191146666Y-130822809D01*
X191260952Y-130860904D01*
X191451428Y-130860904D01*
X190689523Y-130137095D02*
X190651428Y-130099000D01*
X190575238Y-130060904D01*
X190384761Y-130060904D01*
X190308571Y-130099000D01*
X190270476Y-130137095D01*
X190232380Y-130213285D01*
X190232380Y-130289476D01*
X190270476Y-130403761D01*
X190727619Y-130860904D01*
X190232380Y-130860904D01*
X189965714Y-130060904D02*
X189432380Y-130060904D01*
X189775238Y-130860904D01*
%TO.C,D28*%
X215261428Y-92764904D02*
X215261428Y-91964904D01*
X215070952Y-91964904D01*
X214956666Y-92003000D01*
X214880476Y-92079190D01*
X214842380Y-92155380D01*
X214804285Y-92307761D01*
X214804285Y-92422047D01*
X214842380Y-92574428D01*
X214880476Y-92650619D01*
X214956666Y-92726809D01*
X215070952Y-92764904D01*
X215261428Y-92764904D01*
X214499523Y-92041095D02*
X214461428Y-92003000D01*
X214385238Y-91964904D01*
X214194761Y-91964904D01*
X214118571Y-92003000D01*
X214080476Y-92041095D01*
X214042380Y-92117285D01*
X214042380Y-92193476D01*
X214080476Y-92307761D01*
X214537619Y-92764904D01*
X214042380Y-92764904D01*
X213585238Y-92307761D02*
X213661428Y-92269666D01*
X213699523Y-92231571D01*
X213737619Y-92155380D01*
X213737619Y-92117285D01*
X213699523Y-92041095D01*
X213661428Y-92003000D01*
X213585238Y-91964904D01*
X213432857Y-91964904D01*
X213356666Y-92003000D01*
X213318571Y-92041095D01*
X213280476Y-92117285D01*
X213280476Y-92155380D01*
X213318571Y-92231571D01*
X213356666Y-92269666D01*
X213432857Y-92307761D01*
X213585238Y-92307761D01*
X213661428Y-92345857D01*
X213699523Y-92383952D01*
X213737619Y-92460142D01*
X213737619Y-92612523D01*
X213699523Y-92688714D01*
X213661428Y-92726809D01*
X213585238Y-92764904D01*
X213432857Y-92764904D01*
X213356666Y-92726809D01*
X213318571Y-92688714D01*
X213280476Y-92612523D01*
X213280476Y-92460142D01*
X213318571Y-92383952D01*
X213356666Y-92345857D01*
X213432857Y-92307761D01*
%TO.C,D29*%
X220023428Y-111812904D02*
X220023428Y-111012904D01*
X219832952Y-111012904D01*
X219718666Y-111051000D01*
X219642476Y-111127190D01*
X219604380Y-111203380D01*
X219566285Y-111355761D01*
X219566285Y-111470047D01*
X219604380Y-111622428D01*
X219642476Y-111698619D01*
X219718666Y-111774809D01*
X219832952Y-111812904D01*
X220023428Y-111812904D01*
X219261523Y-111089095D02*
X219223428Y-111051000D01*
X219147238Y-111012904D01*
X218956761Y-111012904D01*
X218880571Y-111051000D01*
X218842476Y-111089095D01*
X218804380Y-111165285D01*
X218804380Y-111241476D01*
X218842476Y-111355761D01*
X219299619Y-111812904D01*
X218804380Y-111812904D01*
X218423428Y-111812904D02*
X218271047Y-111812904D01*
X218194857Y-111774809D01*
X218156761Y-111736714D01*
X218080571Y-111622428D01*
X218042476Y-111470047D01*
X218042476Y-111165285D01*
X218080571Y-111089095D01*
X218118666Y-111051000D01*
X218194857Y-111012904D01*
X218347238Y-111012904D01*
X218423428Y-111051000D01*
X218461523Y-111089095D01*
X218499619Y-111165285D01*
X218499619Y-111355761D01*
X218461523Y-111431952D01*
X218423428Y-111470047D01*
X218347238Y-111508142D01*
X218194857Y-111508142D01*
X218118666Y-111470047D01*
X218080571Y-111431952D01*
X218042476Y-111355761D01*
%TO.C,D30*%
X210499428Y-130860904D02*
X210499428Y-130060904D01*
X210308952Y-130060904D01*
X210194666Y-130099000D01*
X210118476Y-130175190D01*
X210080380Y-130251380D01*
X210042285Y-130403761D01*
X210042285Y-130518047D01*
X210080380Y-130670428D01*
X210118476Y-130746619D01*
X210194666Y-130822809D01*
X210308952Y-130860904D01*
X210499428Y-130860904D01*
X209775619Y-130060904D02*
X209280380Y-130060904D01*
X209547047Y-130365666D01*
X209432761Y-130365666D01*
X209356571Y-130403761D01*
X209318476Y-130441857D01*
X209280380Y-130518047D01*
X209280380Y-130708523D01*
X209318476Y-130784714D01*
X209356571Y-130822809D01*
X209432761Y-130860904D01*
X209661333Y-130860904D01*
X209737523Y-130822809D01*
X209775619Y-130784714D01*
X208785142Y-130060904D02*
X208708952Y-130060904D01*
X208632761Y-130099000D01*
X208594666Y-130137095D01*
X208556571Y-130213285D01*
X208518476Y-130365666D01*
X208518476Y-130556142D01*
X208556571Y-130708523D01*
X208594666Y-130784714D01*
X208632761Y-130822809D01*
X208708952Y-130860904D01*
X208785142Y-130860904D01*
X208861333Y-130822809D01*
X208899428Y-130784714D01*
X208937523Y-130708523D01*
X208975619Y-130556142D01*
X208975619Y-130365666D01*
X208937523Y-130213285D01*
X208899428Y-130137095D01*
X208861333Y-130099000D01*
X208785142Y-130060904D01*
%TO.C,D31*%
X234309428Y-92764904D02*
X234309428Y-91964904D01*
X234118952Y-91964904D01*
X234004666Y-92003000D01*
X233928476Y-92079190D01*
X233890380Y-92155380D01*
X233852285Y-92307761D01*
X233852285Y-92422047D01*
X233890380Y-92574428D01*
X233928476Y-92650619D01*
X234004666Y-92726809D01*
X234118952Y-92764904D01*
X234309428Y-92764904D01*
X233585619Y-91964904D02*
X233090380Y-91964904D01*
X233357047Y-92269666D01*
X233242761Y-92269666D01*
X233166571Y-92307761D01*
X233128476Y-92345857D01*
X233090380Y-92422047D01*
X233090380Y-92612523D01*
X233128476Y-92688714D01*
X233166571Y-92726809D01*
X233242761Y-92764904D01*
X233471333Y-92764904D01*
X233547523Y-92726809D01*
X233585619Y-92688714D01*
X232328476Y-92764904D02*
X232785619Y-92764904D01*
X232557047Y-92764904D02*
X232557047Y-91964904D01*
X232633238Y-92079190D01*
X232709428Y-92155380D01*
X232785619Y-92193476D01*
%TO.C,D32*%
X239071428Y-111812904D02*
X239071428Y-111012904D01*
X238880952Y-111012904D01*
X238766666Y-111051000D01*
X238690476Y-111127190D01*
X238652380Y-111203380D01*
X238614285Y-111355761D01*
X238614285Y-111470047D01*
X238652380Y-111622428D01*
X238690476Y-111698619D01*
X238766666Y-111774809D01*
X238880952Y-111812904D01*
X239071428Y-111812904D01*
X238347619Y-111012904D02*
X237852380Y-111012904D01*
X238119047Y-111317666D01*
X238004761Y-111317666D01*
X237928571Y-111355761D01*
X237890476Y-111393857D01*
X237852380Y-111470047D01*
X237852380Y-111660523D01*
X237890476Y-111736714D01*
X237928571Y-111774809D01*
X238004761Y-111812904D01*
X238233333Y-111812904D01*
X238309523Y-111774809D01*
X238347619Y-111736714D01*
X237547619Y-111089095D02*
X237509523Y-111051000D01*
X237433333Y-111012904D01*
X237242857Y-111012904D01*
X237166666Y-111051000D01*
X237128571Y-111089095D01*
X237090476Y-111165285D01*
X237090476Y-111241476D01*
X237128571Y-111355761D01*
X237585714Y-111812904D01*
X237090476Y-111812904D01*
%TO.C,D33*%
X229547428Y-130860904D02*
X229547428Y-130060904D01*
X229356952Y-130060904D01*
X229242666Y-130099000D01*
X229166476Y-130175190D01*
X229128380Y-130251380D01*
X229090285Y-130403761D01*
X229090285Y-130518047D01*
X229128380Y-130670428D01*
X229166476Y-130746619D01*
X229242666Y-130822809D01*
X229356952Y-130860904D01*
X229547428Y-130860904D01*
X228823619Y-130060904D02*
X228328380Y-130060904D01*
X228595047Y-130365666D01*
X228480761Y-130365666D01*
X228404571Y-130403761D01*
X228366476Y-130441857D01*
X228328380Y-130518047D01*
X228328380Y-130708523D01*
X228366476Y-130784714D01*
X228404571Y-130822809D01*
X228480761Y-130860904D01*
X228709333Y-130860904D01*
X228785523Y-130822809D01*
X228823619Y-130784714D01*
X228061714Y-130060904D02*
X227566476Y-130060904D01*
X227833142Y-130365666D01*
X227718857Y-130365666D01*
X227642666Y-130403761D01*
X227604571Y-130441857D01*
X227566476Y-130518047D01*
X227566476Y-130708523D01*
X227604571Y-130784714D01*
X227642666Y-130822809D01*
X227718857Y-130860904D01*
X227947428Y-130860904D01*
X228023619Y-130822809D01*
X228061714Y-130784714D01*
%TO.C,D34*%
X253357428Y-92764904D02*
X253357428Y-91964904D01*
X253166952Y-91964904D01*
X253052666Y-92003000D01*
X252976476Y-92079190D01*
X252938380Y-92155380D01*
X252900285Y-92307761D01*
X252900285Y-92422047D01*
X252938380Y-92574428D01*
X252976476Y-92650619D01*
X253052666Y-92726809D01*
X253166952Y-92764904D01*
X253357428Y-92764904D01*
X252633619Y-91964904D02*
X252138380Y-91964904D01*
X252405047Y-92269666D01*
X252290761Y-92269666D01*
X252214571Y-92307761D01*
X252176476Y-92345857D01*
X252138380Y-92422047D01*
X252138380Y-92612523D01*
X252176476Y-92688714D01*
X252214571Y-92726809D01*
X252290761Y-92764904D01*
X252519333Y-92764904D01*
X252595523Y-92726809D01*
X252633619Y-92688714D01*
X251452666Y-92231571D02*
X251452666Y-92764904D01*
X251643142Y-91926809D02*
X251833619Y-92498238D01*
X251338380Y-92498238D01*
%TO.C,D35*%
X265262428Y-111812904D02*
X265262428Y-111012904D01*
X265071952Y-111012904D01*
X264957666Y-111051000D01*
X264881476Y-111127190D01*
X264843380Y-111203380D01*
X264805285Y-111355761D01*
X264805285Y-111470047D01*
X264843380Y-111622428D01*
X264881476Y-111698619D01*
X264957666Y-111774809D01*
X265071952Y-111812904D01*
X265262428Y-111812904D01*
X264538619Y-111012904D02*
X264043380Y-111012904D01*
X264310047Y-111317666D01*
X264195761Y-111317666D01*
X264119571Y-111355761D01*
X264081476Y-111393857D01*
X264043380Y-111470047D01*
X264043380Y-111660523D01*
X264081476Y-111736714D01*
X264119571Y-111774809D01*
X264195761Y-111812904D01*
X264424333Y-111812904D01*
X264500523Y-111774809D01*
X264538619Y-111736714D01*
X263319571Y-111012904D02*
X263700523Y-111012904D01*
X263738619Y-111393857D01*
X263700523Y-111355761D01*
X263624333Y-111317666D01*
X263433857Y-111317666D01*
X263357666Y-111355761D01*
X263319571Y-111393857D01*
X263281476Y-111470047D01*
X263281476Y-111660523D01*
X263319571Y-111736714D01*
X263357666Y-111774809D01*
X263433857Y-111812904D01*
X263624333Y-111812904D01*
X263700523Y-111774809D01*
X263738619Y-111736714D01*
%TO.C,D36*%
X260500428Y-130860904D02*
X260500428Y-130060904D01*
X260309952Y-130060904D01*
X260195666Y-130099000D01*
X260119476Y-130175190D01*
X260081380Y-130251380D01*
X260043285Y-130403761D01*
X260043285Y-130518047D01*
X260081380Y-130670428D01*
X260119476Y-130746619D01*
X260195666Y-130822809D01*
X260309952Y-130860904D01*
X260500428Y-130860904D01*
X259776619Y-130060904D02*
X259281380Y-130060904D01*
X259548047Y-130365666D01*
X259433761Y-130365666D01*
X259357571Y-130403761D01*
X259319476Y-130441857D01*
X259281380Y-130518047D01*
X259281380Y-130708523D01*
X259319476Y-130784714D01*
X259357571Y-130822809D01*
X259433761Y-130860904D01*
X259662333Y-130860904D01*
X259738523Y-130822809D01*
X259776619Y-130784714D01*
X258595666Y-130060904D02*
X258748047Y-130060904D01*
X258824238Y-130099000D01*
X258862333Y-130137095D01*
X258938523Y-130251380D01*
X258976619Y-130403761D01*
X258976619Y-130708523D01*
X258938523Y-130784714D01*
X258900428Y-130822809D01*
X258824238Y-130860904D01*
X258671857Y-130860904D01*
X258595666Y-130822809D01*
X258557571Y-130784714D01*
X258519476Y-130708523D01*
X258519476Y-130518047D01*
X258557571Y-130441857D01*
X258595666Y-130403761D01*
X258671857Y-130365666D01*
X258824238Y-130365666D01*
X258900428Y-130403761D01*
X258938523Y-130441857D01*
X258976619Y-130518047D01*
%TO.C,D37*%
X246214428Y-149908904D02*
X246214428Y-149108904D01*
X246023952Y-149108904D01*
X245909666Y-149147000D01*
X245833476Y-149223190D01*
X245795380Y-149299380D01*
X245757285Y-149451761D01*
X245757285Y-149566047D01*
X245795380Y-149718428D01*
X245833476Y-149794619D01*
X245909666Y-149870809D01*
X246023952Y-149908904D01*
X246214428Y-149908904D01*
X245490619Y-149108904D02*
X244995380Y-149108904D01*
X245262047Y-149413666D01*
X245147761Y-149413666D01*
X245071571Y-149451761D01*
X245033476Y-149489857D01*
X244995380Y-149566047D01*
X244995380Y-149756523D01*
X245033476Y-149832714D01*
X245071571Y-149870809D01*
X245147761Y-149908904D01*
X245376333Y-149908904D01*
X245452523Y-149870809D01*
X245490619Y-149832714D01*
X244728714Y-149108904D02*
X244195380Y-149108904D01*
X244538238Y-149908904D01*
%TO.C,D38*%
X272405428Y-92764904D02*
X272405428Y-91964904D01*
X272214952Y-91964904D01*
X272100666Y-92003000D01*
X272024476Y-92079190D01*
X271986380Y-92155380D01*
X271948285Y-92307761D01*
X271948285Y-92422047D01*
X271986380Y-92574428D01*
X272024476Y-92650619D01*
X272100666Y-92726809D01*
X272214952Y-92764904D01*
X272405428Y-92764904D01*
X271681619Y-91964904D02*
X271186380Y-91964904D01*
X271453047Y-92269666D01*
X271338761Y-92269666D01*
X271262571Y-92307761D01*
X271224476Y-92345857D01*
X271186380Y-92422047D01*
X271186380Y-92612523D01*
X271224476Y-92688714D01*
X271262571Y-92726809D01*
X271338761Y-92764904D01*
X271567333Y-92764904D01*
X271643523Y-92726809D01*
X271681619Y-92688714D01*
X270729238Y-92307761D02*
X270805428Y-92269666D01*
X270843523Y-92231571D01*
X270881619Y-92155380D01*
X270881619Y-92117285D01*
X270843523Y-92041095D01*
X270805428Y-92003000D01*
X270729238Y-91964904D01*
X270576857Y-91964904D01*
X270500666Y-92003000D01*
X270462571Y-92041095D01*
X270424476Y-92117285D01*
X270424476Y-92155380D01*
X270462571Y-92231571D01*
X270500666Y-92269666D01*
X270576857Y-92307761D01*
X270729238Y-92307761D01*
X270805428Y-92345857D01*
X270843523Y-92383952D01*
X270881619Y-92460142D01*
X270881619Y-92612523D01*
X270843523Y-92688714D01*
X270805428Y-92726809D01*
X270729238Y-92764904D01*
X270576857Y-92764904D01*
X270500666Y-92726809D01*
X270462571Y-92688714D01*
X270424476Y-92612523D01*
X270424476Y-92460142D01*
X270462571Y-92383952D01*
X270500666Y-92345857D01*
X270576857Y-92307761D01*
%TO.C,D39*%
X270024428Y-149908904D02*
X270024428Y-149108904D01*
X269833952Y-149108904D01*
X269719666Y-149147000D01*
X269643476Y-149223190D01*
X269605380Y-149299380D01*
X269567285Y-149451761D01*
X269567285Y-149566047D01*
X269605380Y-149718428D01*
X269643476Y-149794619D01*
X269719666Y-149870809D01*
X269833952Y-149908904D01*
X270024428Y-149908904D01*
X269300619Y-149108904D02*
X268805380Y-149108904D01*
X269072047Y-149413666D01*
X268957761Y-149413666D01*
X268881571Y-149451761D01*
X268843476Y-149489857D01*
X268805380Y-149566047D01*
X268805380Y-149756523D01*
X268843476Y-149832714D01*
X268881571Y-149870809D01*
X268957761Y-149908904D01*
X269186333Y-149908904D01*
X269262523Y-149870809D01*
X269300619Y-149832714D01*
X268424428Y-149908904D02*
X268272047Y-149908904D01*
X268195857Y-149870809D01*
X268157761Y-149832714D01*
X268081571Y-149718428D01*
X268043476Y-149566047D01*
X268043476Y-149261285D01*
X268081571Y-149185095D01*
X268119666Y-149147000D01*
X268195857Y-149108904D01*
X268348238Y-149108904D01*
X268424428Y-149147000D01*
X268462523Y-149185095D01*
X268500619Y-149261285D01*
X268500619Y-149451761D01*
X268462523Y-149527952D01*
X268424428Y-149566047D01*
X268348238Y-149604142D01*
X268195857Y-149604142D01*
X268119666Y-149566047D01*
X268081571Y-149527952D01*
X268043476Y-149451761D01*
%TO.C,Reset*%
X46477095Y-134800380D02*
X46810428Y-134324190D01*
X47048523Y-134800380D02*
X47048523Y-133800380D01*
X46667571Y-133800380D01*
X46572333Y-133848000D01*
X46524714Y-133895619D01*
X46477095Y-133990857D01*
X46477095Y-134133714D01*
X46524714Y-134228952D01*
X46572333Y-134276571D01*
X46667571Y-134324190D01*
X47048523Y-134324190D01*
X45667571Y-134752761D02*
X45762809Y-134800380D01*
X45953285Y-134800380D01*
X46048523Y-134752761D01*
X46096142Y-134657523D01*
X46096142Y-134276571D01*
X46048523Y-134181333D01*
X45953285Y-134133714D01*
X45762809Y-134133714D01*
X45667571Y-134181333D01*
X45619952Y-134276571D01*
X45619952Y-134371809D01*
X46096142Y-134467047D01*
X45239000Y-134752761D02*
X45143761Y-134800380D01*
X44953285Y-134800380D01*
X44858047Y-134752761D01*
X44810428Y-134657523D01*
X44810428Y-134609904D01*
X44858047Y-134514666D01*
X44953285Y-134467047D01*
X45096142Y-134467047D01*
X45191380Y-134419428D01*
X45239000Y-134324190D01*
X45239000Y-134276571D01*
X45191380Y-134181333D01*
X45096142Y-134133714D01*
X44953285Y-134133714D01*
X44858047Y-134181333D01*
X44000904Y-134752761D02*
X44096142Y-134800380D01*
X44286619Y-134800380D01*
X44381857Y-134752761D01*
X44429476Y-134657523D01*
X44429476Y-134276571D01*
X44381857Y-134181333D01*
X44286619Y-134133714D01*
X44096142Y-134133714D01*
X44000904Y-134181333D01*
X43953285Y-134276571D01*
X43953285Y-134371809D01*
X44429476Y-134467047D01*
X43667571Y-134133714D02*
X43286619Y-134133714D01*
X43524714Y-133800380D02*
X43524714Y-134657523D01*
X43477095Y-134752761D01*
X43381857Y-134800380D01*
X43286619Y-134800380D01*
%TD*%
M02*
