%TF.GenerationSoftware,KiCad,Pcbnew,(5.1.10)-1*%
%TF.CreationDate,2022-03-22T21:52:09-04:00*%
%TF.ProjectId,Keeber40,4b656562-6572-4343-902e-6b696361645f,rev?*%
%TF.SameCoordinates,Original*%
%TF.FileFunction,Paste,Bot*%
%TF.FilePolarity,Positive*%
%FSLAX46Y46*%
G04 Gerber Fmt 4.6, Leading zero omitted, Abs format (unit mm)*
G04 Created by KiCad (PCBNEW (5.1.10)-1) date 2022-03-22 21:52:09*
%MOMM*%
%LPD*%
G01*
G04 APERTURE LIST*
%ADD10R,1.200000X1.400000*%
%ADD11R,1.700000X1.000000*%
G04 APERTURE END LIST*
D10*
%TO.C,D1*%
X63606000Y-90478000D03*
X60206000Y-90478000D03*
%TD*%
%TO.C,D2*%
X65987000Y-109526000D03*
X62587000Y-109526000D03*
%TD*%
%TO.C,D3*%
X70749000Y-128574000D03*
X67349000Y-128574000D03*
%TD*%
%TO.C,D4*%
X62587000Y-147622000D03*
X65987000Y-147622000D03*
%TD*%
%TO.C,D5*%
X79254000Y-90478000D03*
X82654000Y-90478000D03*
%TD*%
%TO.C,D6*%
X84016000Y-109526000D03*
X87416000Y-109526000D03*
%TD*%
%TO.C,D7*%
X87416000Y-147622000D03*
X84016000Y-147622000D03*
%TD*%
%TO.C,D8*%
X101702000Y-90478000D03*
X98302000Y-90478000D03*
%TD*%
%TO.C,D9*%
X106464000Y-109526000D03*
X103064000Y-109526000D03*
%TD*%
%TO.C,D10*%
X93540000Y-128574000D03*
X96940000Y-128574000D03*
%TD*%
%TO.C,D11*%
X103064000Y-147622000D03*
X106464000Y-147622000D03*
%TD*%
%TO.C,D12*%
X117350000Y-90478000D03*
X120750000Y-90478000D03*
%TD*%
%TO.C,D13*%
X122112000Y-109526000D03*
X125512000Y-109526000D03*
%TD*%
%TO.C,D14*%
X115988000Y-128574000D03*
X112588000Y-128574000D03*
%TD*%
%TO.C,D15*%
X139798000Y-90478000D03*
X136398000Y-90478000D03*
%TD*%
%TO.C,D16*%
X144560000Y-109526000D03*
X141160000Y-109526000D03*
%TD*%
%TO.C,D17*%
X135036000Y-128574000D03*
X131636000Y-128574000D03*
%TD*%
%TO.C,D18*%
X155446000Y-90478000D03*
X158846000Y-90478000D03*
%TD*%
%TO.C,D19*%
X160208000Y-109526000D03*
X163608000Y-109526000D03*
%TD*%
%TO.C,D20*%
X150684000Y-128574000D03*
X154084000Y-128574000D03*
%TD*%
%TO.C,D21*%
X177894000Y-90478000D03*
X174494000Y-90478000D03*
%TD*%
%TO.C,D22*%
X179256000Y-109526000D03*
X182656000Y-109526000D03*
%TD*%
%TO.C,D23*%
X169732000Y-128574000D03*
X173132000Y-128574000D03*
%TD*%
%TO.C,D24*%
X175513000Y-147622000D03*
X172113000Y-147622000D03*
%TD*%
%TO.C,D25*%
X193542000Y-90478000D03*
X196942000Y-90478000D03*
%TD*%
%TO.C,D26*%
X201704000Y-109526000D03*
X198304000Y-109526000D03*
%TD*%
%TO.C,D27*%
X192180000Y-128574000D03*
X188780000Y-128574000D03*
%TD*%
%TO.C,D28*%
X215990000Y-90478000D03*
X212590000Y-90478000D03*
%TD*%
%TO.C,D29*%
X217352000Y-109526000D03*
X220752000Y-109526000D03*
%TD*%
%TO.C,D30*%
X207828000Y-128574000D03*
X211228000Y-128574000D03*
%TD*%
%TO.C,D31*%
X231638000Y-90478000D03*
X235038000Y-90478000D03*
%TD*%
%TO.C,D32*%
X239800000Y-109526000D03*
X236400000Y-109526000D03*
%TD*%
%TO.C,D33*%
X230276000Y-128574000D03*
X226876000Y-128574000D03*
%TD*%
%TO.C,D34*%
X254086000Y-90478000D03*
X250686000Y-90478000D03*
%TD*%
%TO.C,D35*%
X265991000Y-109526000D03*
X262591000Y-109526000D03*
%TD*%
%TO.C,D36*%
X257829000Y-128574000D03*
X261229000Y-128574000D03*
%TD*%
%TO.C,D37*%
X243543000Y-147622000D03*
X246943000Y-147622000D03*
%TD*%
%TO.C,D38*%
X269734000Y-90478000D03*
X273134000Y-90478000D03*
%TD*%
%TO.C,D39*%
X267353000Y-147622000D03*
X270753000Y-147622000D03*
%TD*%
D11*
%TO.C,Reset*%
X48389000Y-136198000D03*
X42089000Y-136198000D03*
X48389000Y-139998000D03*
X42089000Y-139998000D03*
%TD*%
M02*
