M48
; DRILL file {KiCad (5.1.10)-1} date 03/22/22 21:52:12
; FORMAT={-:-/ absolute / inch / decimal}
; #@! TF.CreationDate,2022-03-22T21:52:12-04:00
; #@! TF.GenerationSoftware,Kicad,Pcbnew,(5.1.10)-1
; #@! TF.FileFunction,Plated,1,2,PTH
FMAT,2
INCH
T1C0.0157
T2C0.0320
T3C0.0402
T4C0.0591
%
G90
G05
T1
X1.3124Y-2.9997
X1.4061Y-2.9059
X1.4061Y-4.312
X1.4061Y-4.4058
X1.4061Y-4.5933
X1.4061Y-4.687
X1.4998Y-5.3432
X1.5936Y-2.8122
X1.8109Y-5.2164
X1.9685Y-5.062
X2.1113Y-4.1055
X2.1275Y-4.0466
X2.156Y-3.2809
X2.156Y-4.3292
X2.2498Y-3.5621
X2.2498Y-3.6559
X2.2498Y-3.7496
X2.2498Y-4.0308
X2.3435Y-4.4995
X2.3822Y-3.6812
X2.4314Y-4.4423
X2.4372Y-3.8433
X2.531Y-3.7496
X2.6247Y-4.4995
X2.6247Y-5.1557
X2.6247Y-5.9056
X2.8122Y-5.2494
X3.2809Y-3.7496
X3.4684Y-4.4995
X3.4684Y-5.9056
X3.5621Y-3.8433
X3.8433Y-5.2494
X4.0308Y-3.7496
X4.2183Y-4.4995
X4.2183Y-5.9056
X4.312Y-4.5933
X4.5933Y-5.2494
X4.7807Y-3.7496
X4.9682Y-4.4995
X5.062Y-4.4058
X5.3432Y-5.2494
X5.5307Y-3.7496
X5.7181Y-4.4995
X6.0931Y-5.2494
X6.2806Y-3.7496
X6.4681Y-4.4995
X6.843Y-5.2494
X6.9368Y-5.9056
X7.0305Y-3.7496
X7.218Y-4.4995
X7.593Y-5.2494
X7.7804Y-3.7496
X7.9679Y-4.4995
X8.3429Y-5.2494
X8.5304Y-3.7496
X8.7178Y-4.4995
X9.0928Y-5.2494
X9.2803Y-3.7496
X9.4678Y-4.4995
X9.749Y-5.9056
X10.0302Y-3.7496
X10.3114Y-5.2494
X10.4989Y-4.4995
X10.6864Y-5.9056
X10.7801Y-3.7496
T2
X1.4436Y-5.1557
X1.5436Y-5.1557
X1.6436Y-5.1557
X1.7436Y-5.1557
T3
X1.2436Y-3.0808
X1.2436Y-3.1808
X1.2436Y-3.2808
X1.2436Y-3.3808
X1.2436Y-3.4808
X1.2436Y-3.5808
X1.2436Y-3.6808
X1.2436Y-3.7808
X1.2436Y-3.8808
X1.2436Y-3.9808
X1.2436Y-4.0808
X1.2436Y-4.1808
X1.2436Y-4.2808
X1.2436Y-4.3808
X1.2436Y-4.4808
X1.2436Y-4.5808
X1.2436Y-4.6808
X1.2436Y-4.7808
X1.2436Y-4.8808
X1.2436Y-4.9808
X1.4936Y-4.9718
X1.5936Y-4.9718
X1.6936Y-4.9718
X1.9436Y-3.0808
X1.9436Y-3.1808
X1.9436Y-3.2808
X1.9436Y-3.3808
X1.9436Y-3.4808
X1.9436Y-3.5808
X1.9436Y-3.6808
X1.9436Y-3.7808
X1.9436Y-3.8808
X1.9436Y-3.9808
X1.9436Y-4.0808
X1.9436Y-4.1808
X1.9436Y-4.2808
X1.9436Y-4.3808
X1.9436Y-4.4808
X1.9436Y-4.5808
X1.9436Y-4.6808
X1.9436Y-4.7808
X1.9436Y-4.8808
X1.9436Y-4.9808
T4
G00X2.3329Y-3.1987
M15
G01X2.2853Y-3.2734
M16
G05
G00X2.4266Y-3.9486
M15
G01X2.379Y-4.0233
M16
G05
G00X2.4266Y-5.4485
M15
G01X2.379Y-5.5232
M16
G05
G00X2.5372Y-3.1747
M15
G01X2.5357Y-3.1975
M16
G05
G00X2.6141Y-4.6986
M15
G01X2.5665Y-4.7733
M16
G05
G00X2.631Y-3.9246
M15
G01X2.6294Y-3.9474
M16
G05
G00X2.631Y-5.4244
M15
G01X2.6294Y-5.4472
M16
G05
G00X2.8185Y-4.6745
M15
G01X2.8169Y-4.6973
M16
G05
G00X3.0828Y-3.1987
M15
G01X3.0352Y-3.2734
M16
G05
G00X3.2703Y-3.9486
M15
G01X3.2227Y-4.0233
M16
G05
G00X3.2703Y-5.4485
M15
G01X3.2227Y-5.5232
M16
G05
G00X3.2872Y-3.1747
M15
G01X3.2856Y-3.1975
M16
G05
G00X3.4746Y-3.9246
M15
G01X3.4731Y-3.9474
M16
G05
G00X3.4746Y-5.4244
M15
G01X3.4731Y-5.4472
M16
G05
G00X3.6453Y-4.6986
M15
G01X3.5977Y-4.7733
M16
G05
G00X3.8327Y-3.1987
M15
G01X3.7851Y-3.2734
M16
G05
G00X3.8496Y-4.6745
M15
G01X3.848Y-4.6973
M16
G05
G00X4.0202Y-3.9486
M15
G01X3.9726Y-4.0233
M16
G05
G00X4.0202Y-5.4485
M15
G01X3.9726Y-5.5232
M16
G05
G00X4.0371Y-3.1747
M15
G01X4.0355Y-3.1975
M16
G05
G00X4.2246Y-3.9246
M15
G01X4.223Y-3.9474
M16
G05
G00X4.2246Y-5.4244
M15
G01X4.223Y-5.4472
M16
G05
G00X4.3952Y-4.6986
M15
G01X4.3476Y-4.7733
M16
G05
G00X4.5827Y-3.1987
M15
G01X4.5351Y-3.2734
M16
G05
G00X4.5995Y-4.6745
M15
G01X4.598Y-4.6973
M16
G05
G00X4.7701Y-3.9486
M15
G01X4.7225Y-4.0233
M16
G05
G00X4.787Y-3.1747
M15
G01X4.7854Y-3.1975
M16
G05
G00X4.9745Y-3.9246
M15
G01X4.9729Y-3.9474
M16
G05
G00X5.1451Y-4.6986
M15
G01X5.0975Y-4.7733
M16
G05
G00X5.3326Y-3.1987
M15
G01X5.285Y-3.2734
M16
G05
G00X5.3494Y-4.6745
M15
G01X5.3479Y-4.6973
M16
G05
G00X5.5201Y-3.9486
M15
G01X5.4725Y-4.0233
M16
G05
G00X5.5369Y-3.1747
M15
G01X5.5354Y-3.1975
M16
G05
G00X5.7244Y-3.9246
M15
G01X5.7228Y-3.9474
M16
G05
G00X5.895Y-4.6986
M15
G01X5.8474Y-4.7733
M16
G05
G00X6.0825Y-3.1987
M15
G01X6.0349Y-3.2734
M16
G05
G00X6.0994Y-4.6745
M15
G01X6.0978Y-4.6973
M16
G05
G00X6.27Y-3.9486
M15
G01X6.2224Y-4.0233
M16
G05
G00X6.2868Y-3.1747
M15
G01X6.2853Y-3.1975
M16
G05
G00X6.4743Y-3.9246
M15
G01X6.4728Y-3.9474
M16
G05
G00X6.6449Y-4.6986
M15
G01X6.5973Y-4.7733
M16
G05
G00X6.7387Y-5.4485
M15
G01X6.6911Y-5.5232
M16
G05
G00X6.8324Y-3.1987
M15
G01X6.7848Y-3.2734
M16
G05
G00X6.8493Y-4.6745
M15
G01X6.8477Y-4.6973
M16
G05
G00X6.943Y-5.4244
M15
G01X6.9415Y-5.4472
M16
G05
G00X7.0199Y-3.9486
M15
G01X6.9723Y-4.0233
M16
G05
G00X7.0368Y-3.1747
M15
G01X7.0352Y-3.1975
M16
G05
G00X7.2242Y-3.9246
M15
G01X7.2227Y-3.9474
M16
G05
G00X7.3949Y-4.6986
M15
G01X7.3473Y-4.7733
M16
G05
G00X7.5823Y-3.1987
M15
G01X7.5347Y-3.2734
M16
G05
G00X7.5992Y-4.6745
M15
G01X7.5976Y-4.6973
M16
G05
G00X7.7698Y-3.9486
M15
G01X7.7222Y-4.0233
M16
G05
G00X7.7867Y-3.1747
M15
G01X7.7851Y-3.1975
M16
G05
G00X7.9742Y-3.9246
M15
G01X7.9726Y-3.9474
M16
G05
G00X8.1448Y-4.6986
M15
G01X8.0972Y-4.7733
M16
G05
G00X8.3323Y-3.1987
M15
G01X8.2847Y-3.2734
M16
G05
G00X8.3491Y-4.6745
M15
G01X8.3476Y-4.6973
M16
G05
G00X8.5197Y-3.9486
M15
G01X8.4721Y-4.0233
M16
G05
G00X8.5366Y-3.1747
M15
G01X8.5351Y-3.1975
M16
G05
G00X8.7241Y-3.9246
M15
G01X8.7225Y-3.9474
M16
G05
G00X8.8947Y-4.6986
M15
G01X8.8471Y-4.7733
M16
G05
G00X9.0822Y-3.1987
M15
G01X9.0346Y-3.2734
M16
G05
G00X9.099Y-4.6745
M15
G01X9.0975Y-4.6973
M16
G05
G00X9.2697Y-3.9486
M15
G01X9.2221Y-4.0233
M16
G05
G00X9.2865Y-3.1747
M15
G01X9.285Y-3.1975
M16
G05
G00X9.474Y-3.9246
M15
G01X9.4725Y-3.9474
M16
G05
G00X9.5509Y-5.4485
M15
G01X9.5033Y-5.5232
M16
G05
G00X9.7552Y-5.4244
M15
G01X9.7537Y-5.4472
M16
G05
G00X9.8321Y-3.1987
M15
G01X9.7845Y-3.2734
M16
G05
G00X10.0364Y-3.1747
M15
G01X10.0349Y-3.1975
M16
G05
G00X10.1133Y-4.6986
M15
G01X10.0657Y-4.7733
M16
G05
G00X10.3008Y-3.9486
M15
G01X10.2532Y-4.0233
M16
G05
G00X10.3177Y-4.6745
M15
G01X10.3161Y-4.6973
M16
G05
G00X10.4883Y-5.4485
M15
G01X10.4407Y-5.5232
M16
G05
G00X10.5051Y-3.9246
M15
G01X10.5036Y-3.9474
M16
G05
G00X10.582Y-3.1987
M15
G01X10.5344Y-3.2734
M16
G05
G00X10.6926Y-5.4244
M15
G01X10.6911Y-5.4472
M16
G05
G00X10.7864Y-3.1747
M15
G01X10.7848Y-3.1975
M16
G05
T0
M30
