M48
; DRILL file {KiCad (5.1.10)-1} date 03/22/22 21:52:12
; FORMAT={-:-/ absolute / inch / decimal}
; #@! TF.CreationDate,2022-03-22T21:52:12-04:00
; #@! TF.GenerationSoftware,Kicad,Pcbnew,(5.1.10)-1
; #@! TF.FileFunction,NonPlated,1,2,NPTH
FMAT,2
INCH
T1C0.0591
T2C0.0670
T3C0.0709
T4C0.0866
T5C0.1200
T6C0.1570
%
G90
G05
T1
X1.4981Y-3.2052
X1.6891Y-3.2052
T2
X2.2372Y-3.3746
X2.331Y-4.1246
X2.331Y-5.6244
X2.5185Y-4.8745
X2.6372Y-3.3746
X2.731Y-4.1246
X2.731Y-5.6244
X2.9185Y-4.8745
X2.9872Y-3.3746
X3.1746Y-4.1246
X3.1746Y-5.6244
X3.3872Y-3.3746
X3.5496Y-4.8745
X3.5746Y-4.1246
X3.5746Y-5.6244
X3.7371Y-3.3746
X3.9246Y-4.1246
X3.9246Y-5.6244
X3.9496Y-4.8745
X4.1371Y-3.3746
X4.2995Y-4.8745
X4.3246Y-4.1246
X4.3246Y-5.6244
X4.487Y-3.3746
X4.6745Y-4.1246
X4.6995Y-4.8745
X4.887Y-3.3746
X5.0494Y-4.8745
X5.0745Y-4.1246
X5.2369Y-3.3746
X5.4244Y-4.1246
X5.4494Y-4.8745
X5.6369Y-3.3746
X5.7994Y-4.8745
X5.8244Y-4.1246
X5.9869Y-3.3746
X6.1743Y-4.1246
X6.1994Y-4.8745
X6.3869Y-3.3746
X6.5493Y-4.8745
X6.5743Y-4.1246
X6.643Y-5.6244
X6.7368Y-3.3746
X6.9243Y-4.1246
X6.9493Y-4.8745
X7.043Y-5.6244
X7.1368Y-3.3746
X7.2992Y-4.8745
X7.3243Y-4.1246
X7.4867Y-3.3746
X7.6742Y-4.1246
X7.6992Y-4.8745
X7.8867Y-3.3746
X8.0491Y-4.8745
X8.0742Y-4.1246
X8.2366Y-3.3746
X8.4241Y-4.1246
X8.4491Y-4.8745
X8.6366Y-3.3746
X8.7991Y-4.8745
X8.8241Y-4.1246
X8.9865Y-3.3746
X9.174Y-4.1246
X9.1991Y-4.8745
X9.3865Y-3.3746
X9.4552Y-5.6244
X9.574Y-4.1246
X9.7365Y-3.3746
X9.8552Y-5.6244
X10.0177Y-4.8745
X10.1365Y-3.3746
X10.2052Y-4.1246
X10.3926Y-5.6244
X10.4177Y-4.8745
X10.4864Y-3.3746
X10.6052Y-4.1246
X10.7926Y-5.6244
X10.8864Y-3.3746
T3
X1.4863Y-3.0859
X1.7009Y-3.0859
T4
X1.2186Y-2.8122
X1.2186Y-6.0931
X10.9676Y-2.8122
X10.9676Y-6.0931
T5
X4.873Y-5.8994
X8.813Y-5.8994
X9.7477Y-4.5995
X10.6877Y-4.5995
T6
X2.4372Y-3.3746
X2.531Y-4.1246
X2.531Y-5.6244
X2.7185Y-4.8745
X3.1872Y-3.3746
X3.3746Y-4.1246
X3.3746Y-5.6244
X3.7496Y-4.8745
X3.9371Y-3.3746
X4.1246Y-4.1246
X4.1246Y-5.6244
X4.4995Y-4.8745
X4.687Y-3.3746
X4.873Y-5.2994
X4.8745Y-4.1246
X5.2494Y-4.8745
X5.4369Y-3.3746
X5.6244Y-4.1246
X5.9994Y-4.8745
X6.1869Y-3.3746
X6.3743Y-4.1246
X6.7493Y-4.8745
X6.843Y-5.6244
X6.9368Y-3.3746
X7.1243Y-4.1246
X7.4992Y-4.8745
X7.6867Y-3.3746
X7.8742Y-4.1246
X8.2491Y-4.8745
X8.4366Y-3.3746
X8.6241Y-4.1246
X8.813Y-5.2994
X8.9991Y-4.8745
X9.1865Y-3.3746
X9.374Y-4.1246
X9.6552Y-5.6244
X9.7477Y-5.1995
X9.9365Y-3.3746
X10.2177Y-4.8745
X10.4052Y-4.1246
X10.5926Y-5.6244
X10.6864Y-3.3746
X10.6877Y-5.1995
T0
M30
