%TF.GenerationSoftware,KiCad,Pcbnew,(5.1.10)-1*%
%TF.CreationDate,2022-03-22T21:52:09-04:00*%
%TF.ProjectId,Keeber40,4b656562-6572-4343-902e-6b696361645f,rev?*%
%TF.SameCoordinates,Original*%
%TF.FileFunction,Soldermask,Bot*%
%TF.FilePolarity,Negative*%
%FSLAX46Y46*%
G04 Gerber Fmt 4.6, Leading zero omitted, Abs format (unit mm)*
G04 Created by KiCad (PCBNEW (5.1.10)-1) date 2022-03-22 21:52:09*
%MOMM*%
%LPD*%
G01*
G04 APERTURE LIST*
%ADD10C,3.987800*%
%ADD11C,1.701800*%
%ADD12C,3.048000*%
%ADD13C,2.200000*%
%ADD14O,1.700000X1.700000*%
%ADD15R,1.700000X1.700000*%
%ADD16R,3.500000X1.700000*%
%ADD17O,1.800000X1.800000*%
%ADD18O,1.500000X1.500000*%
%ADD19R,1.700000X3.500000*%
%ADD20R,1.200000X1.400000*%
%ADD21C,1.397000*%
%ADD22R,1.700000X1.000000*%
G04 APERTURE END LIST*
D10*
%TO.C,K36*%
X259529000Y-123812000D03*
D11*
X254449000Y-123812000D03*
X264609000Y-123812000D03*
D12*
X247591000Y-116827000D03*
X271467000Y-116827000D03*
D10*
X247591000Y-132067000D03*
X271467000Y-132067000D03*
G36*
G01*
X254615299Y-120569190D02*
X255824223Y-118671560D01*
G75*
G02*
X257550087Y-118288946I1054239J-671625D01*
G01*
X257550087Y-118288946D01*
G75*
G02*
X257932701Y-120014810I-671625J-1054239D01*
G01*
X256723777Y-121912440D01*
G75*
G02*
X254997913Y-122295054I-1054239J671625D01*
G01*
X254997913Y-122295054D01*
G75*
G02*
X254615299Y-120569190I671625J1054239D01*
G01*
G37*
G36*
G01*
X260782171Y-119226309D02*
X260821619Y-118647653D01*
G75*
G02*
X262153743Y-117485567I1247105J-85019D01*
G01*
X262153743Y-117485567D01*
G75*
G02*
X263315829Y-118817691I-85019J-1247105D01*
G01*
X263276381Y-119396347D01*
G75*
G02*
X261944257Y-120558433I-1247105J85019D01*
G01*
X261944257Y-120558433D01*
G75*
G02*
X260782171Y-119226309I85019J1247105D01*
G01*
G37*
%TD*%
%TO.C,K21*%
G36*
G01*
X177447171Y-81130309D02*
X177486619Y-80551653D01*
G75*
G02*
X178818743Y-79389567I1247105J-85019D01*
G01*
X178818743Y-79389567D01*
G75*
G02*
X179980829Y-80721691I-85019J-1247105D01*
G01*
X179941381Y-81300347D01*
G75*
G02*
X178609257Y-82462433I-1247105J85019D01*
G01*
X178609257Y-82462433D01*
G75*
G02*
X177447171Y-81130309I85019J1247105D01*
G01*
G37*
G36*
G01*
X171280299Y-82473190D02*
X172489223Y-80575560D01*
G75*
G02*
X174215087Y-80192946I1054239J-671625D01*
G01*
X174215087Y-80192946D01*
G75*
G02*
X174597701Y-81918810I-671625J-1054239D01*
G01*
X173388777Y-83816440D01*
G75*
G02*
X171662913Y-84199054I-1054239J671625D01*
G01*
X171662913Y-84199054D01*
G75*
G02*
X171280299Y-82473190I671625J1054239D01*
G01*
G37*
D11*
X181274000Y-85716000D03*
X171114000Y-85716000D03*
D10*
X176194000Y-85716000D03*
%TD*%
D13*
%TO.C,M2*%
X30953000Y-71430000D03*
%TD*%
%TO.C,M2*%
X30953000Y-154765000D03*
%TD*%
%TO.C,M2*%
X278577000Y-154765000D03*
%TD*%
%TO.C,M2*%
X278577000Y-71430000D03*
%TD*%
D14*
%TO.C,PicOwo*%
X49367000Y-78253000D03*
X49367000Y-80793000D03*
D15*
X49367000Y-83333000D03*
D14*
X49367000Y-85873000D03*
X49367000Y-88413000D03*
X49367000Y-90953000D03*
X49367000Y-93493000D03*
D15*
X49367000Y-96033000D03*
D14*
X49367000Y-98573000D03*
X49367000Y-101113000D03*
X49367000Y-103653000D03*
X49367000Y-106193000D03*
D15*
X49367000Y-108733000D03*
D14*
X49367000Y-111273000D03*
X49367000Y-113813000D03*
X49367000Y-116353000D03*
X49367000Y-118893000D03*
D15*
X49367000Y-121433000D03*
D14*
X49367000Y-123973000D03*
X49367000Y-126513000D03*
X31587000Y-126513000D03*
X31587000Y-123973000D03*
D15*
X31587000Y-121433000D03*
D14*
X31587000Y-118893000D03*
X31587000Y-116353000D03*
X31587000Y-113813000D03*
X31587000Y-111273000D03*
D15*
X31587000Y-108733000D03*
D14*
X31587000Y-106193000D03*
X31587000Y-103653000D03*
X31587000Y-101113000D03*
X31587000Y-98573000D03*
D15*
X31587000Y-96033000D03*
D14*
X31587000Y-93493000D03*
X31587000Y-90953000D03*
X31587000Y-88413000D03*
X31587000Y-85873000D03*
D15*
X31587000Y-83333000D03*
D14*
X31587000Y-80793000D03*
X31587000Y-78253000D03*
D16*
X50267000Y-78253000D03*
X50267000Y-80793000D03*
X50267000Y-83333000D03*
X50267000Y-85873000D03*
X50267000Y-88413000D03*
X50267000Y-90953000D03*
X50267000Y-93493000D03*
X50267000Y-96033000D03*
X50267000Y-98573000D03*
X50267000Y-101113000D03*
X50267000Y-103653000D03*
X50267000Y-106193000D03*
X50267000Y-108733000D03*
X50267000Y-111273000D03*
X50267000Y-113813000D03*
X50267000Y-116353000D03*
X50267000Y-118893000D03*
X50267000Y-121433000D03*
X50267000Y-123973000D03*
X50267000Y-126513000D03*
X30687000Y-78253000D03*
X30687000Y-80793000D03*
X30687000Y-83333000D03*
X30687000Y-85873000D03*
X30687000Y-88413000D03*
X30687000Y-90953000D03*
X30687000Y-93493000D03*
X30687000Y-96033000D03*
X30687000Y-98573000D03*
X30687000Y-101113000D03*
X30687000Y-103653000D03*
X30687000Y-106193000D03*
X30687000Y-108733000D03*
X30687000Y-111273000D03*
X30687000Y-113813000D03*
X30687000Y-116353000D03*
X30687000Y-118893000D03*
X30687000Y-121433000D03*
X30687000Y-123973000D03*
X30687000Y-126513000D03*
D17*
X43202000Y-78383000D03*
X37752000Y-78383000D03*
D18*
X42902000Y-81413000D03*
X38052000Y-81413000D03*
D19*
X43017000Y-127183000D03*
D14*
X43017000Y-126283000D03*
D19*
X40477000Y-127183000D03*
D15*
X40477000Y-126283000D03*
D19*
X37937000Y-127183000D03*
D14*
X37937000Y-126283000D03*
%TD*%
D10*
%TO.C,K24*%
X173813000Y-142860000D03*
D11*
X168733000Y-142860000D03*
X178893000Y-142860000D03*
D12*
X223851000Y-149845000D03*
X123775000Y-149845000D03*
D10*
X223851000Y-134605000D03*
X123775000Y-134605000D03*
G36*
G01*
X168899299Y-139617190D02*
X170108223Y-137719560D01*
G75*
G02*
X171834087Y-137336946I1054239J-671625D01*
G01*
X171834087Y-137336946D01*
G75*
G02*
X172216701Y-139062810I-671625J-1054239D01*
G01*
X171007777Y-140960440D01*
G75*
G02*
X169281913Y-141343054I-1054239J671625D01*
G01*
X169281913Y-141343054D01*
G75*
G02*
X168899299Y-139617190I671625J1054239D01*
G01*
G37*
G36*
G01*
X175066171Y-138274309D02*
X175105619Y-137695653D01*
G75*
G02*
X176437743Y-136533567I1247105J-85019D01*
G01*
X176437743Y-136533567D01*
G75*
G02*
X177599829Y-137865691I-85019J-1247105D01*
G01*
X177560381Y-138444347D01*
G75*
G02*
X176228257Y-139606433I-1247105J85019D01*
G01*
X176228257Y-139606433D01*
G75*
G02*
X175066171Y-138274309I85019J1247105D01*
G01*
G37*
%TD*%
D20*
%TO.C,D1*%
X63606000Y-90478000D03*
X60206000Y-90478000D03*
%TD*%
%TO.C,D2*%
X65987000Y-109526000D03*
X62587000Y-109526000D03*
%TD*%
%TO.C,D3*%
X70749000Y-128574000D03*
X67349000Y-128574000D03*
%TD*%
%TO.C,D4*%
X62587000Y-147622000D03*
X65987000Y-147622000D03*
%TD*%
%TO.C,D5*%
X79254000Y-90478000D03*
X82654000Y-90478000D03*
%TD*%
%TO.C,D6*%
X84016000Y-109526000D03*
X87416000Y-109526000D03*
%TD*%
%TO.C,D7*%
X87416000Y-147622000D03*
X84016000Y-147622000D03*
%TD*%
%TO.C,D8*%
X101702000Y-90478000D03*
X98302000Y-90478000D03*
%TD*%
%TO.C,D9*%
X106464000Y-109526000D03*
X103064000Y-109526000D03*
%TD*%
%TO.C,D10*%
X93540000Y-128574000D03*
X96940000Y-128574000D03*
%TD*%
%TO.C,D11*%
X103064000Y-147622000D03*
X106464000Y-147622000D03*
%TD*%
%TO.C,D12*%
X117350000Y-90478000D03*
X120750000Y-90478000D03*
%TD*%
%TO.C,D13*%
X122112000Y-109526000D03*
X125512000Y-109526000D03*
%TD*%
%TO.C,D14*%
X115988000Y-128574000D03*
X112588000Y-128574000D03*
%TD*%
%TO.C,D15*%
X139798000Y-90478000D03*
X136398000Y-90478000D03*
%TD*%
%TO.C,D16*%
X144560000Y-109526000D03*
X141160000Y-109526000D03*
%TD*%
%TO.C,D17*%
X135036000Y-128574000D03*
X131636000Y-128574000D03*
%TD*%
%TO.C,D18*%
X155446000Y-90478000D03*
X158846000Y-90478000D03*
%TD*%
%TO.C,D19*%
X160208000Y-109526000D03*
X163608000Y-109526000D03*
%TD*%
%TO.C,D20*%
X150684000Y-128574000D03*
X154084000Y-128574000D03*
%TD*%
%TO.C,D21*%
X177894000Y-90478000D03*
X174494000Y-90478000D03*
%TD*%
%TO.C,D22*%
X179256000Y-109526000D03*
X182656000Y-109526000D03*
%TD*%
%TO.C,D23*%
X169732000Y-128574000D03*
X173132000Y-128574000D03*
%TD*%
%TO.C,D24*%
X175513000Y-147622000D03*
X172113000Y-147622000D03*
%TD*%
%TO.C,D25*%
X193542000Y-90478000D03*
X196942000Y-90478000D03*
%TD*%
%TO.C,D26*%
X201704000Y-109526000D03*
X198304000Y-109526000D03*
%TD*%
%TO.C,D27*%
X192180000Y-128574000D03*
X188780000Y-128574000D03*
%TD*%
%TO.C,D28*%
X215990000Y-90478000D03*
X212590000Y-90478000D03*
%TD*%
%TO.C,D29*%
X217352000Y-109526000D03*
X220752000Y-109526000D03*
%TD*%
%TO.C,D30*%
X207828000Y-128574000D03*
X211228000Y-128574000D03*
%TD*%
%TO.C,D31*%
X231638000Y-90478000D03*
X235038000Y-90478000D03*
%TD*%
%TO.C,D32*%
X239800000Y-109526000D03*
X236400000Y-109526000D03*
%TD*%
%TO.C,D33*%
X230276000Y-128574000D03*
X226876000Y-128574000D03*
%TD*%
%TO.C,D34*%
X254086000Y-90478000D03*
X250686000Y-90478000D03*
%TD*%
%TO.C,D35*%
X265991000Y-109526000D03*
X262591000Y-109526000D03*
%TD*%
%TO.C,D36*%
X257829000Y-128574000D03*
X261229000Y-128574000D03*
%TD*%
%TO.C,D37*%
X243543000Y-147622000D03*
X246943000Y-147622000D03*
%TD*%
%TO.C,D38*%
X269734000Y-90478000D03*
X273134000Y-90478000D03*
%TD*%
%TO.C,D39*%
X267353000Y-147622000D03*
X270753000Y-147622000D03*
%TD*%
D10*
%TO.C,K1*%
X61906000Y-85716000D03*
D11*
X56826000Y-85716000D03*
X66986000Y-85716000D03*
G36*
G01*
X56992299Y-82473190D02*
X58201223Y-80575560D01*
G75*
G02*
X59927087Y-80192946I1054239J-671625D01*
G01*
X59927087Y-80192946D01*
G75*
G02*
X60309701Y-81918810I-671625J-1054239D01*
G01*
X59100777Y-83816440D01*
G75*
G02*
X57374913Y-84199054I-1054239J671625D01*
G01*
X57374913Y-84199054D01*
G75*
G02*
X56992299Y-82473190I671625J1054239D01*
G01*
G37*
G36*
G01*
X63159171Y-81130309D02*
X63198619Y-80551653D01*
G75*
G02*
X64530743Y-79389567I1247105J-85019D01*
G01*
X64530743Y-79389567D01*
G75*
G02*
X65692829Y-80721691I-85019J-1247105D01*
G01*
X65653381Y-81300347D01*
G75*
G02*
X64321257Y-82462433I-1247105J85019D01*
G01*
X64321257Y-82462433D01*
G75*
G02*
X63159171Y-81130309I85019J1247105D01*
G01*
G37*
%TD*%
%TO.C,K2*%
G36*
G01*
X65540171Y-100178309D02*
X65579619Y-99599653D01*
G75*
G02*
X66911743Y-98437567I1247105J-85019D01*
G01*
X66911743Y-98437567D01*
G75*
G02*
X68073829Y-99769691I-85019J-1247105D01*
G01*
X68034381Y-100348347D01*
G75*
G02*
X66702257Y-101510433I-1247105J85019D01*
G01*
X66702257Y-101510433D01*
G75*
G02*
X65540171Y-100178309I85019J1247105D01*
G01*
G37*
G36*
G01*
X59373299Y-101521190D02*
X60582223Y-99623560D01*
G75*
G02*
X62308087Y-99240946I1054239J-671625D01*
G01*
X62308087Y-99240946D01*
G75*
G02*
X62690701Y-100966810I-671625J-1054239D01*
G01*
X61481777Y-102864440D01*
G75*
G02*
X59755913Y-103247054I-1054239J671625D01*
G01*
X59755913Y-103247054D01*
G75*
G02*
X59373299Y-101521190I671625J1054239D01*
G01*
G37*
X69367000Y-104764000D03*
X59207000Y-104764000D03*
D10*
X64287000Y-104764000D03*
%TD*%
%TO.C,K3*%
X69049000Y-123812000D03*
D11*
X63969000Y-123812000D03*
X74129000Y-123812000D03*
G36*
G01*
X64135299Y-120569190D02*
X65344223Y-118671560D01*
G75*
G02*
X67070087Y-118288946I1054239J-671625D01*
G01*
X67070087Y-118288946D01*
G75*
G02*
X67452701Y-120014810I-671625J-1054239D01*
G01*
X66243777Y-121912440D01*
G75*
G02*
X64517913Y-122295054I-1054239J671625D01*
G01*
X64517913Y-122295054D01*
G75*
G02*
X64135299Y-120569190I671625J1054239D01*
G01*
G37*
G36*
G01*
X70302171Y-119226309D02*
X70341619Y-118647653D01*
G75*
G02*
X71673743Y-117485567I1247105J-85019D01*
G01*
X71673743Y-117485567D01*
G75*
G02*
X72835829Y-118817691I-85019J-1247105D01*
G01*
X72796381Y-119396347D01*
G75*
G02*
X71464257Y-120558433I-1247105J85019D01*
G01*
X71464257Y-120558433D01*
G75*
G02*
X70302171Y-119226309I85019J1247105D01*
G01*
G37*
%TD*%
D10*
%TO.C,K4*%
X64287000Y-142860000D03*
D11*
X59207000Y-142860000D03*
X69367000Y-142860000D03*
G36*
G01*
X59373299Y-139617190D02*
X60582223Y-137719560D01*
G75*
G02*
X62308087Y-137336946I1054239J-671625D01*
G01*
X62308087Y-137336946D01*
G75*
G02*
X62690701Y-139062810I-671625J-1054239D01*
G01*
X61481777Y-140960440D01*
G75*
G02*
X59755913Y-141343054I-1054239J671625D01*
G01*
X59755913Y-141343054D01*
G75*
G02*
X59373299Y-139617190I671625J1054239D01*
G01*
G37*
G36*
G01*
X65540171Y-138274309D02*
X65579619Y-137695653D01*
G75*
G02*
X66911743Y-136533567I1247105J-85019D01*
G01*
X66911743Y-136533567D01*
G75*
G02*
X68073829Y-137865691I-85019J-1247105D01*
G01*
X68034381Y-138444347D01*
G75*
G02*
X66702257Y-139606433I-1247105J85019D01*
G01*
X66702257Y-139606433D01*
G75*
G02*
X65540171Y-138274309I85019J1247105D01*
G01*
G37*
%TD*%
D10*
%TO.C,K5*%
X80954000Y-85716000D03*
D11*
X75874000Y-85716000D03*
X86034000Y-85716000D03*
G36*
G01*
X76040299Y-82473190D02*
X77249223Y-80575560D01*
G75*
G02*
X78975087Y-80192946I1054239J-671625D01*
G01*
X78975087Y-80192946D01*
G75*
G02*
X79357701Y-81918810I-671625J-1054239D01*
G01*
X78148777Y-83816440D01*
G75*
G02*
X76422913Y-84199054I-1054239J671625D01*
G01*
X76422913Y-84199054D01*
G75*
G02*
X76040299Y-82473190I671625J1054239D01*
G01*
G37*
G36*
G01*
X82207171Y-81130309D02*
X82246619Y-80551653D01*
G75*
G02*
X83578743Y-79389567I1247105J-85019D01*
G01*
X83578743Y-79389567D01*
G75*
G02*
X84740829Y-80721691I-85019J-1247105D01*
G01*
X84701381Y-81300347D01*
G75*
G02*
X83369257Y-82462433I-1247105J85019D01*
G01*
X83369257Y-82462433D01*
G75*
G02*
X82207171Y-81130309I85019J1247105D01*
G01*
G37*
%TD*%
D10*
%TO.C,K6*%
X85716000Y-104764000D03*
D11*
X80636000Y-104764000D03*
X90796000Y-104764000D03*
G36*
G01*
X80802299Y-101521190D02*
X82011223Y-99623560D01*
G75*
G02*
X83737087Y-99240946I1054239J-671625D01*
G01*
X83737087Y-99240946D01*
G75*
G02*
X84119701Y-100966810I-671625J-1054239D01*
G01*
X82910777Y-102864440D01*
G75*
G02*
X81184913Y-103247054I-1054239J671625D01*
G01*
X81184913Y-103247054D01*
G75*
G02*
X80802299Y-101521190I671625J1054239D01*
G01*
G37*
G36*
G01*
X86969171Y-100178309D02*
X87008619Y-99599653D01*
G75*
G02*
X88340743Y-98437567I1247105J-85019D01*
G01*
X88340743Y-98437567D01*
G75*
G02*
X89502829Y-99769691I-85019J-1247105D01*
G01*
X89463381Y-100348347D01*
G75*
G02*
X88131257Y-101510433I-1247105J85019D01*
G01*
X88131257Y-101510433D01*
G75*
G02*
X86969171Y-100178309I85019J1247105D01*
G01*
G37*
%TD*%
%TO.C,K7*%
G36*
G01*
X86969171Y-138274309D02*
X87008619Y-137695653D01*
G75*
G02*
X88340743Y-136533567I1247105J-85019D01*
G01*
X88340743Y-136533567D01*
G75*
G02*
X89502829Y-137865691I-85019J-1247105D01*
G01*
X89463381Y-138444347D01*
G75*
G02*
X88131257Y-139606433I-1247105J85019D01*
G01*
X88131257Y-139606433D01*
G75*
G02*
X86969171Y-138274309I85019J1247105D01*
G01*
G37*
G36*
G01*
X80802299Y-139617190D02*
X82011223Y-137719560D01*
G75*
G02*
X83737087Y-137336946I1054239J-671625D01*
G01*
X83737087Y-137336946D01*
G75*
G02*
X84119701Y-139062810I-671625J-1054239D01*
G01*
X82910777Y-140960440D01*
G75*
G02*
X81184913Y-141343054I-1054239J671625D01*
G01*
X81184913Y-141343054D01*
G75*
G02*
X80802299Y-139617190I671625J1054239D01*
G01*
G37*
X90796000Y-142860000D03*
X80636000Y-142860000D03*
D10*
X85716000Y-142860000D03*
%TD*%
%TO.C,K8*%
G36*
G01*
X101255171Y-81130309D02*
X101294619Y-80551653D01*
G75*
G02*
X102626743Y-79389567I1247105J-85019D01*
G01*
X102626743Y-79389567D01*
G75*
G02*
X103788829Y-80721691I-85019J-1247105D01*
G01*
X103749381Y-81300347D01*
G75*
G02*
X102417257Y-82462433I-1247105J85019D01*
G01*
X102417257Y-82462433D01*
G75*
G02*
X101255171Y-81130309I85019J1247105D01*
G01*
G37*
G36*
G01*
X95088299Y-82473190D02*
X96297223Y-80575560D01*
G75*
G02*
X98023087Y-80192946I1054239J-671625D01*
G01*
X98023087Y-80192946D01*
G75*
G02*
X98405701Y-81918810I-671625J-1054239D01*
G01*
X97196777Y-83816440D01*
G75*
G02*
X95470913Y-84199054I-1054239J671625D01*
G01*
X95470913Y-84199054D01*
G75*
G02*
X95088299Y-82473190I671625J1054239D01*
G01*
G37*
D11*
X105082000Y-85716000D03*
X94922000Y-85716000D03*
D10*
X100002000Y-85716000D03*
%TD*%
%TO.C,K9*%
G36*
G01*
X106017171Y-100178309D02*
X106056619Y-99599653D01*
G75*
G02*
X107388743Y-98437567I1247105J-85019D01*
G01*
X107388743Y-98437567D01*
G75*
G02*
X108550829Y-99769691I-85019J-1247105D01*
G01*
X108511381Y-100348347D01*
G75*
G02*
X107179257Y-101510433I-1247105J85019D01*
G01*
X107179257Y-101510433D01*
G75*
G02*
X106017171Y-100178309I85019J1247105D01*
G01*
G37*
G36*
G01*
X99850299Y-101521190D02*
X101059223Y-99623560D01*
G75*
G02*
X102785087Y-99240946I1054239J-671625D01*
G01*
X102785087Y-99240946D01*
G75*
G02*
X103167701Y-100966810I-671625J-1054239D01*
G01*
X101958777Y-102864440D01*
G75*
G02*
X100232913Y-103247054I-1054239J671625D01*
G01*
X100232913Y-103247054D01*
G75*
G02*
X99850299Y-101521190I671625J1054239D01*
G01*
G37*
D11*
X109844000Y-104764000D03*
X99684000Y-104764000D03*
D10*
X104764000Y-104764000D03*
%TD*%
%TO.C,K10*%
G36*
G01*
X96493171Y-119226309D02*
X96532619Y-118647653D01*
G75*
G02*
X97864743Y-117485567I1247105J-85019D01*
G01*
X97864743Y-117485567D01*
G75*
G02*
X99026829Y-118817691I-85019J-1247105D01*
G01*
X98987381Y-119396347D01*
G75*
G02*
X97655257Y-120558433I-1247105J85019D01*
G01*
X97655257Y-120558433D01*
G75*
G02*
X96493171Y-119226309I85019J1247105D01*
G01*
G37*
G36*
G01*
X90326299Y-120569190D02*
X91535223Y-118671560D01*
G75*
G02*
X93261087Y-118288946I1054239J-671625D01*
G01*
X93261087Y-118288946D01*
G75*
G02*
X93643701Y-120014810I-671625J-1054239D01*
G01*
X92434777Y-121912440D01*
G75*
G02*
X90708913Y-122295054I-1054239J671625D01*
G01*
X90708913Y-122295054D01*
G75*
G02*
X90326299Y-120569190I671625J1054239D01*
G01*
G37*
D11*
X100320000Y-123812000D03*
X90160000Y-123812000D03*
D10*
X95240000Y-123812000D03*
%TD*%
%TO.C,K11*%
G36*
G01*
X106017171Y-138274309D02*
X106056619Y-137695653D01*
G75*
G02*
X107388743Y-136533567I1247105J-85019D01*
G01*
X107388743Y-136533567D01*
G75*
G02*
X108550829Y-137865691I-85019J-1247105D01*
G01*
X108511381Y-138444347D01*
G75*
G02*
X107179257Y-139606433I-1247105J85019D01*
G01*
X107179257Y-139606433D01*
G75*
G02*
X106017171Y-138274309I85019J1247105D01*
G01*
G37*
G36*
G01*
X99850299Y-139617190D02*
X101059223Y-137719560D01*
G75*
G02*
X102785087Y-137336946I1054239J-671625D01*
G01*
X102785087Y-137336946D01*
G75*
G02*
X103167701Y-139062810I-671625J-1054239D01*
G01*
X101958777Y-140960440D01*
G75*
G02*
X100232913Y-141343054I-1054239J671625D01*
G01*
X100232913Y-141343054D01*
G75*
G02*
X99850299Y-139617190I671625J1054239D01*
G01*
G37*
D11*
X109844000Y-142860000D03*
X99684000Y-142860000D03*
D10*
X104764000Y-142860000D03*
%TD*%
%TO.C,K12*%
X119050000Y-85716000D03*
D11*
X113970000Y-85716000D03*
X124130000Y-85716000D03*
G36*
G01*
X114136299Y-82473190D02*
X115345223Y-80575560D01*
G75*
G02*
X117071087Y-80192946I1054239J-671625D01*
G01*
X117071087Y-80192946D01*
G75*
G02*
X117453701Y-81918810I-671625J-1054239D01*
G01*
X116244777Y-83816440D01*
G75*
G02*
X114518913Y-84199054I-1054239J671625D01*
G01*
X114518913Y-84199054D01*
G75*
G02*
X114136299Y-82473190I671625J1054239D01*
G01*
G37*
G36*
G01*
X120303171Y-81130309D02*
X120342619Y-80551653D01*
G75*
G02*
X121674743Y-79389567I1247105J-85019D01*
G01*
X121674743Y-79389567D01*
G75*
G02*
X122836829Y-80721691I-85019J-1247105D01*
G01*
X122797381Y-81300347D01*
G75*
G02*
X121465257Y-82462433I-1247105J85019D01*
G01*
X121465257Y-82462433D01*
G75*
G02*
X120303171Y-81130309I85019J1247105D01*
G01*
G37*
%TD*%
D10*
%TO.C,K13*%
X123812000Y-104764000D03*
D11*
X118732000Y-104764000D03*
X128892000Y-104764000D03*
G36*
G01*
X118898299Y-101521190D02*
X120107223Y-99623560D01*
G75*
G02*
X121833087Y-99240946I1054239J-671625D01*
G01*
X121833087Y-99240946D01*
G75*
G02*
X122215701Y-100966810I-671625J-1054239D01*
G01*
X121006777Y-102864440D01*
G75*
G02*
X119280913Y-103247054I-1054239J671625D01*
G01*
X119280913Y-103247054D01*
G75*
G02*
X118898299Y-101521190I671625J1054239D01*
G01*
G37*
G36*
G01*
X125065171Y-100178309D02*
X125104619Y-99599653D01*
G75*
G02*
X126436743Y-98437567I1247105J-85019D01*
G01*
X126436743Y-98437567D01*
G75*
G02*
X127598829Y-99769691I-85019J-1247105D01*
G01*
X127559381Y-100348347D01*
G75*
G02*
X126227257Y-101510433I-1247105J85019D01*
G01*
X126227257Y-101510433D01*
G75*
G02*
X125065171Y-100178309I85019J1247105D01*
G01*
G37*
%TD*%
D10*
%TO.C,K14*%
X114288000Y-123812000D03*
D11*
X109208000Y-123812000D03*
X119368000Y-123812000D03*
G36*
G01*
X109374299Y-120569190D02*
X110583223Y-118671560D01*
G75*
G02*
X112309087Y-118288946I1054239J-671625D01*
G01*
X112309087Y-118288946D01*
G75*
G02*
X112691701Y-120014810I-671625J-1054239D01*
G01*
X111482777Y-121912440D01*
G75*
G02*
X109756913Y-122295054I-1054239J671625D01*
G01*
X109756913Y-122295054D01*
G75*
G02*
X109374299Y-120569190I671625J1054239D01*
G01*
G37*
G36*
G01*
X115541171Y-119226309D02*
X115580619Y-118647653D01*
G75*
G02*
X116912743Y-117485567I1247105J-85019D01*
G01*
X116912743Y-117485567D01*
G75*
G02*
X118074829Y-118817691I-85019J-1247105D01*
G01*
X118035381Y-119396347D01*
G75*
G02*
X116703257Y-120558433I-1247105J85019D01*
G01*
X116703257Y-120558433D01*
G75*
G02*
X115541171Y-119226309I85019J1247105D01*
G01*
G37*
%TD*%
%TO.C,K15*%
G36*
G01*
X139351171Y-81130309D02*
X139390619Y-80551653D01*
G75*
G02*
X140722743Y-79389567I1247105J-85019D01*
G01*
X140722743Y-79389567D01*
G75*
G02*
X141884829Y-80721691I-85019J-1247105D01*
G01*
X141845381Y-81300347D01*
G75*
G02*
X140513257Y-82462433I-1247105J85019D01*
G01*
X140513257Y-82462433D01*
G75*
G02*
X139351171Y-81130309I85019J1247105D01*
G01*
G37*
G36*
G01*
X133184299Y-82473190D02*
X134393223Y-80575560D01*
G75*
G02*
X136119087Y-80192946I1054239J-671625D01*
G01*
X136119087Y-80192946D01*
G75*
G02*
X136501701Y-81918810I-671625J-1054239D01*
G01*
X135292777Y-83816440D01*
G75*
G02*
X133566913Y-84199054I-1054239J671625D01*
G01*
X133566913Y-84199054D01*
G75*
G02*
X133184299Y-82473190I671625J1054239D01*
G01*
G37*
X143178000Y-85716000D03*
X133018000Y-85716000D03*
D10*
X138098000Y-85716000D03*
%TD*%
%TO.C,K16*%
G36*
G01*
X144113171Y-100178309D02*
X144152619Y-99599653D01*
G75*
G02*
X145484743Y-98437567I1247105J-85019D01*
G01*
X145484743Y-98437567D01*
G75*
G02*
X146646829Y-99769691I-85019J-1247105D01*
G01*
X146607381Y-100348347D01*
G75*
G02*
X145275257Y-101510433I-1247105J85019D01*
G01*
X145275257Y-101510433D01*
G75*
G02*
X144113171Y-100178309I85019J1247105D01*
G01*
G37*
G36*
G01*
X137946299Y-101521190D02*
X139155223Y-99623560D01*
G75*
G02*
X140881087Y-99240946I1054239J-671625D01*
G01*
X140881087Y-99240946D01*
G75*
G02*
X141263701Y-100966810I-671625J-1054239D01*
G01*
X140054777Y-102864440D01*
G75*
G02*
X138328913Y-103247054I-1054239J671625D01*
G01*
X138328913Y-103247054D01*
G75*
G02*
X137946299Y-101521190I671625J1054239D01*
G01*
G37*
D11*
X147940000Y-104764000D03*
X137780000Y-104764000D03*
D10*
X142860000Y-104764000D03*
%TD*%
%TO.C,K17*%
G36*
G01*
X134589171Y-119226309D02*
X134628619Y-118647653D01*
G75*
G02*
X135960743Y-117485567I1247105J-85019D01*
G01*
X135960743Y-117485567D01*
G75*
G02*
X137122829Y-118817691I-85019J-1247105D01*
G01*
X137083381Y-119396347D01*
G75*
G02*
X135751257Y-120558433I-1247105J85019D01*
G01*
X135751257Y-120558433D01*
G75*
G02*
X134589171Y-119226309I85019J1247105D01*
G01*
G37*
G36*
G01*
X128422299Y-120569190D02*
X129631223Y-118671560D01*
G75*
G02*
X131357087Y-118288946I1054239J-671625D01*
G01*
X131357087Y-118288946D01*
G75*
G02*
X131739701Y-120014810I-671625J-1054239D01*
G01*
X130530777Y-121912440D01*
G75*
G02*
X128804913Y-122295054I-1054239J671625D01*
G01*
X128804913Y-122295054D01*
G75*
G02*
X128422299Y-120569190I671625J1054239D01*
G01*
G37*
D11*
X138416000Y-123812000D03*
X128256000Y-123812000D03*
D10*
X133336000Y-123812000D03*
%TD*%
%TO.C,K18*%
X157146000Y-85716000D03*
D11*
X152066000Y-85716000D03*
X162226000Y-85716000D03*
G36*
G01*
X152232299Y-82473190D02*
X153441223Y-80575560D01*
G75*
G02*
X155167087Y-80192946I1054239J-671625D01*
G01*
X155167087Y-80192946D01*
G75*
G02*
X155549701Y-81918810I-671625J-1054239D01*
G01*
X154340777Y-83816440D01*
G75*
G02*
X152614913Y-84199054I-1054239J671625D01*
G01*
X152614913Y-84199054D01*
G75*
G02*
X152232299Y-82473190I671625J1054239D01*
G01*
G37*
G36*
G01*
X158399171Y-81130309D02*
X158438619Y-80551653D01*
G75*
G02*
X159770743Y-79389567I1247105J-85019D01*
G01*
X159770743Y-79389567D01*
G75*
G02*
X160932829Y-80721691I-85019J-1247105D01*
G01*
X160893381Y-81300347D01*
G75*
G02*
X159561257Y-82462433I-1247105J85019D01*
G01*
X159561257Y-82462433D01*
G75*
G02*
X158399171Y-81130309I85019J1247105D01*
G01*
G37*
%TD*%
D10*
%TO.C,K19*%
X161908000Y-104764000D03*
D11*
X156828000Y-104764000D03*
X166988000Y-104764000D03*
G36*
G01*
X156994299Y-101521190D02*
X158203223Y-99623560D01*
G75*
G02*
X159929087Y-99240946I1054239J-671625D01*
G01*
X159929087Y-99240946D01*
G75*
G02*
X160311701Y-100966810I-671625J-1054239D01*
G01*
X159102777Y-102864440D01*
G75*
G02*
X157376913Y-103247054I-1054239J671625D01*
G01*
X157376913Y-103247054D01*
G75*
G02*
X156994299Y-101521190I671625J1054239D01*
G01*
G37*
G36*
G01*
X163161171Y-100178309D02*
X163200619Y-99599653D01*
G75*
G02*
X164532743Y-98437567I1247105J-85019D01*
G01*
X164532743Y-98437567D01*
G75*
G02*
X165694829Y-99769691I-85019J-1247105D01*
G01*
X165655381Y-100348347D01*
G75*
G02*
X164323257Y-101510433I-1247105J85019D01*
G01*
X164323257Y-101510433D01*
G75*
G02*
X163161171Y-100178309I85019J1247105D01*
G01*
G37*
%TD*%
D10*
%TO.C,K20*%
X152384000Y-123812000D03*
D11*
X147304000Y-123812000D03*
X157464000Y-123812000D03*
G36*
G01*
X147470299Y-120569190D02*
X148679223Y-118671560D01*
G75*
G02*
X150405087Y-118288946I1054239J-671625D01*
G01*
X150405087Y-118288946D01*
G75*
G02*
X150787701Y-120014810I-671625J-1054239D01*
G01*
X149578777Y-121912440D01*
G75*
G02*
X147852913Y-122295054I-1054239J671625D01*
G01*
X147852913Y-122295054D01*
G75*
G02*
X147470299Y-120569190I671625J1054239D01*
G01*
G37*
G36*
G01*
X153637171Y-119226309D02*
X153676619Y-118647653D01*
G75*
G02*
X155008743Y-117485567I1247105J-85019D01*
G01*
X155008743Y-117485567D01*
G75*
G02*
X156170829Y-118817691I-85019J-1247105D01*
G01*
X156131381Y-119396347D01*
G75*
G02*
X154799257Y-120558433I-1247105J85019D01*
G01*
X154799257Y-120558433D01*
G75*
G02*
X153637171Y-119226309I85019J1247105D01*
G01*
G37*
%TD*%
%TO.C,K22*%
G36*
G01*
X182209171Y-100178309D02*
X182248619Y-99599653D01*
G75*
G02*
X183580743Y-98437567I1247105J-85019D01*
G01*
X183580743Y-98437567D01*
G75*
G02*
X184742829Y-99769691I-85019J-1247105D01*
G01*
X184703381Y-100348347D01*
G75*
G02*
X183371257Y-101510433I-1247105J85019D01*
G01*
X183371257Y-101510433D01*
G75*
G02*
X182209171Y-100178309I85019J1247105D01*
G01*
G37*
G36*
G01*
X176042299Y-101521190D02*
X177251223Y-99623560D01*
G75*
G02*
X178977087Y-99240946I1054239J-671625D01*
G01*
X178977087Y-99240946D01*
G75*
G02*
X179359701Y-100966810I-671625J-1054239D01*
G01*
X178150777Y-102864440D01*
G75*
G02*
X176424913Y-103247054I-1054239J671625D01*
G01*
X176424913Y-103247054D01*
G75*
G02*
X176042299Y-101521190I671625J1054239D01*
G01*
G37*
X186036000Y-104764000D03*
X175876000Y-104764000D03*
D10*
X180956000Y-104764000D03*
%TD*%
%TO.C,K23*%
X171432000Y-123812000D03*
D11*
X166352000Y-123812000D03*
X176512000Y-123812000D03*
G36*
G01*
X166518299Y-120569190D02*
X167727223Y-118671560D01*
G75*
G02*
X169453087Y-118288946I1054239J-671625D01*
G01*
X169453087Y-118288946D01*
G75*
G02*
X169835701Y-120014810I-671625J-1054239D01*
G01*
X168626777Y-121912440D01*
G75*
G02*
X166900913Y-122295054I-1054239J671625D01*
G01*
X166900913Y-122295054D01*
G75*
G02*
X166518299Y-120569190I671625J1054239D01*
G01*
G37*
G36*
G01*
X172685171Y-119226309D02*
X172724619Y-118647653D01*
G75*
G02*
X174056743Y-117485567I1247105J-85019D01*
G01*
X174056743Y-117485567D01*
G75*
G02*
X175218829Y-118817691I-85019J-1247105D01*
G01*
X175179381Y-119396347D01*
G75*
G02*
X173847257Y-120558433I-1247105J85019D01*
G01*
X173847257Y-120558433D01*
G75*
G02*
X172685171Y-119226309I85019J1247105D01*
G01*
G37*
%TD*%
D10*
%TO.C,K25*%
X195242000Y-85716000D03*
D11*
X190162000Y-85716000D03*
X200322000Y-85716000D03*
G36*
G01*
X190328299Y-82473190D02*
X191537223Y-80575560D01*
G75*
G02*
X193263087Y-80192946I1054239J-671625D01*
G01*
X193263087Y-80192946D01*
G75*
G02*
X193645701Y-81918810I-671625J-1054239D01*
G01*
X192436777Y-83816440D01*
G75*
G02*
X190710913Y-84199054I-1054239J671625D01*
G01*
X190710913Y-84199054D01*
G75*
G02*
X190328299Y-82473190I671625J1054239D01*
G01*
G37*
G36*
G01*
X196495171Y-81130309D02*
X196534619Y-80551653D01*
G75*
G02*
X197866743Y-79389567I1247105J-85019D01*
G01*
X197866743Y-79389567D01*
G75*
G02*
X199028829Y-80721691I-85019J-1247105D01*
G01*
X198989381Y-81300347D01*
G75*
G02*
X197657257Y-82462433I-1247105J85019D01*
G01*
X197657257Y-82462433D01*
G75*
G02*
X196495171Y-81130309I85019J1247105D01*
G01*
G37*
%TD*%
D10*
%TO.C,K26*%
X200004000Y-104764000D03*
D11*
X194924000Y-104764000D03*
X205084000Y-104764000D03*
G36*
G01*
X195090299Y-101521190D02*
X196299223Y-99623560D01*
G75*
G02*
X198025087Y-99240946I1054239J-671625D01*
G01*
X198025087Y-99240946D01*
G75*
G02*
X198407701Y-100966810I-671625J-1054239D01*
G01*
X197198777Y-102864440D01*
G75*
G02*
X195472913Y-103247054I-1054239J671625D01*
G01*
X195472913Y-103247054D01*
G75*
G02*
X195090299Y-101521190I671625J1054239D01*
G01*
G37*
G36*
G01*
X201257171Y-100178309D02*
X201296619Y-99599653D01*
G75*
G02*
X202628743Y-98437567I1247105J-85019D01*
G01*
X202628743Y-98437567D01*
G75*
G02*
X203790829Y-99769691I-85019J-1247105D01*
G01*
X203751381Y-100348347D01*
G75*
G02*
X202419257Y-101510433I-1247105J85019D01*
G01*
X202419257Y-101510433D01*
G75*
G02*
X201257171Y-100178309I85019J1247105D01*
G01*
G37*
%TD*%
%TO.C,K27*%
G36*
G01*
X191733171Y-119226309D02*
X191772619Y-118647653D01*
G75*
G02*
X193104743Y-117485567I1247105J-85019D01*
G01*
X193104743Y-117485567D01*
G75*
G02*
X194266829Y-118817691I-85019J-1247105D01*
G01*
X194227381Y-119396347D01*
G75*
G02*
X192895257Y-120558433I-1247105J85019D01*
G01*
X192895257Y-120558433D01*
G75*
G02*
X191733171Y-119226309I85019J1247105D01*
G01*
G37*
G36*
G01*
X185566299Y-120569190D02*
X186775223Y-118671560D01*
G75*
G02*
X188501087Y-118288946I1054239J-671625D01*
G01*
X188501087Y-118288946D01*
G75*
G02*
X188883701Y-120014810I-671625J-1054239D01*
G01*
X187674777Y-121912440D01*
G75*
G02*
X185948913Y-122295054I-1054239J671625D01*
G01*
X185948913Y-122295054D01*
G75*
G02*
X185566299Y-120569190I671625J1054239D01*
G01*
G37*
X195560000Y-123812000D03*
X185400000Y-123812000D03*
D10*
X190480000Y-123812000D03*
%TD*%
%TO.C,K28*%
G36*
G01*
X215543171Y-81130309D02*
X215582619Y-80551653D01*
G75*
G02*
X216914743Y-79389567I1247105J-85019D01*
G01*
X216914743Y-79389567D01*
G75*
G02*
X218076829Y-80721691I-85019J-1247105D01*
G01*
X218037381Y-81300347D01*
G75*
G02*
X216705257Y-82462433I-1247105J85019D01*
G01*
X216705257Y-82462433D01*
G75*
G02*
X215543171Y-81130309I85019J1247105D01*
G01*
G37*
G36*
G01*
X209376299Y-82473190D02*
X210585223Y-80575560D01*
G75*
G02*
X212311087Y-80192946I1054239J-671625D01*
G01*
X212311087Y-80192946D01*
G75*
G02*
X212693701Y-81918810I-671625J-1054239D01*
G01*
X211484777Y-83816440D01*
G75*
G02*
X209758913Y-84199054I-1054239J671625D01*
G01*
X209758913Y-84199054D01*
G75*
G02*
X209376299Y-82473190I671625J1054239D01*
G01*
G37*
D11*
X219370000Y-85716000D03*
X209210000Y-85716000D03*
D10*
X214290000Y-85716000D03*
%TD*%
%TO.C,K29*%
G36*
G01*
X220305171Y-100178309D02*
X220344619Y-99599653D01*
G75*
G02*
X221676743Y-98437567I1247105J-85019D01*
G01*
X221676743Y-98437567D01*
G75*
G02*
X222838829Y-99769691I-85019J-1247105D01*
G01*
X222799381Y-100348347D01*
G75*
G02*
X221467257Y-101510433I-1247105J85019D01*
G01*
X221467257Y-101510433D01*
G75*
G02*
X220305171Y-100178309I85019J1247105D01*
G01*
G37*
G36*
G01*
X214138299Y-101521190D02*
X215347223Y-99623560D01*
G75*
G02*
X217073087Y-99240946I1054239J-671625D01*
G01*
X217073087Y-99240946D01*
G75*
G02*
X217455701Y-100966810I-671625J-1054239D01*
G01*
X216246777Y-102864440D01*
G75*
G02*
X214520913Y-103247054I-1054239J671625D01*
G01*
X214520913Y-103247054D01*
G75*
G02*
X214138299Y-101521190I671625J1054239D01*
G01*
G37*
D11*
X224132000Y-104764000D03*
X213972000Y-104764000D03*
D10*
X219052000Y-104764000D03*
%TD*%
%TO.C,K30*%
X209528000Y-123812000D03*
D11*
X204448000Y-123812000D03*
X214608000Y-123812000D03*
G36*
G01*
X204614299Y-120569190D02*
X205823223Y-118671560D01*
G75*
G02*
X207549087Y-118288946I1054239J-671625D01*
G01*
X207549087Y-118288946D01*
G75*
G02*
X207931701Y-120014810I-671625J-1054239D01*
G01*
X206722777Y-121912440D01*
G75*
G02*
X204996913Y-122295054I-1054239J671625D01*
G01*
X204996913Y-122295054D01*
G75*
G02*
X204614299Y-120569190I671625J1054239D01*
G01*
G37*
G36*
G01*
X210781171Y-119226309D02*
X210820619Y-118647653D01*
G75*
G02*
X212152743Y-117485567I1247105J-85019D01*
G01*
X212152743Y-117485567D01*
G75*
G02*
X213314829Y-118817691I-85019J-1247105D01*
G01*
X213275381Y-119396347D01*
G75*
G02*
X211943257Y-120558433I-1247105J85019D01*
G01*
X211943257Y-120558433D01*
G75*
G02*
X210781171Y-119226309I85019J1247105D01*
G01*
G37*
%TD*%
D10*
%TO.C,K31*%
X233338000Y-85716000D03*
D11*
X228258000Y-85716000D03*
X238418000Y-85716000D03*
G36*
G01*
X228424299Y-82473190D02*
X229633223Y-80575560D01*
G75*
G02*
X231359087Y-80192946I1054239J-671625D01*
G01*
X231359087Y-80192946D01*
G75*
G02*
X231741701Y-81918810I-671625J-1054239D01*
G01*
X230532777Y-83816440D01*
G75*
G02*
X228806913Y-84199054I-1054239J671625D01*
G01*
X228806913Y-84199054D01*
G75*
G02*
X228424299Y-82473190I671625J1054239D01*
G01*
G37*
G36*
G01*
X234591171Y-81130309D02*
X234630619Y-80551653D01*
G75*
G02*
X235962743Y-79389567I1247105J-85019D01*
G01*
X235962743Y-79389567D01*
G75*
G02*
X237124829Y-80721691I-85019J-1247105D01*
G01*
X237085381Y-81300347D01*
G75*
G02*
X235753257Y-82462433I-1247105J85019D01*
G01*
X235753257Y-82462433D01*
G75*
G02*
X234591171Y-81130309I85019J1247105D01*
G01*
G37*
%TD*%
D10*
%TO.C,K32*%
X238100000Y-104764000D03*
D11*
X233020000Y-104764000D03*
X243180000Y-104764000D03*
G36*
G01*
X233186299Y-101521190D02*
X234395223Y-99623560D01*
G75*
G02*
X236121087Y-99240946I1054239J-671625D01*
G01*
X236121087Y-99240946D01*
G75*
G02*
X236503701Y-100966810I-671625J-1054239D01*
G01*
X235294777Y-102864440D01*
G75*
G02*
X233568913Y-103247054I-1054239J671625D01*
G01*
X233568913Y-103247054D01*
G75*
G02*
X233186299Y-101521190I671625J1054239D01*
G01*
G37*
G36*
G01*
X239353171Y-100178309D02*
X239392619Y-99599653D01*
G75*
G02*
X240724743Y-98437567I1247105J-85019D01*
G01*
X240724743Y-98437567D01*
G75*
G02*
X241886829Y-99769691I-85019J-1247105D01*
G01*
X241847381Y-100348347D01*
G75*
G02*
X240515257Y-101510433I-1247105J85019D01*
G01*
X240515257Y-101510433D01*
G75*
G02*
X239353171Y-100178309I85019J1247105D01*
G01*
G37*
%TD*%
%TO.C,K33*%
G36*
G01*
X229829171Y-119226309D02*
X229868619Y-118647653D01*
G75*
G02*
X231200743Y-117485567I1247105J-85019D01*
G01*
X231200743Y-117485567D01*
G75*
G02*
X232362829Y-118817691I-85019J-1247105D01*
G01*
X232323381Y-119396347D01*
G75*
G02*
X230991257Y-120558433I-1247105J85019D01*
G01*
X230991257Y-120558433D01*
G75*
G02*
X229829171Y-119226309I85019J1247105D01*
G01*
G37*
G36*
G01*
X223662299Y-120569190D02*
X224871223Y-118671560D01*
G75*
G02*
X226597087Y-118288946I1054239J-671625D01*
G01*
X226597087Y-118288946D01*
G75*
G02*
X226979701Y-120014810I-671625J-1054239D01*
G01*
X225770777Y-121912440D01*
G75*
G02*
X224044913Y-122295054I-1054239J671625D01*
G01*
X224044913Y-122295054D01*
G75*
G02*
X223662299Y-120569190I671625J1054239D01*
G01*
G37*
X233656000Y-123812000D03*
X223496000Y-123812000D03*
D10*
X228576000Y-123812000D03*
%TD*%
%TO.C,K34*%
G36*
G01*
X253639171Y-81130309D02*
X253678619Y-80551653D01*
G75*
G02*
X255010743Y-79389567I1247105J-85019D01*
G01*
X255010743Y-79389567D01*
G75*
G02*
X256172829Y-80721691I-85019J-1247105D01*
G01*
X256133381Y-81300347D01*
G75*
G02*
X254801257Y-82462433I-1247105J85019D01*
G01*
X254801257Y-82462433D01*
G75*
G02*
X253639171Y-81130309I85019J1247105D01*
G01*
G37*
G36*
G01*
X247472299Y-82473190D02*
X248681223Y-80575560D01*
G75*
G02*
X250407087Y-80192946I1054239J-671625D01*
G01*
X250407087Y-80192946D01*
G75*
G02*
X250789701Y-81918810I-671625J-1054239D01*
G01*
X249580777Y-83816440D01*
G75*
G02*
X247854913Y-84199054I-1054239J671625D01*
G01*
X247854913Y-84199054D01*
G75*
G02*
X247472299Y-82473190I671625J1054239D01*
G01*
G37*
D11*
X257466000Y-85716000D03*
X247306000Y-85716000D03*
D10*
X252386000Y-85716000D03*
%TD*%
%TO.C,K35*%
G36*
G01*
X265544171Y-100178309D02*
X265583619Y-99599653D01*
G75*
G02*
X266915743Y-98437567I1247105J-85019D01*
G01*
X266915743Y-98437567D01*
G75*
G02*
X268077829Y-99769691I-85019J-1247105D01*
G01*
X268038381Y-100348347D01*
G75*
G02*
X266706257Y-101510433I-1247105J85019D01*
G01*
X266706257Y-101510433D01*
G75*
G02*
X265544171Y-100178309I85019J1247105D01*
G01*
G37*
G36*
G01*
X259377299Y-101521190D02*
X260586223Y-99623560D01*
G75*
G02*
X262312087Y-99240946I1054239J-671625D01*
G01*
X262312087Y-99240946D01*
G75*
G02*
X262694701Y-100966810I-671625J-1054239D01*
G01*
X261485777Y-102864440D01*
G75*
G02*
X259759913Y-103247054I-1054239J671625D01*
G01*
X259759913Y-103247054D01*
G75*
G02*
X259377299Y-101521190I671625J1054239D01*
G01*
G37*
D11*
X269371000Y-104764000D03*
X259211000Y-104764000D03*
D10*
X264291000Y-104764000D03*
%TD*%
%TO.C,K37*%
G36*
G01*
X246496171Y-138274309D02*
X246535619Y-137695653D01*
G75*
G02*
X247867743Y-136533567I1247105J-85019D01*
G01*
X247867743Y-136533567D01*
G75*
G02*
X249029829Y-137865691I-85019J-1247105D01*
G01*
X248990381Y-138444347D01*
G75*
G02*
X247658257Y-139606433I-1247105J85019D01*
G01*
X247658257Y-139606433D01*
G75*
G02*
X246496171Y-138274309I85019J1247105D01*
G01*
G37*
G36*
G01*
X240329299Y-139617190D02*
X241538223Y-137719560D01*
G75*
G02*
X243264087Y-137336946I1054239J-671625D01*
G01*
X243264087Y-137336946D01*
G75*
G02*
X243646701Y-139062810I-671625J-1054239D01*
G01*
X242437777Y-140960440D01*
G75*
G02*
X240711913Y-141343054I-1054239J671625D01*
G01*
X240711913Y-141343054D01*
G75*
G02*
X240329299Y-139617190I671625J1054239D01*
G01*
G37*
D11*
X250323000Y-142860000D03*
X240163000Y-142860000D03*
D10*
X245243000Y-142860000D03*
%TD*%
%TO.C,K38*%
X271434000Y-85716000D03*
D11*
X266354000Y-85716000D03*
X276514000Y-85716000D03*
G36*
G01*
X266520299Y-82473190D02*
X267729223Y-80575560D01*
G75*
G02*
X269455087Y-80192946I1054239J-671625D01*
G01*
X269455087Y-80192946D01*
G75*
G02*
X269837701Y-81918810I-671625J-1054239D01*
G01*
X268628777Y-83816440D01*
G75*
G02*
X266902913Y-84199054I-1054239J671625D01*
G01*
X266902913Y-84199054D01*
G75*
G02*
X266520299Y-82473190I671625J1054239D01*
G01*
G37*
G36*
G01*
X272687171Y-81130309D02*
X272726619Y-80551653D01*
G75*
G02*
X274058743Y-79389567I1247105J-85019D01*
G01*
X274058743Y-79389567D01*
G75*
G02*
X275220829Y-80721691I-85019J-1247105D01*
G01*
X275181381Y-81300347D01*
G75*
G02*
X273849257Y-82462433I-1247105J85019D01*
G01*
X273849257Y-82462433D01*
G75*
G02*
X272687171Y-81130309I85019J1247105D01*
G01*
G37*
%TD*%
D10*
%TO.C,K39*%
X269053000Y-142860000D03*
D11*
X263973000Y-142860000D03*
X274133000Y-142860000D03*
G36*
G01*
X264139299Y-139617190D02*
X265348223Y-137719560D01*
G75*
G02*
X267074087Y-137336946I1054239J-671625D01*
G01*
X267074087Y-137336946D01*
G75*
G02*
X267456701Y-139062810I-671625J-1054239D01*
G01*
X266247777Y-140960440D01*
G75*
G02*
X264521913Y-141343054I-1054239J671625D01*
G01*
X264521913Y-141343054D01*
G75*
G02*
X264139299Y-139617190I671625J1054239D01*
G01*
G37*
G36*
G01*
X270306171Y-138274309D02*
X270345619Y-137695653D01*
G75*
G02*
X271677743Y-136533567I1247105J-85019D01*
G01*
X271677743Y-136533567D01*
G75*
G02*
X272839829Y-137865691I-85019J-1247105D01*
G01*
X272800381Y-138444347D01*
G75*
G02*
X271468257Y-139606433I-1247105J85019D01*
G01*
X271468257Y-139606433D01*
G75*
G02*
X270306171Y-138274309I85019J1247105D01*
G01*
G37*
%TD*%
D21*
%TO.C,OL1*%
X36667000Y-130955000D03*
X39207000Y-130955000D03*
X41747000Y-130955000D03*
X44287000Y-130955000D03*
%TD*%
D22*
%TO.C,Reset*%
X48389000Y-136198000D03*
X42089000Y-136198000D03*
X48389000Y-139998000D03*
X42089000Y-139998000D03*
%TD*%
M02*
